<mxfile host="app.diagrams.net" agent="Mozilla/5.0 (Macintosh; Intel Mac OS X 10_15_7) AppleWebKit/537.36 (KHTML, like Gecko) Chrome/135.0.0.0 Safari/537.36 Edg/135.0.0.0" version="26.2.14" pages="3">
  <diagram name="[0] clab limits" id="fmmCRZFxM78mryHaWSr-">
    <mxGraphModel dx="1350" dy="675" grid="1" gridSize="10" guides="1" tooltips="1" connect="1" arrows="1" fold="1" page="1" pageScale="1" pageWidth="850" pageHeight="1100" math="0" shadow="0">
      <root>
        <mxCell id="0" />
        <mxCell id="1" parent="0" />
        <mxCell id="bViVYC_TJQOF8ieiFQaA-164" value="" style="verticalLabelPosition=bottom;verticalAlign=top;html=1;shape=mxgraph.basic.rect;fillColor2=none;strokeWidth=1;size=3.87;indent=0;topLeftStyle=rounded;topRightStyle=rounded;strokeColor=#ADB9C8;rotation=-180;fillColor=#edf3f5;perimeterSpacing=1;opacity=70;gradientColor=none;" vertex="1" parent="1">
          <mxGeometry x="110" y="124.5" width="699" height="400.5" as="geometry" />
        </mxCell>
        <mxCell id="bViVYC_TJQOF8ieiFQaA-1" value="" style="verticalLabelPosition=bottom;verticalAlign=top;html=1;shape=mxgraph.basic.rect;fillColor2=none;strokeWidth=1;size=3.87;indent=0;topLeftStyle=rounded;topRightStyle=rounded;strokeColor=#98A2AE;rotation=-180;fillColor=#edf3f5;" vertex="1" parent="1">
          <mxGeometry x="144" y="221" width="199" height="216" as="geometry" />
        </mxCell>
        <mxCell id="bViVYC_TJQOF8ieiFQaA-2" value="" style="rounded=1;whiteSpace=wrap;html=1;fillColor=none;dashed=1;strokeColor=#98A2AE;arcSize=3;connectable=0;movable=1;resizable=1;rotatable=1;deletable=1;editable=1;locked=0;" vertex="1" parent="1">
          <mxGeometry x="157.04" y="284" width="170.96" height="136" as="geometry" />
        </mxCell>
        <mxCell id="bViVYC_TJQOF8ieiFQaA-3" value="&lt;b&gt;Compute Node&lt;/b&gt;" style="verticalLabelPosition=middle;verticalAlign=middle;html=1;shape=mxgraph.basic.rect;fillColor2=none;strokeWidth=1;size=4.22;indent=29.33;topLeftStyle=rounded;topRightStyle=rounded;strokeColor=#98a2ae;fillColor=#BEC8D2;labelPosition=center;align=center;fontFamily=Google Sans;fontSource=https%3A%2F%2Ffonts.googleapis.com%2Fcss%3Ffamily%3DGoogle%2BSans;fontColor=#FFFFFF;" vertex="1" parent="1">
          <mxGeometry x="144" y="202" width="199" height="19" as="geometry" />
        </mxCell>
        <mxCell id="bViVYC_TJQOF8ieiFQaA-35" value="&lt;font style=&quot;color: rgb(255, 255, 255);&quot;&gt;L2&lt;/font&gt;" style="rounded=1;whiteSpace=wrap;html=1;strokeColor=none;arcSize=21;fillColor=#001135;" vertex="1" parent="1">
          <mxGeometry x="295.11" y="235.5" width="34.11" height="30" as="geometry" />
        </mxCell>
        <mxCell id="bViVYC_TJQOF8ieiFQaA-46" value="" style="verticalLabelPosition=bottom;verticalAlign=top;html=1;shape=mxgraph.basic.rect;fillColor2=none;strokeWidth=1;size=3.87;indent=0;topLeftStyle=rounded;topRightStyle=rounded;strokeColor=#98A2AE;rotation=-180;fillColor=#edf3f5;" vertex="1" parent="1">
          <mxGeometry x="380" y="221.25" width="199" height="157.25" as="geometry" />
        </mxCell>
        <mxCell id="bViVYC_TJQOF8ieiFQaA-48" value="&lt;b&gt;OpenStack Controller&lt;/b&gt;" style="verticalLabelPosition=middle;verticalAlign=middle;html=1;shape=mxgraph.basic.rect;fillColor2=none;strokeWidth=1;size=4.22;indent=29.33;topLeftStyle=rounded;topRightStyle=rounded;strokeColor=#98a2ae;fillColor=#BEC8D2;labelPosition=center;align=center;fontFamily=Google Sans;fontSource=https%3A%2F%2Ffonts.googleapis.com%2Fcss%3Ffamily%3DGoogle%2BSans;fontColor=#FFFFFF;" vertex="1" parent="1">
          <mxGeometry x="380" y="202.25" width="199" height="19" as="geometry" />
        </mxCell>
        <mxCell id="bViVYC_TJQOF8ieiFQaA-91" value="" style="verticalLabelPosition=bottom;verticalAlign=top;html=1;shape=mxgraph.basic.rect;fillColor2=none;strokeWidth=1;size=3.87;indent=0;topLeftStyle=rounded;topRightStyle=rounded;strokeColor=#98A2AE;rotation=-180;fillColor=#edf3f5;" vertex="1" parent="1">
          <mxGeometry x="590" y="221.5" width="199" height="237.5" as="geometry" />
        </mxCell>
        <mxCell id="bViVYC_TJQOF8ieiFQaA-93" value="&lt;b&gt;EDA&lt;/b&gt;" style="verticalLabelPosition=middle;verticalAlign=middle;html=1;shape=mxgraph.basic.rect;fillColor2=none;strokeWidth=1;size=4.22;indent=29.33;topLeftStyle=rounded;topRightStyle=rounded;strokeColor=#98a2ae;fillColor=#BEC8D2;labelPosition=center;align=center;fontFamily=Google Sans;fontSource=https%3A%2F%2Ffonts.googleapis.com%2Fcss%3Ffamily%3DGoogle%2BSans;fontColor=#FFFFFF;" vertex="1" parent="1">
          <mxGeometry x="590" y="202.5" width="199" height="19" as="geometry" />
        </mxCell>
        <mxCell id="bViVYC_TJQOF8ieiFQaA-127" value="" style="group;aspect=fixed;" vertex="1" connectable="0" parent="1">
          <mxGeometry x="745.68" y="210" width="40" height="40" as="geometry" />
        </mxCell>
        <mxCell id="bViVYC_TJQOF8ieiFQaA-128" value="" style="whiteSpace=wrap;html=1;aspect=fixed;fillColor=#001135;strokeColor=none;connectable=1;allowArrows=1;" vertex="1" parent="bViVYC_TJQOF8ieiFQaA-127">
          <mxGeometry width="40" height="40" as="geometry" />
        </mxCell>
        <mxCell id="bViVYC_TJQOF8ieiFQaA-129" value="" style="shape=image;verticalLabelPosition=bottom;labelBackgroundColor=default;verticalAlign=top;aspect=fixed;imageAspect=0;image=data:image/svg+xml,PHN2ZyB4bWxuczp4bGluaz0iaHR0cDovL3d3dy53My5vcmcvMTk5OS94bGluayIgeG1sbnM9Imh0dHA6Ly93d3cudzMub3JnLzIwMDAvc3ZnIiBoZWlnaHQ9Ijc3NS40NSIgd2lkdGg9Ijc4Mi4wMyIgdmlld0JveD0iLTE3My4yNjY3IC0zMDkuNjY0IDc4Mi4wMjk4IDc3NS40NTAzIj4mI3hhOyAgPGRlZnM+JiN4YTsgICAgPGxpbmVhckdyYWRpZW50IGdyYWRpZW50VHJhbnNmb3JtPSJtYXRyaXgoMSwgMCwgMCwgMSwgLTE3My4yNjc2NywgLTMwOS42NjQzOTgpIiBncmFkaWVudFVuaXRzPSJ1c2VyU3BhY2VPblVzZSIgeTI9IjY0NS41NiIgeDI9IjQ5NC42OCIgeTE9IjY0NS41NiIgeDE9IjQ1My44OCIgaWQ9ImxpbmVhci1ncmFkaWVudCI+JiN4YTsgICAgICA8c3RvcCBzdG9wLWNvbG9yPSIjMjUyMzY0IiBvZmZzZXQ9IjAiLz4mI3hhOyAgICAgIDxzdG9wIHN0b3AtY29sb3I9IiMyYTIyNjQiIG9mZnNldD0iMC4xMSIvPiYjeGE7ICAgICAgPHN0b3Agc3RvcC1jb2xvcj0iIzM5MWY2NCIgb2Zmc2V0PSIwLjI1Ii8+JiN4YTsgICAgICA8c3RvcCBzdG9wLWNvbG9yPSIjNTExYjY1IiBvZmZzZXQ9IjAuNCIvPiYjeGE7ICAgICAgPHN0b3Agc3RvcC1jb2xvcj0iIzc0MTY2NSIgb2Zmc2V0PSIwLjU1Ii8+JiN4YTsgICAgICA8c3RvcCBzdG9wLWNvbG9yPSIjYTAwZjY2IiBvZmZzZXQ9IjAuNzIiLz4mI3hhOyAgICAgIDxzdG9wIHN0b3AtY29sb3I9IiNkNTA2NjgiIG9mZnNldD0iMC44OCIvPiYjeGE7ICAgICAgPHN0b3Agc3RvcC1jb2xvcj0iI2ZmMDA2OSIgb2Zmc2V0PSIxIi8+JiN4YTsgICAgPC9saW5lYXJHcmFkaWVudD4mI3hhOyAgICA8bGluZWFyR3JhZGllbnQgZ3JhZGllbnRUcmFuc2Zvcm09Im1hdHJpeCgxLCAwLCAwLCAxLCAtMTczLjI2NzY3LCAtMzA5LjY2NDM5OCkiIGdyYWRpZW50VW5pdHM9InVzZXJTcGFjZU9uVXNlIiB5Mj0iNzA5Ljk1IiB4Mj0iNDU3LjU4IiB5MT0iNzA5Ljk1IiB4MT0iMzcwLjE4IiBpZD0ibGluZWFyLWdyYWRpZW50LTIiPiYjeGE7ICAgICAgPHN0b3Agc3RvcC1jb2xvcj0iIzc0MjI2ZSIgb2Zmc2V0PSIwIi8+JiN4YTsgICAgICA8c3RvcCBzdG9wLWNvbG9yPSIjNzMyMjZkIiBvZmZzZXQ9IjAiLz4mI3hhOyAgICAgIDxzdG9wIHN0b3AtY29sb3I9IiM1MTIyNjkiIG9mZnNldD0iMC4yOCIvPiYjeGE7ICAgICAgPHN0b3Agc3RvcC1jb2xvcj0iIzM5MjI2NiIgb2Zmc2V0PSIwLjU1Ii8+JiN4YTsgICAgICA8c3RvcCBzdG9wLWNvbG9yPSIjMmEyMjY0IiBvZmZzZXQ9IjAuOCIvPiYjeGE7ICAgICAgPHN0b3Agc3RvcC1jb2xvcj0iIzI1MjM2NCIgb2Zmc2V0PSIxIi8+JiN4YTsgICAgPC9saW5lYXJHcmFkaWVudD4mI3hhOyAgICA8bGluZWFyR3JhZGllbnQgZ3JhZGllbnRUcmFuc2Zvcm09Im1hdHJpeCgxLCAwLCAwLCAxLCAtMTczLjI2NzY3LCAtMzA5LjY2NDM5OCkiIGdyYWRpZW50VW5pdHM9InVzZXJTcGFjZU9uVXNlIiB5Mj0iNDI5LjciIHgyPSI4OC41MyIgeTE9IjI3Ny4zMSIgeDE9Ijg4LjUzIiBpZD0ibGluZWFyLWdyYWRpZW50LTMiPiYjeGE7ICAgICAgPHN0b3Agc3RvcC1jb2xvcj0iI2ZmYzkwZiIgb2Zmc2V0PSIwIi8+JiN4YTsgICAgICA8c3RvcCBzdG9wLWNvbG9yPSIjYjcwMDVmIiBvZmZzZXQ9IjEiLz4mI3hhOyAgICA8L2xpbmVhckdyYWRpZW50PiYjeGE7ICAgIDxsaW5lYXJHcmFkaWVudCBncmFkaWVudFRyYW5zZm9ybT0ibWF0cml4KDEsIDAsIDAsIDEsIC0xNzMuMjY3NjcsIC0zMDkuNjY0Mzk4KSIgZ3JhZGllbnRVbml0cz0idXNlclNwYWNlT25Vc2UiIHkyPSIxMDQuNTUiIHgyPSIxODQiIHkxPSIxMDQuNTUiIHgxPSIxMjkuOTkiIGlkPSJsaW5lYXItZ3JhZGllbnQtNCI+JiN4YTsgICAgICA8c3RvcCBzdG9wLWNvbG9yPSIjZjlmZjAwIiBvZmZzZXQ9IjAiLz4mI3hhOyAgICAgIDxzdG9wIHN0b3AtY29sb3I9IiNmZjU3MDAiIG9mZnNldD0iMSIvPiYjeGE7ICAgIDwvbGluZWFyR3JhZGllbnQ+JiN4YTsgICAgPGxpbmVhckdyYWRpZW50IGdyYWRpZW50VHJhbnNmb3JtPSJtYXRyaXgoMSwgMCwgMCwgMSwgLTE3My4yNjc2NywgLTMwOS42NjQzOTgpIiBncmFkaWVudFVuaXRzPSJ1c2VyU3BhY2VPblVzZSIgeTI9IjQyOS43IiB4Mj0iMTI5LjYzIiB5MT0iMTg0Ljc5IiB4MT0iMTI5LjYzIiBpZD0ibGluZWFyLWdyYWRpZW50LTUiPiYjeGE7ICAgICAgPHN0b3Agc3RvcC1jb2xvcj0iI2M3MDAzMyIgb2Zmc2V0PSIwIi8+JiN4YTsgICAgICA8c3RvcCBzdG9wLWNvbG9yPSIjODIwMDQ4IiBvZmZzZXQ9IjAuMzQiLz4mI3hhOyAgICAgIDxzdG9wIHN0b3AtY29sb3I9IiMxNDAwNGIiIG9mZnNldD0iMSIvPiYjeGE7ICAgIDwvbGluZWFyR3JhZGllbnQ+JiN4YTsgICAgPGxpbmVhckdyYWRpZW50IHhsaW5rOmhyZWY9IiNsaW5lYXItZ3JhZGllbnQtNCIgZ3JhZGllbnRUcmFuc2Zvcm09Im1hdHJpeCgxLCAwLCAwLCAxLCAtMzQ2LjUzNTMzOSwgLTYxOS4zMjg3OTYpIiB5Mj0iNTEuMDgiIHgyPSI0NDYuMTYiIHkxPSI1MS4wOCIgeDE9IjI1Mi43MyIgaWQ9ImxpbmVhci1ncmFkaWVudC02Ii8+JiN4YTsgICAgPGxpbmVhckdyYWRpZW50IGdyYWRpZW50VHJhbnNmb3JtPSJtYXRyaXgoMSwgMCwgMCwgMSwgLTE3My4yNjc2NywgLTMwOS42NjQzOTgpIiBncmFkaWVudFVuaXRzPSJ1c2VyU3BhY2VPblVzZSIgeTI9IjEzNy4wMiIgeDI9IjMwMi4xOCIgeTE9IjEzNy4wMiIgeDE9IjIxOS4xNiIgaWQ9ImxpbmVhci1ncmFkaWVudC03Ij4mI3hhOyAgICAgIDxzdG9wIHN0b3AtY29sb3I9IiNiNzAwNWYiIG9mZnNldD0iMCIvPiYjeGE7ICAgICAgPHN0b3Agc3RvcC1jb2xvcj0iI2ZmYzkwZiIgb2Zmc2V0PSIxIi8+JiN4YTsgICAgPC9saW5lYXJHcmFkaWVudD4mI3hhOyAgICA8bGluZWFyR3JhZGllbnQgZ3JhZGllbnRUcmFuc2Zvcm09Im1hdHJpeCgxLCAwLCAwLCAxLCAtMTczLjI2NzY3LCAtMzA5LjY2NDM5OCkiIGdyYWRpZW50VW5pdHM9InVzZXJTcGFjZU9uVXNlIiB5Mj0iNDI5LjciIHgyPSIxNDIuODYiIHkxPSIyODUuMjgiIHgxPSIxNDIuODYiIGlkPSJsaW5lYXItZ3JhZGllbnQtOCI+JiN4YTsgICAgICA8c3RvcCBzdG9wLWNvbG9yPSIjNzQyMjZlIiBvZmZzZXQ9IjAiLz4mI3hhOyAgICAgIDxzdG9wIHN0b3AtY29sb3I9IiMyNTIzNjQiIG9mZnNldD0iMSIvPiYjeGE7ICAgIDwvbGluZWFyR3JhZGllbnQ+JiN4YTsgICAgPGxpbmVhckdyYWRpZW50IGdyYWRpZW50VHJhbnNmb3JtPSJtYXRyaXgoMSwgMCwgMCwgMSwgLTE3My4yNjc2NywgLTMwOS42NjQzOTgpIiBncmFkaWVudFVuaXRzPSJ1c2VyU3BhY2VPblVzZSIgeTI9IjE3OS4xNCIgeDI9IjM5Mi44NCIgeTE9IjE3OS4xNCIgeDE9IjE3Mi44OSIgaWQ9ImxpbmVhci1ncmFkaWVudC05Ij4mI3hhOyAgICAgIDxzdG9wIHN0b3AtY29sb3I9IiMyNzAwNGIiIG9mZnNldD0iMCIvPiYjeGE7ICAgICAgPHN0b3Agc3RvcC1jb2xvcj0iI2ZmMDAyYSIgb2Zmc2V0PSIxIi8+JiN4YTsgICAgPC9saW5lYXJHcmFkaWVudD4mI3hhOyAgICA8bGluZWFyR3JhZGllbnQgeGxpbms6aHJlZj0iI2xpbmVhci1ncmFkaWVudC03IiBncmFkaWVudFRyYW5zZm9ybT0ibWF0cml4KDEsIDAsIDAsIDEsIC0zNDYuNTM1MzM5LCAtNjE5LjMyODc5NikiIHkyPSIzMzcuNTkiIHgyPSIxODYuNDMiIHkxPSIzMzcuNTkiIHgxPSIxNDguMDgiIGlkPSJsaW5lYXItZ3JhZGllbnQtMTAiLz4mI3hhOyAgICA8bGluZWFyR3JhZGllbnQgeGxpbms6aHJlZj0iI2xpbmVhci1ncmFkaWVudC03IiBncmFkaWVudFRyYW5zZm9ybT0ibWF0cml4KDEsIDAsIDAsIDEsIC0zNDYuNTM1MzM5LCAtNjE5LjMyODc5NikiIHkyPSIyMjguNzIiIHgyPSIzMjcuMDYiIHkxPSIyMjguNzIiIHgxPSIxNzkuMDciIGlkPSJsaW5lYXItZ3JhZGllbnQtMTEiLz4mI3hhOyAgICA8bGluZWFyR3JhZGllbnQgeGxpbms6aHJlZj0iI2xpbmVhci1ncmFkaWVudC05IiBncmFkaWVudFRyYW5zZm9ybT0ibWF0cml4KDEsIDAsIDAsIDEsIC0zNDYuNTM1MzM5LCAtNjE5LjMyODc5NikiIHkyPSIxNDYuOCIgeDI9IjM4MS40MSIgeTE9IjE0Ni44IiB4MT0iMzA5LjExIiBpZD0ibGluZWFyLWdyYWRpZW50LTEyIi8+JiN4YTsgICAgPGxpbmVhckdyYWRpZW50IHhsaW5rOmhyZWY9IiNsaW5lYXItZ3JhZGllbnQtOSIgZ3JhZGllbnRUcmFuc2Zvcm09Im1hdHJpeCgxLCAwLCAwLCAxLCAtMzQ2LjUzNTMzOSwgLTYxOS4zMjg3OTYpIiB5Mj0iMTg2LjQ5IiB4Mj0iMzUzLjkyIiB5MT0iMTg2LjQ5IiB4MT0iMjg0LjMiIGlkPSJsaW5lYXItZ3JhZGllbnQtMTMiLz4mI3hhOyAgICA8bGluZWFyR3JhZGllbnQgeGxpbms6aHJlZj0iI2xpbmVhci1ncmFkaWVudC03IiBncmFkaWVudFRyYW5zZm9ybT0ibWF0cml4KDEsIDAsIDAsIDEsIC0zNDYuNTM1MzM5LCAtNjE5LjMyODc5NikiIHkyPSIyODYuMTciIHgyPSIyNzEuNiIgeTE9IjI4Ni4xNyIgeDE9IjE4Mi4yIiBpZD0ibGluZWFyLWdyYWRpZW50LTE0Ii8+JiN4YTsgICAgPGxpbmVhckdyYWRpZW50IGdyYWRpZW50VHJhbnNmb3JtPSJtYXRyaXgoMSwgMCwgMCwgMSwgLTE3My4yNjc2NywgLTMwOS42NjQzOTgpIiBncmFkaWVudFVuaXRzPSJ1c2VyU3BhY2VPblVzZSIgeTI9IjE4Ni41MiIgeDI9IjQyOC4zNCIgeTE9IjE4Ni41MiIgeDE9IjI4OC45NCIgaWQ9ImxpbmVhci1ncmFkaWVudC0xNSI+JiN4YTsgICAgICA8c3RvcCBzdG9wLWNvbG9yPSIjNWMwMDRkIiBvZmZzZXQ9IjAiLz4mI3hhOyAgICAgIDxzdG9wIHN0b3AtY29sb3I9IiM0OTIxNjMiIG9mZnNldD0iMSIvPiYjeGE7ICAgIDwvbGluZWFyR3JhZGllbnQ+JiN4YTsgICAgPGxpbmVhckdyYWRpZW50IHhsaW5rOmhyZWY9IiNsaW5lYXItZ3JhZGllbnQtNCIgZ3JhZGllbnRUcmFuc2Zvcm09Im1hdHJpeCgxLCAwLCAwLCAxLCAtMzQ2LjUzNTMzOSwgLTYxOS4zMjg3OTYpIiB5Mj0iMTI0LjMxIiB4Mj0iNjY0LjY3IiB5MT0iMTI0LjMxIiB4MT0iNDY5LjA5IiBpZD0ibGluZWFyLWdyYWRpZW50LTE2Ii8+JiN4YTsgICAgPGxpbmVhckdyYWRpZW50IGdyYWRpZW50VHJhbnNmb3JtPSJtYXRyaXgoMSwgMCwgMCwgMSwgLTE3My4yNjc2NywgLTMwOS42NjQzOTgpIiBncmFkaWVudFVuaXRzPSJ1c2VyU3BhY2VPblVzZSIgeTI9IjEyNy43NSIgeDI9IjY2NC42NyIgeTE9IjEyNy43NSIgeDE9IjUyOS42NyIgaWQ9ImxpbmVhci1ncmFkaWVudC0xNyI+JiN4YTsgICAgICA8c3RvcCBzdG9wLWNvbG9yPSIjZmZjODAwIiBvZmZzZXQ9IjAiLz4mI3hhOyAgICAgIDxzdG9wIHN0b3AtY29sb3I9IiNmZjAwMmEiIG9mZnNldD0iMSIvPiYjeGE7ICAgIDwvbGluZWFyR3JhZGllbnQ+JiN4YTsgICAgPGxpbmVhckdyYWRpZW50IGdyYWRpZW50VHJhbnNmb3JtPSJtYXRyaXgoMSwgMCwgMCwgMSwgLTE3My4yNjc2NywgLTMwOS42NjQzOTgpIiBncmFkaWVudFVuaXRzPSJ1c2VyU3BhY2VPblVzZSIgeTI9IjMyMC4yNiIgeDI9IjI1MS4yMiIgeTE9IjMyMC4yNiIgeDE9IjE0OC4wOCIgaWQ9ImxpbmVhci1ncmFkaWVudC0xOCI+JiN4YTsgICAgICA8c3RvcCBzdG9wLWNvbG9yPSIjMTQwMDRiIiBvZmZzZXQ9IjAiLz4mI3hhOyAgICAgIDxzdG9wIHN0b3AtY29sb3I9IiM4MjAwNDgiIG9mZnNldD0iMC42NiIvPiYjeGE7ICAgICAgPHN0b3Agc3RvcC1jb2xvcj0iI2M3MDAzMyIgb2Zmc2V0PSIxIi8+JiN4YTsgICAgPC9saW5lYXJHcmFkaWVudD4mI3hhOyAgICA8bGluZWFyR3JhZGllbnQgZ3JhZGllbnRUcmFuc2Zvcm09Im1hdHJpeCgxLCAwLCAwLCAxLCAtMTczLjI2NzY3LCAtMzA5LjY2NDM5OCkiIGdyYWRpZW50VW5pdHM9InVzZXJTcGFjZU9uVXNlIiB5Mj0iMjM2LjA2IiB4Mj0iMzIyLjU2IiB5MT0iMjM2LjA2IiB4MT0iMjQ4LjkiIGlkPSJsaW5lYXItZ3JhZGllbnQtMTkiPiYjeGE7ICAgICAgPHN0b3Agc3RvcC1jb2xvcj0iIzc0MjI2ZSIgb2Zmc2V0PSIwIi8+JiN4YTsgICAgICA8c3RvcCBzdG9wLWNvbG9yPSIjNDkyMTYzIiBvZmZzZXQ9IjEiLz4mI3hhOyAgICA8L2xpbmVhckdyYWRpZW50PiYjeGE7ICAgIDxsaW5lYXJHcmFkaWVudCBncmFkaWVudFRyYW5zZm9ybT0ibWF0cml4KDEsIDAsIDAsIDEsIC0xNzMuMjY3NjcsIC0zMDkuNjY0Mzk4KSIgZ3JhZGllbnRVbml0cz0idXNlclNwYWNlT25Vc2UiIHkyPSIyNTEuNDciIHgyPSI0MzYuNjQiIHkxPSIyNTEuNDciIHgxPSIyMjcuMzUiIGlkPSJsaW5lYXItZ3JhZGllbnQtMjAiPiYjeGE7ICAgICAgPHN0b3Agc3RvcC1jb2xvcj0iI2ZmMDAyYSIgb2Zmc2V0PSIwIi8+JiN4YTsgICAgICA8c3RvcCBzdG9wLWNvbG9yPSIjZmZjODAwIiBvZmZzZXQ9IjEiLz4mI3hhOyAgICA8L2xpbmVhckdyYWRpZW50PiYjeGE7ICAgIDxsaW5lYXJHcmFkaWVudCB4bGluazpocmVmPSIjbGluZWFyLWdyYWRpZW50LTkiIGdyYWRpZW50VHJhbnNmb3JtPSJtYXRyaXgoMSwgMCwgMCwgMSwgLTM0Ni41MzUzMzksIC02MTkuMzI4Nzk2KSIgeTI9IjE5OC4yNiIgeDI9IjQ3Ny44MiIgeTE9IjE5OC4yNiIgeDE9IjM2OC4zNSIgaWQ9ImxpbmVhci1ncmFkaWVudC0yMSIvPiYjeGE7ICAgIDxsaW5lYXJHcmFkaWVudCB4bGluazpocmVmPSIjbGluZWFyLWdyYWRpZW50LTE1IiBncmFkaWVudFRyYW5zZm9ybT0ibWF0cml4KDEsIDAsIDAsIDEsIC0zNDYuNTM1MzM5LCAtNjE5LjMyODc5NikiIHkyPSIyNjIuMTkiIHgyPSI0ODMuNDIiIHkxPSIyNjIuMTkiIHgxPSIyNDMuNzciIGlkPSJsaW5lYXItZ3JhZGllbnQtMjIiLz4mI3hhOyAgICA8bGluZWFyR3JhZGllbnQgeGxpbms6aHJlZj0iI2xpbmVhci1ncmFkaWVudC04IiBncmFkaWVudFRyYW5zZm9ybT0ibWF0cml4KDEsIDAsIDAsIDEsIC0zNDYuNTM1MzM5LCAtNjE5LjMyODc5NikiIHkyPSIyOTIuNDIiIHgyPSI0NzEuODUiIHkxPSIyOTIuNDIiIHgxPSIyNDIuNzUiIGlkPSJsaW5lYXItZ3JhZGllbnQtMjMiLz4mI3hhOyAgICA8bGluZWFyR3JhZGllbnQgZ3JhZGllbnRUcmFuc2Zvcm09Im1hdHJpeCgxLCAwLCAwLCAxLCAtMTczLjI2NzY3LCAtMzA5LjY2NDM5OCkiIGdyYWRpZW50VW5pdHM9InVzZXJTcGFjZU9uVXNlIiB5Mj0iMzQ2LjY0IiB4Mj0iNDY3LjA0IiB5MT0iMzQ2LjY0IiB4MT0iMjg1LjczIiBpZD0ibGluZWFyLWdyYWRpZW50LTI0Ij4mI3hhOyAgICAgIDxzdG9wIHN0b3AtY29sb3I9IiNkZTAwNmIiIG9mZnNldD0iMCIvPiYjeGE7ICAgICAgPHN0b3Agc3RvcC1jb2xvcj0iI2Q1MDE2YSIgb2Zmc2V0PSIwLjAzIi8+JiN4YTsgICAgICA8c3RvcCBzdG9wLWNvbG9yPSIjYTAwYjY4IiBvZmZzZXQ9IjAuMjEiLz4mI3hhOyAgICAgIDxzdG9wIHN0b3AtY29sb3I9IiM3NDE0NjYiIG9mZnNldD0iMC4zOSIvPiYjeGE7ICAgICAgPHN0b3Agc3RvcC1jb2xvcj0iIzUxMWE2NSIgb2Zmc2V0PSIwLjU3Ii8+JiN4YTsgICAgICA8c3RvcCBzdG9wLWNvbG9yPSIjMzkxZjY0IiBvZmZzZXQ9IjAuNzMiLz4mI3hhOyAgICAgIDxzdG9wIHN0b3AtY29sb3I9IiMyYTIyNjQiIG9mZnNldD0iMC44OCIvPiYjeGE7ICAgICAgPHN0b3Agc3RvcC1jb2xvcj0iIzI1MjM2NCIgb2Zmc2V0PSIxIi8+JiN4YTsgICAgPC9saW5lYXJHcmFkaWVudD4mI3hhOyAgICA8bGluZWFyR3JhZGllbnQgeGxpbms6aHJlZj0iI2xpbmVhci1ncmFkaWVudC0yIiBncmFkaWVudFRyYW5zZm9ybT0ibWF0cml4KDEsIDAsIDAsIDEsIC0zNDYuNTM1MzM5LCAtNjE5LjMyODc5NikiIHkyPSIzMTcuNTQiIHgyPSI0ODMuNDIiIHkxPSIzMTcuNTQiIHgxPSIzMjIuNTYiIGlkPSJsaW5lYXItZ3JhZGllbnQtMjUiLz4mI3hhOyAgICA8bGluZWFyR3JhZGllbnQgZ3JhZGllbnRUcmFuc2Zvcm09Im1hdHJpeCgxLCAwLCAwLCAxLCAtMTczLjI2NzY3LCAtMzA5LjY2NDM5OCkiIGdyYWRpZW50VW5pdHM9InVzZXJTcGFjZU9uVXNlIiB5Mj0iMjk5LjcxIiB4Mj0iNDkxLjcyIiB5MT0iMjk5LjcxIiB4MT0iNDIxLjcxIiBpZD0ibGluZWFyLWdyYWRpZW50LTI2Ij4mI3hhOyAgICAgIDxzdG9wIHN0b3AtY29sb3I9IiMyNTIzNjQiIG9mZnNldD0iMCIvPiYjeGE7ICAgICAgPHN0b3Agc3RvcC1jb2xvcj0iIzc0MjI2ZSIgb2Zmc2V0PSIxIi8+JiN4YTsgICAgPC9saW5lYXJHcmFkaWVudD4mI3hhOyAgICA8bGluZWFyR3JhZGllbnQgZ3JhZGllbnRUcmFuc2Zvcm09Im1hdHJpeCgxLCAwLCAwLCAxLCAtMTczLjI2NzY3LCAtMzA5LjY2NDM5OCkiIGdyYWRpZW50VW5pdHM9InVzZXJTcGFjZU9uVXNlIiB5Mj0iMzk3LjYyIiB4Mj0iNDcwLjEzIiB5MT0iMzk3LjYyIiB4MT0iMzQwLjU2IiBpZD0ibGluZWFyLWdyYWRpZW50LTI3Ij4mI3hhOyAgICAgIDxzdG9wIHN0b3AtY29sb3I9IiMyNTIzNjQiIG9mZnNldD0iMCIvPiYjeGE7ICAgICAgPHN0b3Agc3RvcC1jb2xvcj0iIzJhMjI2NCIgb2Zmc2V0PSIwLjIiLz4mI3hhOyAgICAgIDxzdG9wIHN0b3AtY29sb3I9IiMzOTIyNjYiIG9mZnNldD0iMC40NSIvPiYjeGE7ICAgICAgPHN0b3Agc3RvcC1jb2xvcj0iIzUxMjI2OSIgb2Zmc2V0PSIwLjcyIi8+JiN4YTsgICAgICA8c3RvcCBzdG9wLWNvbG9yPSIjNzMyMjZkIiBvZmZzZXQ9IjEiLz4mI3hhOyAgICAgIDxzdG9wIHN0b3AtY29sb3I9IiM3NDIyNmUiIG9mZnNldD0iMSIvPiYjeGE7ICAgIDwvbGluZWFyR3JhZGllbnQ+JiN4YTsgICAgPGxpbmVhckdyYWRpZW50IHhsaW5rOmhyZWY9IiNsaW5lYXItZ3JhZGllbnQtMTciIGdyYWRpZW50VHJhbnNmb3JtPSJtYXRyaXgoMSwgMCwgMCwgMSwgLTM0Ni41MzUzMzksIC02MTkuMzI4Nzk2KSIgeTI9IjE4OS44NyIgeDI9IjcxMi4yNCIgeTE9IjE4OS44NyIgeDE9IjUyNC43OSIgaWQ9ImxpbmVhci1ncmFkaWVudC0yOCIvPiYjeGE7ICAgIDxsaW5lYXJHcmFkaWVudCB4bGluazpocmVmPSIjbGluZWFyLWdyYWRpZW50LTQiIGdyYWRpZW50VHJhbnNmb3JtPSJtYXRyaXgoMSwgMCwgMCwgMSwgLTM0Ni41MzUzMzksIC02MTkuMzI4Nzk2KSIgeTI9IjIyNS44NCIgeDI9Ijc1Mi41IiB5MT0iMjI1Ljg0IiB4MT0iNjExLjU2IiBpZD0ibGluZWFyLWdyYWRpZW50LTI5Ii8+JiN4YTsgICAgPGxpbmVhckdyYWRpZW50IHhsaW5rOmhyZWY9IiNsaW5lYXItZ3JhZGllbnQtMTciIGdyYWRpZW50VHJhbnNmb3JtPSJtYXRyaXgoMSwgMCwgMCwgMSwgLTM0Ni41MzUzMzksIC02MTkuMzI4Nzk2KSIgeTI9IjM0My40IiB4Mj0iNzgyLjAzIiB5MT0iMzQzLjQiIHgxPSI1NjAuNzEiIGlkPSJsaW5lYXItZ3JhZGllbnQtMzAiLz4mI3hhOyAgICA8bGluZWFyR3JhZGllbnQgeGxpbms6aHJlZj0iI2xpbmVhci1ncmFkaWVudC0yMCIgZ3JhZGllbnRUcmFuc2Zvcm09Im1hdHJpeCgxLCAwLCAwLCAxLCAtMzQ2LjUzNTMzOSwgLTYxOS4zMjg3OTYpIiB5Mj0iMzA1LjAyIiB4Mj0iNzc3LjQ5IiB5MT0iMzA1LjAyIiB4MT0iNjk0LjYzIiBpZD0ibGluZWFyLWdyYWRpZW50LTMxIi8+JiN4YTsgICAgPGxpbmVhckdyYWRpZW50IHhsaW5rOmhyZWY9IiNsaW5lYXItZ3JhZGllbnQtMjciIGdyYWRpZW50VHJhbnNmb3JtPSJtYXRyaXgoMSwgMCwgMCwgMSwgLTM0Ni41MzUzMzksIC02MTkuMzI4Nzk2KSIgeTI9IjI4Ny4wNSIgeDI9IjU3OS45NiIgeTE9IjI4Ny4wNSIgeDE9IjQ2NS43OCIgaWQ9ImxpbmVhci1ncmFkaWVudC0zMiIvPiYjeGE7ICAgIDxsaW5lYXJHcmFkaWVudCB4bGluazpocmVmPSIjbGluZWFyLWdyYWRpZW50LTI2IiBncmFkaWVudFRyYW5zZm9ybT0ibWF0cml4KDEsIDAsIDAsIDEsIC0zNDYuNTM1MzM5LCAtNjE5LjMyODc5NikiIHkyPSIzMjcuOTIiIHgyPSI3MDYuMzUiIHkxPSIzMjcuOTIiIHgxPSI1NjAuNzEiIGlkPSJsaW5lYXItZ3JhZGllbnQtMzMiLz4mI3hhOyAgICA8bGluZWFyR3JhZGllbnQgeGxpbms6aHJlZj0iI2xpbmVhci1ncmFkaWVudC0yNyIgZ3JhZGllbnRUcmFuc2Zvcm09Im1hdHJpeCgxLCAwLCAwLCAxLCAtMzQ2LjUzNTMzOSwgLTYxOS4zMjg3OTYpIiB5Mj0iMzU1LjM3IiB4Mj0iNDY3LjA0IiB5MT0iMzU1LjM3IiB4MT0iMzQ5LjgzIiBpZD0ibGluZWFyLWdyYWRpZW50LTM0Ii8+JiN4YTsgICAgPGxpbmVhckdyYWRpZW50IHhsaW5rOmhyZWY9IiNsaW5lYXItZ3JhZGllbnQtMjQiIGdyYWRpZW50VHJhbnNmb3JtPSJtYXRyaXgoMSwgMCwgMCwgMSwgLTM0Ni41MzUzMzksIC02MTkuMzI4Nzk2KSIgeTI9IjQxOC42MyIgeDI9IjYwNi4yNSIgeTE9IjQxOC42MyIgeDE9IjM4NC4xMSIgaWQ9ImxpbmVhci1ncmFkaWVudC0zNSIvPiYjeGE7ICAgIDxsaW5lYXJHcmFkaWVudCB4bGluazpocmVmPSIjbGluZWFyLWdyYWRpZW50LTMiIGdyYWRpZW50VHJhbnNmb3JtPSJtYXRyaXgoMSwgMCwgMCwgMSwgLTM0Ni41MzUzMzksIC02MTkuMzI4Nzk2KSIgeTI9IjM2MC4zOSIgeDI9IjU2Ny45IiB5MT0iMzYwLjM5IiB4MT0iMzg0LjExIiBpZD0ibGluZWFyLWdyYWRpZW50LTM2Ii8+JiN4YTsgICAgPGxpbmVhckdyYWRpZW50IGdyYWRpZW50VHJhbnNmb3JtPSJtYXRyaXgoMSwgMCwgMCwgMSwgLTE3My4yNjc2NywgLTMwOS42NjQzOTgpIiBncmFkaWVudFVuaXRzPSJ1c2VyU3BhY2VPblVzZSIgeTI9IjMzOC45NSIgeDI9IjUwNi43NSIgeTE9IjMzOC45NSIgeDE9IjQ3Ny4xNiIgaWQ9ImxpbmVhci1ncmFkaWVudC0zNyI+JiN4YTsgICAgICA8c3RvcCBzdG9wLWNvbG9yPSIjZmYwMDJhIiBvZmZzZXQ9IjAiLz4mI3hhOyAgICAgIDxzdG9wIHN0b3AtY29sb3I9IiM1NTIxNmUiIG9mZnNldD0iMC44MiIvPiYjeGE7ICAgIDwvbGluZWFyR3JhZGllbnQ+JiN4YTsgICAgPGxpbmVhckdyYWRpZW50IHhsaW5rOmhyZWY9IiNsaW5lYXItZ3JhZGllbnQtMyIgZ3JhZGllbnRUcmFuc2Zvcm09Im1hdHJpeCgxLCAwLCAwLCAxLCAtMzQ2LjUzNTMzOSwgLTYxOS4zMjg3OTYpIiB5Mj0iNDAwLjAzIiB4Mj0iNjExLjU0IiB5MT0iMjU3LjEzIiB4MT0iNDY4LjY1IiBpZD0ibGluZWFyLWdyYWRpZW50LTM4Ii8+JiN4YTsgICAgPGxpbmVhckdyYWRpZW50IHhsaW5rOmhyZWY9IiNsaW5lYXItZ3JhZGllbnQtMTciIGdyYWRpZW50VHJhbnNmb3JtPSJtYXRyaXgoMSwgMCwgMCwgMSwgLTM0Ni41MzUzMzksIC02MTkuMzI4Nzk2KSIgeTI9IjQ3Mi4yMiIgeDI9IjY2MC44NCIgeTE9IjQ3Mi4yMiIgeDE9IjU2OC43OCIgaWQ9ImxpbmVhci1ncmFkaWVudC0zOSIvPiYjeGE7ICAgIDxsaW5lYXJHcmFkaWVudCB4bGluazpocmVmPSIjbGluZWFyLWdyYWRpZW50IiBncmFkaWVudFRyYW5zZm9ybT0ibWF0cml4KDEsIDAsIDAsIDEsIC0zNDYuNTM1MzM5LCAtNjE5LjMyODc5NikiIHkyPSI0ODcuNzEiIHgyPSI2MDYuMjUiIHkxPSI0ODcuNzEiIHgxPSI1MzcuMjgiIGlkPSJsaW5lYXItZ3JhZGllbnQtNDAiLz4mI3hhOyAgICA8bGluZWFyR3JhZGllbnQgeGxpbms6aHJlZj0iI2xpbmVhci1ncmFkaWVudC0xNyIgZ3JhZGllbnRUcmFuc2Zvcm09Im1hdHJpeCgxLCAwLCAwLCAxLCAtMzQ2LjUzNTMzOSwgLTYxOS4zMjg3OTYpIiB5Mj0iNjg3LjcxIiB4Mj0iNTMyLjc5IiB5MT0iNTM1Ljk1IiB4MT0iNTMyLjc5IiBpZD0ibGluZWFyLWdyYWRpZW50LTQxIi8+JiN4YTsgICAgPGxpbmVhckdyYWRpZW50IGdyYWRpZW50VHJhbnNmb3JtPSJtYXRyaXgoMSwgMCwgMCwgMSwgLTE3My4yNjc2NywgLTMwOS42NjQzOTgpIiBncmFkaWVudFVuaXRzPSJ1c2VyU3BhY2VPblVzZSIgeTI9IjQ1Ni41NSIgeDI9Ijc2OC43IiB5MT0iNDU2LjU1IiB4MT0iNjk2LjA3IiBpZD0ibGluZWFyLWdyYWRpZW50LTQyIj4mI3hhOyAgICAgIDxzdG9wIHN0b3AtY29sb3I9IiNmZjAwNjkiIG9mZnNldD0iMCIvPiYjeGE7ICAgICAgPHN0b3Agc3RvcC1jb2xvcj0iI2Q1MDY2OCIgb2Zmc2V0PSIwLjEyIi8+JiN4YTsgICAgICA8c3RvcCBzdG9wLWNvbG9yPSIjYTAwZjY2IiBvZmZzZXQ9IjAuMjgiLz4mI3hhOyAgICAgIDxzdG9wIHN0b3AtY29sb3I9IiM3NDE2NjUiIG9mZnNldD0iMC40NSIvPiYjeGE7ICAgICAgPHN0b3Agc3RvcC1jb2xvcj0iIzUxMWI2NSIgb2Zmc2V0PSIwLjYiLz4mI3hhOyAgICAgIDxzdG9wIHN0b3AtY29sb3I9IiMzOTFmNjQiIG9mZnNldD0iMC43NSIvPiYjeGE7ICAgICAgPHN0b3Agc3RvcC1jb2xvcj0iIzJhMjI2NCIgb2Zmc2V0PSIwLjg5Ii8+JiN4YTsgICAgICA8c3RvcCBzdG9wLWNvbG9yPSIjMjUyMzY0IiBvZmZzZXQ9IjEiLz4mI3hhOyAgICA8L2xpbmVhckdyYWRpZW50PiYjeGE7ICAgIDxsaW5lYXJHcmFkaWVudCB4bGluazpocmVmPSIjbGluZWFyLWdyYWRpZW50LTE3IiBncmFkaWVudFRyYW5zZm9ybT0ibWF0cml4KDEsIDAsIDAsIDEsIC0zNDYuNTM1MzM5LCAtNjE5LjMyODc5NikiIHkyPSI1MTcuNDYiIHgyPSI1MTYuMDQiIHkxPSI1MTcuNDYiIHgxPSI0NzAuMTMiIGlkPSJsaW5lYXItZ3JhZGllbnQtNDMiLz4mI3hhOyAgICA8bGluZWFyR3JhZGllbnQgeGxpbms6aHJlZj0iI2xpbmVhci1ncmFkaWVudC0yIiBncmFkaWVudFRyYW5zZm9ybT0ibWF0cml4KDEsIDAsIDAsIDEsIC0zNDYuNTM1MzM5LCAtNjE5LjMyODc5NikiIHkyPSI1NTYuMDYiIHgyPSI1ODAuNyIgeTE9IjU1Ni4wNiIgeDE9IjUzMy4yOSIgaWQ9ImxpbmVhci1ncmFkaWVudC00NCIvPiYjeGE7ICAgIDxsaW5lYXJHcmFkaWVudCB4bGluazpocmVmPSIjbGluZWFyLWdyYWRpZW50LTE3IiBncmFkaWVudFRyYW5zZm9ybT0ibWF0cml4KDEsIDAsIDAsIDEsIC0zNDYuNTM1MzM5LCAtNjE5LjMyODc5NikiIHkyPSI0NzAuNTkiIHgyPSI1NjcuOSIgeTE9IjQ3MC41OSIgeDE9IjQ3MC4xMyIgaWQ9ImxpbmVhci1ncmFkaWVudC00NSIvPiYjeGE7ICAgIDxsaW5lYXJHcmFkaWVudCBncmFkaWVudFRyYW5zZm9ybT0ibWF0cml4KDEsIDAsIDAsIDEsIC0xNzMuMjY3NjcsIC0zMDkuNjY0Mzk4KSIgZ3JhZGllbnRVbml0cz0idXNlclNwYWNlT25Vc2UiIHkyPSI0MDkuMyIgeDI9IjQ5My4wOSIgeTE9IjQwOS4zIiB4MT0iNDIxLjA3IiBpZD0ibGluZWFyLWdyYWRpZW50LTQ2Ij4mI3hhOyAgICAgIDxzdG9wIHN0b3AtY29sb3I9IiM4MDAwNGEiIG9mZnNldD0iMCIvPiYjeGE7ICAgICAgPHN0b3Agc3RvcC1jb2xvcj0iI2M3MDAzMyIgb2Zmc2V0PSIxIi8+JiN4YTsgICAgPC9saW5lYXJHcmFkaWVudD4mI3hhOyAgICA8bGluZWFyR3JhZGllbnQgeGxpbms6aHJlZj0iI2xpbmVhci1ncmFkaWVudCIgZ3JhZGllbnRUcmFuc2Zvcm09Im1hdHJpeCgxLCAwLCAwLCAxLCAtMzQ2LjUzNTMzOSwgLTYxOS4zMjg3OTYpIiB5Mj0iNTk4Ljg0IiB4Mj0iNTcwLjM0IiB5MT0iNjgxLjA3IiB4MT0iNTIyLjg2IiBpZD0ibGluZWFyLWdyYWRpZW50LTQ3Ii8+JiN4YTsgICAgPGxpbmVhckdyYWRpZW50IHhsaW5rOmhyZWY9IiNsaW5lYXItZ3JhZGllbnQtNDYiIGdyYWRpZW50VHJhbnNmb3JtPSJtYXRyaXgoMSwgMCwgMCwgMSwgLTM0Ni41MzUzMzksIC02MTkuMzI4Nzk2KSIgeTI9IjQ4NC41NyIgeDI9IjUzMy4yOSIgeTE9IjQ4NC41NyIgeDE9IjQ2MC44NCIgaWQ9ImxpbmVhci1ncmFkaWVudC00OCIvPiYjeGE7ICAgIDxsaW5lYXJHcmFkaWVudCB4bGluazpocmVmPSIjbGluZWFyLWdyYWRpZW50LTQ2IiBncmFkaWVudFRyYW5zZm9ybT0ibWF0cml4KDEuMDAyMjksIDAsIDAsIDEsIC0zNDguNDA4NzYsIC02MTkuMzI4Nzk2KSIgeTI9IjQ5NS45MyIgeDI9IjY4Ny43MyIgeTE9IjQ5NS45MyIgeDE9IjY0NC44NyIgaWQ9ImxpbmVhci1ncmFkaWVudC00OSIvPiYjeGE7ICAgIDxsaW5lYXJHcmFkaWVudCB4bGluazpocmVmPSIjbGluZWFyLWdyYWRpZW50LTQyIiBncmFkaWVudFRyYW5zZm9ybT0ibWF0cml4KDEsIDAsIDAsIDEsIC0zNDYuNTM1MzM5LCAtNjE5LjMyODc5NikiIHkyPSI1NTkuNTgiIHgyPSI3MTQuNjEiIHkxPSI1NTkuNTgiIHgxPSI2NjAuODQiIGlkPSJsaW5lYXItZ3JhZGllbnQtNTAiLz4mI3hhOyAgICA8bGluZWFyR3JhZGllbnQgeGxpbms6aHJlZj0iI2xpbmVhci1ncmFkaWVudC0zIiBncmFkaWVudFRyYW5zZm9ybT0ibWF0cml4KDEsIDAsIDAsIDEsIC0zNDYuNTM1MzM5LCAtNjE5LjMyODc5NikiIHkyPSI0MDUuOTUiIHgyPSI1NDIuMzciIHkxPSI0MDUuOTUiIHgxPSI0MjEuMDciIGlkPSJsaW5lYXItZ3JhZGllbnQtNTEiLz4mI3hhOyAgICA8bGluZWFyR3JhZGllbnQgeGxpbms6aHJlZj0iI2xpbmVhci1ncmFkaWVudC04IiBncmFkaWVudFRyYW5zZm9ybT0ibWF0cml4KDEsIDAsIDAsIDEsIC0zNDYuNTM1MzM5LCAtNjE5LjMyODc5NikiIHgyPSIxMDYuODIiIHkxPSIyMTMuNTEiIHgxPSIxMDYuODIiIGlkPSJsaW5lYXItZ3JhZGllbnQtNTIiLz4mI3hhOyAgICA8bGluZWFyR3JhZGllbnQgeGxpbms6aHJlZj0iI2xpbmVhci1ncmFkaWVudC0xOCIgZ3JhZGllbnRUcmFuc2Zvcm09Im1hdHJpeCgxLCAwLCAwLCAxLCAtMzQ2LjUzNTMzOSwgLTYxOS4zMjg3OTYpIiB5Mj0iMzI3LjE3IiB4Mj0iMzIyLjU2IiB5MT0iMzI3LjE3IiB4MT0iMjA3LjE1IiBpZD0ibGluZWFyLWdyYWRpZW50LTUzIi8+JiN4YTsgICAgPGxpbmVhckdyYWRpZW50IGdyYWRpZW50VHJhbnNmb3JtPSJtYXRyaXgoMSwgMCwgMCwgMSwgLTE3My4yNjc2NywgLTMwOS42NjQzOTgpIiBncmFkaWVudFVuaXRzPSJ1c2VyU3BhY2VPblVzZSIgeTI9IjI2MS4zMiIgeDI9IjQ0My43IiB5MT0iMjYxLjMyIiB4MT0iMzIxLjQ3IiBpZD0ibGluZWFyLWdyYWRpZW50LTU0Ij4mI3hhOyAgICAgIDxzdG9wIHN0b3AtY29sb3I9IiNmZmM5MGYiIG9mZnNldD0iMCIvPiYjeGE7ICAgICAgPHN0b3Agc3RvcC1jb2xvcj0iI2RhNWUwMCIgb2Zmc2V0PSIxIi8+JiN4YTsgICAgPC9saW5lYXJHcmFkaWVudD4mI3hhOyAgPC9kZWZzPiYjeGE7ICA8cG9seWdvbiBzdHlsZT0iZmlsbDogcmdiKDI1NSwgMjE3LCAxNTMpOyBzdHJva2Utd2lkdGg6IDBweDsiIHBvaW50cz0iLTY2LjYyOCAtMjA3LjQ5NCAtMzUuMzA3IC0xNzAuMjc0IC01My44MjggLTM0LjA4NCAtNjQuMjU4IC0xMDEuNDc0IC02Ni42MjggLTIwNy40OTQiIGNsYXNzPSJjbHMtODEiLz4mI3hhOyAgPHBvbHlnb24gc3R5bGU9ImZpbGw6IHJnYigyMzQsIDI0MCwgMjQ5KTsgc3Ryb2tlLXdpZHRoOiAwcHg7IiBwb2ludHM9IjMzLjg4MiAzMi43MjYgLTI2LjExOCA4My43MjYgMTA0Ljg4MiAzMi43MjYgMzMuODgyIDMyLjcyNiIgY2xhc3M9ImNscy04NyIvPiYjeGE7ICA8cG9seWdvbiBzdHlsZT0iZmlsbDogcmdiKDE3NiwgMjEwLCAyNTUpOyBzdHJva2Utd2lkdGg6IDBweDsiIHBvaW50cz0iMzYuNDQyIDg2LjExNiAxMDQuODgyIDMyLjcyNiAtMjYuMTE4IDgzLjcyNiAzNi40NDIgODYuMTE2IiBjbGFzcz0iY2xzLTY1Ii8+JiN4YTsgIDxwb2x5Z29uIHN0eWxlPSJmaWxsOiByZ2IoMTMyLCAxODMsIDI1NSk7IHN0cm9rZS13aWR0aDogMHB4OyIgcG9pbnRzPSIxMDQuODgyIDMyLjcyNiAxNzUuMTkyIDQ3LjM1NiAxLjY1MiAxMDcuNTE2IDEwNC44ODIgMzIuNzI2IiBjbGFzcz0iY2xzLTY2Ii8+JiN4YTsgIDxwb2x5Z29uIHN0eWxlPSJmaWxsOiByZ2IoMjM0LCAyNDAsIDI0OSk7IHN0cm9rZS13aWR0aDogMHB4OyIgcG9pbnRzPSItMjYuMTE4IDgzLjcyNiAtNjYuNjI4IDEyMC4wMzYgLTIyLjU3OCAxMjUuNzU2IDM2LjQ0MiA4Ni4xMTYgLTI2LjExOCA4My43MjYiIGNsYXNzPSJjbHMtODciLz4mI3hhOyAgPHBvbHlnb24gc3R5bGU9ImZpbGw6IHJnYigxMzIsIDE4MywgMjU1KTsgc3Ryb2tlLXdpZHRoOiAwcHg7IiBwb2ludHM9Ii02Ni42MjggMTIwLjAzNiAtNzIuNzg4IDE2NS44MzYgLTIyLjU3OCAxMjUuNzU2IC02Ni42MjggMTIwLjAzNiIgY2xhc3M9ImNscy02NiIvPiYjeGE7ICA8cG9seWdvbiBzdHlsZT0iZmlsbDogcmdiKDE3NiwgMjEwLCAyNTUpOyBzdHJva2Utd2lkdGg6IDBweDsiIHBvaW50cz0iLTE0Mi4zODggMTk2LjY3NiAtMTQyLjM4OCAyMTkuMTM2IC03Mi43ODggMTY1LjgzNiAtNjYuNjI4IDEyMC4wMzYgLTE0Mi4zODggMTk2LjY3NiIgY2xhc3M9ImNscy02NSIvPiYjeGE7ICA8cG9seWdvbiBzdHlsZT0iZmlsbDogcmdiKDEzMiwgMTgzLCAyNTUpOyBzdHJva2Utd2lkdGg6IDBweDsiIHBvaW50cz0iLTE0Mi4zODggMjE5LjEzNiAtMTYwLjg4OCAyMDkuMDA2IC0xNDIuMzg4IDE5Ni42NzYgLTE0Mi4zODggMjE5LjEzNiIgY2xhc3M9ImNscy02NiIvPiYjeGE7ICA8cG9seWdvbiBzdHlsZT0iZmlsbDogcmdiKDEwMiwgMTEzLCAxMzApOyBzdHJva2Utd2lkdGg6IDBweDsiIHBvaW50cz0iLTE2OC4zNzggMjE2LjA1NiAtMTQyLjM4OCAyMTkuMTM2IC0xNjAuODg4IDIwOS4wMDYgLTE2OC4zNzggMjE2LjA1NiIgY2xhc3M9ImNscy02NyIvPiYjeGE7ICA8cGF0aCBzdHlsZT0iZmlsbDogcmdiKDM2LCA0NSwgNTcpOyBzdHJva2Utd2lkdGg6IDBweDsiIGQ9Ik0gLTE3My4yMTggMjQ5LjA4NiBMIC0xNzMuMjE4IDIzOC41MTYgQyAtMTczLjIxOCAyMjkuMjI2IC0xNjguMzY4IDIxNi4wNTYgLTE2OC4zNjggMjE2LjA1NiBMIC0xNDIuMzc4IDIxOS4xMzYgTCAtMTczLjIxOCAyNDkuMDg2IFoiIGNsYXNzPSJjbHMtNjIiLz4mI3hhOyAgPHBhdGggc3R5bGU9ImZpbGw6IHJnYig4LCA0MywgOTQpOyBzdHJva2Utd2lkdGg6IDBweDsiIGQ9Ik0gLTE3My4yMTggMjQ5LjA4NiBDIC0xNzEuNzQ4IDI1Mi44MzYgLTE2OC4zNjggMjUzLjA0NiAtMTY4LjM2OCAyNTMuMDQ2IEwgLTcwLjEzOCAxODkuMTc2IEwgLTcyLjc3OCAxNjUuODM2IEwgLTE0Mi4zNjggMjE5LjEzNiBDIC0xNDIuMzY4IDIxOS4xMzYgLTE3NC42ODggMjQ1LjMzNiAtMTczLjIxOCAyNDkuMDg2IFoiIGNsYXNzPSJjbHMtNjEiLz4mI3hhOyAgPHBvbHlnb24gc3R5bGU9ImZpbGw6IHJnYigzNiwgNDUsIDU3KTsgc3Ryb2tlLXdpZHRoOiAwcHg7IiBwb2ludHM9Ii0yMi41NzggMTI1Ljc1NiAyLjUzMiAxNDAuMjk2IC03MC4xNDggMTg5LjE4NiAtNzIuNzg4IDE2NS44MzYgLTIyLjU3OCAxMjUuNzU2IiBjbGFzcz0iY2xzLTYyIi8+JiN4YTsgIDxwb2x5Z29uIHN0eWxlPSJmaWxsOiByZ2IoMCwgMTIsIDM4KTsgc3Ryb2tlLXdpZHRoOiAwcHg7IiBwb2ludHM9Ii0yMi41NzggMTI1Ljc1NiA0NC44NjIgMTI1Ljc1NiAyLjUzMiAxNDAuMjk2IC0yMi41NzggMTI1Ljc1NiIgY2xhc3M9ImNscy05NSIvPiYjeGE7ICA8cG9seWdvbiBzdHlsZT0iZmlsbDogcmdiKDEwMiwgMTEzLCAxMzApOyBzdHJva2Utd2lkdGg6IDBweDsiIHBvaW50cz0iMTIzLjM5MiA2OS4wNTYgMjA2Ljc5MiA5My4xNDYgNTcuNTQyIDExNi44NTYgMTIzLjM5MiA2OS4wNTYiIGNsYXNzPSJjbHMtNjciLz4mI3hhOyAgPHBvbHlnb24gc3R5bGU9ImZpbGw6IHJnYigwLCAxMiwgMzgpOyBzdHJva2Utd2lkdGg6IDBweDsiIHBvaW50cz0iMTc1LjE5MiA0Ny4zNTYgMjM3LjUxMiAxMDkuMDQ2IDEyMy4zOTIgNjkuMDU2IDE3NS4xOTIgNDcuMzU2IiBjbGFzcz0iY2xzLTk1Ii8+JiN4YTsgIDxwb2x5Z29uIHN0eWxlPSJmaWxsOiByZ2IoMjExLCAyMjYsIDI1NSk7IHN0cm9rZS13aWR0aDogMHB4OyIgcG9pbnRzPSI1Ny41NDIgMTE2Ljg1NiA0NC44NjIgMTI1Ljc1NiAtMjIuNTc4IDEyNS43NTYgMzYuNDQyIDg2LjExNiAxNzAuODUgNDguODk5IDU3LjU0MiAxMTYuODU2IiBjbGFzcz0iY2xzLTYzIi8+JiN4YTsgIDxwb2x5Z29uIHN0eWxlPSJmaWxsOiByZ2IoMzYsIDQ1LCA1Nyk7IHN0cm9rZS13aWR0aDogMHB4OyIgcG9pbnRzPSI1Ny41NDIgMTE2Ljg1NiA0NC44NjIgMTI1Ljc1NiAyMzcuNTEyIDEwOS4wNDYgMTk2LjcxMiA5NC43NDYgNTcuNTQyIDExNi44NTYiIGNsYXNzPSJjbHMtNjIiLz4mI3hhOyAgPHBhdGggc3R5bGU9ImZpbGw6IHJnYigwLCAxMiwgMzgpOyBzdHJva2Utd2lkdGg6IDBweDsiIGQ9Ik0gLTE2OC4zNzggMjUzLjA1NiBDIC0xNjguMzc4IDI1My4wNTYgLTE0My41MTggMjU5LjI2NiAtMTM3LjA1OCAyNTUuODU2IEMgLTEzMC41OTggMjUyLjQ0NiAtMTEyLjY2OCAyMzIuNTc2IC0xMTIuNjY4IDIzMi41NzYgTCAtMTMwLjU5OCAyMjguNDk2IEwgLTE2OC4zNjggMjUzLjA1NiBMIC0xNjguMzc4IDI1My4wNTYgWiIgY2xhc3M9ImNscy05NSIvPiYjeGE7ICA8cG9seWdvbiBzdHlsZT0iZmlsbDogcmdiKDcsIDI0LCA1Myk7IHN0cm9rZS13aWR0aDogMHB4OyIgcG9pbnRzPSItNS44NTggMTYyLjIwNiA0NC44NjIgMTI1Ljc1NiAyLjUzMiAxNDAuMjk2IC0xMzAuNTk4IDIyOC40OTYgLTExMi42NjggMjMyLjU3NiAtNS44NTggMTYyLjIwNiIgY2xhc3M9ImNscy01OSIvPiYjeGE7ICA8cGF0aCBzdHlsZT0iZmlsbDogcmdiKDAsIDEyLCAzOCk7IHN0cm9rZS13aWR0aDogMHB4OyIgZD0iTSAxMzguNjYyIDExNy42MjYgTCAyMjEuOTEyIDIxNC4wNzYgTCAxNjIuNDEyIDE0Ny4wOTYgTCAxNjUuMzQyIDE5NC40MDYgTCAxNTAuNzIyIDIzNS42NTYgTCAxMzUuMjYyIDE4MS4wNjYgQyAxMzUuMjYyIDE4MS4wNjYgMTMwLjU2MiAxNzAuNjU2IDExOC44NTIgMTU5LjM1NiBDIDExMS4zNjIgMTUyLjEyNiA5Mi4yMjIgMTQ2LjcwNiA4NS41MjIgMTQ1LjMzNiBDIDc4LjgyMiAxNDMuOTY2IDY2LjA2MiAxNDMuMTE2IDUzLjM4MiAxNDUuMTY2IEMgNDAuNzAyIDE0Ny4yMTYgLTUuODQ4IDE2Mi4yMTYgLTUuODQ4IDE2Mi4yMTYgTCA0NC44NzIgMTI1Ljc2NiBMIDEzOC42NjIgMTE3LjYzNiBMIDEzOC42NjIgMTE3LjYyNiBaIiBjbGFzcz0iY2xzLTk1Ii8+JiN4YTsgIDxwb2x5Z29uIHN0eWxlPSJmaWxsOiByZ2IoMCwgMjAzLCAyNTUpOyBzdHJva2Utd2lkdGg6IDBweDsiIHBvaW50cz0iMTI2LjYxMiAyNDIuMTc2IDE1MC43MTIgMjM1LjY0NiAxMzUuMjUyIDE4MS4wNTYgMTI2LjYxMiAyNDIuMTc2IiBjbGFzcz0iY2xzLTkxIi8+JiN4YTsgIDxwb2x5Z29uIHN0eWxlPSJmaWxsOiByZ2IoMCwgMjIwLCAyNTUpOyBzdHJva2Utd2lkdGg6IDBweDsiIHBvaW50cz0iMTUzLjgwMiAyNzguMjg2IDEyNi42MTIgMjQyLjE3NiAxNTAuNzEyIDIzNS42NDYgMTUzLjgwMiAyNzguMjg2IiBjbGFzcz0iY2xzLTkyIi8+JiN4YTsgIDxwb2x5Z29uIHN0eWxlPSJmaWxsOiByZ2IoMCwgMTIyLCAyNTUpOyBzdHJva2Utd2lkdGg6IDBweDsiIHBvaW50cz0iOTcuNjMyIDMzMC42NDYgMTUzLjgwMiAyNzguMjg2IDEyNi42MTIgMjQyLjE3NiA5Ny42MzIgMzMwLjY0NiIgY2xhc3M9ImNscy05NyIvPiYjeGE7ICA8cG9seWdvbiBzdHlsZT0iZmlsbDogcmdiKDEwNiwgMjMxLCAyNTUpOyBzdHJva2Utd2lkdGg6IDBweDsiIHBvaW50cz0iNTUuOTQyIDMyMi40MTYgMTI2LjYxMiAyNDIuMTc2IDk3LjYzMiAzMzAuNjQ2IDU1Ljk0MiAzMjIuNDE2IiBjbGFzcz0iY2xzLTcwIi8+JiN4YTsgIDxwb2x5Z29uIHN0eWxlPSJmaWxsOiByZ2IoMTU5LCAyMzgsIDI0Nyk7IHN0cm9rZS13aWR0aDogMHB4OyIgcG9pbnRzPSI2OS4wNzIgMzU2LjM3NiAtMS40MjggMzM3LjA4NiA1NS45NDIgMzIyLjQxNiA5Ny42MzIgMzMwLjY0NiA2OS4wNzIgMzU2LjM3NiIgY2xhc3M9ImNscy03MSIvPiYjeGE7ICA8cG9seWdvbiBzdHlsZT0iZmlsbDogcmdiKDAsIDIwMywgMjU1KTsgc3Ryb2tlLXdpZHRoOiAwcHg7IiBwb2ludHM9IjE1My44MDIgMjc4LjI4NiAxNTguODYyIDMzMy4yMjYgNjkuMDcyIDM1Ni4zNzYgMTUzLjgwMiAyNzguMjg2IiBjbGFzcz0iY2xzLTkxIi8+JiN4YTsgIDxwb2x5Z29uIHN0eWxlPSJmaWxsOiByZ2IoMCwgMjAzLCAyNTUpOyBzdHJva2Utd2lkdGg6IDBweDsiIHBvaW50cz0iMTA4LjQzMiAzODAuMDQ2IDY5LjA3MiAzNTYuMzc2IDE1OC44NjIgMzMzLjIyNiAxMDguODk2IDM4MC4yMzciIGNsYXNzPSJjbHMtOTEiLz4mI3hhOyAgPHBvbHlnb24gc3R5bGU9ImZpbGw6IHJnYigxMDYsIDIzMSwgMjU1KTsgc3Ryb2tlLXdpZHRoOiAwcHg7IiBwb2ludHM9IjkyLjg1MiAzOTUuMzM2IDEuNjUyIDM4MC4wNDYgNjkuMDcyIDM1Ni4zNzYgMTA4LjkzOCAzODAuMjM2IDkyLjg1MiAzOTUuMzM2IiBjbGFzcz0iY2xzLTcwIi8+JiN4YTsgIDxwb2x5Z29uIHN0eWxlPSJmaWxsOiByZ2IoMCwgMTIyLCAyNTUpOyBzdHJva2Utd2lkdGg6IDBweDsiIHBvaW50cz0iMTk0Ljg4MiAzNjEuMDA2IDE1OC44NjIgMzMzLjIyNiA5Mi44NTIgMzk1LjMzNiAxOTQuODgyIDM2MS4wMDYiIGNsYXNzPSJjbHMtOTciLz4mI3hhOyAgPHBvbHlnb24gc3R5bGU9ImZpbGw6IHJnYigxMDYsIDIzMSwgMjU1KTsgc3Ryb2tlLXdpZHRoOiAwcHg7IiBwb2ludHM9IjExNi45MjIgNDQzLjg1NiA1Ny4yMzIgNDE4LjEyNiA5My40NzQgMzk1LjEzIDE5NC44ODIgMzYxLjAwNiAxMTYuOTIyIDQ0My44NTYiIGNsYXNzPSJjbHMtNzAiLz4mI3hhOyAgPHBvbHlnb24gc3R5bGU9ImZpbGw6IHJnYigwLCA0OSwgMTE2KTsgc3Ryb2tlLXdpZHRoOiAwcHg7IiBwb2ludHM9IjIzMC4xNzIgMjkwLjMxNiAyNTYuNjgyIDE3My4zMjYgMjM3LjUxMiAxMDkuMDQ2IDIxNS45OTIgMjQyLjE3NiAyMzAuMTcyIDI5MC4zMTYiIGNsYXNzPSJjbHMtOTAiLz4mI3hhOyAgPHBvbHlnb24gc3R5bGU9ImZpbGw6IHJnYigzNiwgNDUsIDU3KTsgc3Ryb2tlLXdpZHRoOiAwcHg7IiBwb2ludHM9IjE2NS4zMzIgMTk0LjM5NiAyMTcuMzYyIDIzMy42ODYgMjIxLjkwMiAyMTQuMDc2IDE2Mi40MDIgMTQ3LjA4NiAxNjUuMzMyIDE5NC4zOTYiIGNsYXNzPSJjbHMtNjIiLz4mI3hhOyAgPHBvbHlnb24gc3R5bGU9ImZpbGw6IHJnYigxMCwgMjQsIDM3KTsgc3Ryb2tlLXdpZHRoOiAwcHg7IiBwb2ludHM9IjE1MC43MTIgMjMxLjgxNiAyMTcuMzYyIDIzMy42ODYgMTY1LjMzMiAxOTQuMzk2IDE1MC43MTIgMjMxLjgxNiIgY2xhc3M9ImNscy02MCIvPiYjeGE7ICA8cG9seWdvbiBzdHlsZT0iZmlsbDogcmdiKDAsIDQ5LCAxMTYpOyBzdHJva2Utd2lkdGg6IDBweDsiIHBvaW50cz0iMjE2Ljg4MiAyMzkuODE2IDIxNi44ODIgMjM2LjYxNiAyMTcuMzYyIDIzMy42ODYgMTUwLjcxMiAyMzEuODE2IDE1My44MDIgMjc4LjI4NiAyMTYuODgyIDIzOS44MTYiIGNsYXNzPSJjbHMtOTAiLz4mI3hhOyAgPHBvbHlnb24gc3R5bGU9ImZpbGw6IHJnYigwLCAxMjIsIDI1NSk7IHN0cm9rZS13aWR0aDogMHB4OyIgcG9pbnRzPSIxNTguODYyIDMzMy4yMjYgMjE2Ljg4MiAyMzkuODE2IDE1My44MDIgMjc4LjI4NiAxNTguODYyIDMzMy4yMjYiIGNsYXNzPSJjbHMtOTciLz4mI3hhOyAgPHBvbHlnb24gc3R5bGU9ImZpbGw6IHJnYigwLCA5MiwgMjU1KTsgc3Ryb2tlLXdpZHRoOiAwcHg7IiBwb2ludHM9IjIzMC4xNzIgMjkwLjMxNiAyMTYuODgyIDIzOS44MTYgMTU4Ljg2MiAzMzMuMjI2IDIzMC4xNzIgMjkwLjMxNiIgY2xhc3M9ImNscy05NCIvPiYjeGE7ICA8cG9seWdvbiBzdHlsZT0iZmlsbDogcmdiKDAsIDY5LCAxNzgpOyBzdHJva2Utd2lkdGg6IDBweDsiIHBvaW50cz0iMTk0Ljg4MiAzNjEuMDA2IDE1OC44NjIgMzMzLjIyNiAyMzAuMTcyIDI5MC4zMTYgMTk0Ljg4MiAzNjEuMDA2IiBjbGFzcz0iY2xzLTkzIi8+JiN4YTsgIDxwb2x5Z29uIHN0eWxlPSJmaWxsOiByZ2IoMCwgNjksIDE3OCk7IHN0cm9rZS13aWR0aDogMHB4OyIgcG9pbnRzPSIyNzUuMjMyIDIyNC4wNDYgMjMwLjE3MiAyOTAuMzE2IDI1Ni42ODIgMTczLjMyNiAyNzUuMjMyIDIyNC4wNDYiIGNsYXNzPSJjbHMtOTMiLz4mI3hhOyAgPHBvbHlnb24gc3R5bGU9ImZpbGw6IHJnYigxNiwgMCwgMzApOyBzdHJva2Utd2lkdGg6IDBweDsiIHBvaW50cz0iMjE5LjU3MiA0MTUuMzE2IDI1My41ODIgMzU0LjkxNiAxMTYuOTIyIDQ0My44NTYgMjE5LjU3MiA0MTUuMzE2IiBjbGFzcz0iY2xzLTU4Ii8+JiN4YTsgIDxwb2x5Z29uIHN0eWxlPSJmaWxsOiByZ2IoMCwgMTIyLCAyNTUpOyBzdHJva2Utd2lkdGg6IDBweDsiIHBvaW50cz0iMjc1LjIzMiAyMjQuMDQ2IDI5MS42NzIgMjcxLjkzNiAxOTQuODgyIDM2MS4wMDYgMjMwLjE3MiAyOTAuMzE2IDI3NS4yMzIgMjI0LjA0NiIgY2xhc3M9ImNscy05NyIvPiYjeGE7ICA8cG9seWdvbiBzdHlsZT0iZmlsbDogdXJsKCcjbGluZWFyLWdyYWRpZW50Jyk7IHN0cm9rZS13aWR0aDogMHB4OyIgcG9pbnRzPSIzMjEuNDEyIDI4Ni40MDYgMjgwLjYxMiAzOTkuMzg2IDI4NS42MTIgMjcyLjQwNiAzMjEuNDEyIDI4Ni40MDYiIGNsYXNzPSJjbHMtMSIvPiYjeGE7ICA8cG9seWdvbiBzdHlsZT0iZmlsbDogdXJsKCcjbGluZWFyLWdyYWRpZW50LTInKTsgc3Ryb2tlLXdpZHRoOiAwcHg7IiBwb2ludHM9IjE5Ni45MTIgNDQzLjg1NiAyODAuNjEyIDM5OS4zODYgMjg0LjMxMiAzNTYuNzE2IDIxOS41NzIgNDE1LjMxNiAxOTYuOTEyIDQ0My44NTYiIGNsYXNzPSJjbHMtNDgiLz4mI3hhOyAgPHBhdGggc3R5bGU9ImZpbGw6IHJnYigxNiwgMCwgMzApOyBzdHJva2Utd2lkdGg6IDBweDsiIGQ9Ik0gMTgzLjU1MiA0NjIuOTU2IEMgMTg1LjI1MiA0NjIuOTU2IDI0MC42MDIgNDM1LjcwNiAyNDAuNjAyIDQzNS43MDYgTCAyODAuNjAyIDM5OS4zODYgTCAxOTYuOTAyIDQ0My44NTYgTCAxODUuMjQyIDQ2MS4xODYgQyAxODUuMjQyIDQ2MS4xODYgMTgxLjg1MiA0NjIuOTQ2IDE4My41NDIgNDYyLjk0NiBMIDE4My41NTIgNDYyLjk1NiBaIiBjbGFzcz0iY2xzLTU4Ii8+JiN4YTsgIDxwYXRoIHN0eWxlPSJmaWxsOiByZ2IoMTYsIDAsIDMwKTsgc3Ryb2tlLXdpZHRoOiAwcHg7IiBkPSJNIDM0Mi43NzIgMjI2LjI4NiBMIDM0MC44MzIgMzc4LjA0NiBDIDM0MC44MzIgMzc4LjA0NiAyNzguNDcyIDQ2My45NTYgMjc2Ljk1MiA0NjQuNzY2IEMgMjc1LjQzMiA0NjUuNTc2IDI2OS43OTIgNDY2LjU4NiAyNjguMDUyIDQ2NC43NjYgQyAyNjYuMzEyIDQ2Mi45NDYgMjgwLjYwMiAzOTkuMzg2IDI4MC42MDIgMzk5LjM4NiBMIDM0Mi43NzIgMjI2LjI4NiBaIiBjbGFzcz0iY2xzLTU4Ii8+JiN4YTsgIDxwYXRoIHN0eWxlPSJmaWxsOiByZ2IoMTYsIDAsIDMwKTsgc3Ryb2tlLXdpZHRoOiAwcHg7IiBkPSJNIDM5Ny4zNjIgMzI1LjY2NiBDIDM5Ny4zNjIgMzI1LjY2NiAzNjQuMDQyIDQzNC44MTYgMzYwLjk3MiA0NDAuMzg2IEMgMzU3LjkwMiA0NDUuOTU2IDM0OC45NzIgNDQ0LjA3NiAzNDUuODcyIDQ0MC4zODYgQyAzNDIuNzcyIDQzNi42OTYgMzQwLjg0MiAzNzguMDU2IDM0MC44NDIgMzc4LjA1NiBMIDM5Ny4zNjIgMzI1LjY3NiBMIDM5Ny4zNjIgMzI1LjY2NiBaIiBjbGFzcz0iY2xzLTU4Ii8+JiN4YTsgIDxwYXRoIHN0eWxlPSJmaWxsOiByZ2IoMTYsIDAsIDMwKTsgc3Ryb2tlLXdpZHRoOiAwcHg7IiBkPSJNIDQwNy40MzIgMjM5LjgxNiBMIDM5Ny4zNjIgMzIxLjkwNiBDIDM5Ny4zNjIgMzIxLjkwNiA0MTQuMzgyIDQwMS4xNzYgNDE3LjQ5MiA0MDcuMDc2IEMgNDIwLjYwMiA0MTIuOTc2IDQyNi43NTIgNDExLjY2NiA0MjkuMTAyIDQwNy4wNzYgQyA0MzEuNDYyIDQwMi40ODYgNDU1Ljk0MiAzMDIuMTU2IDQ1NS45NDIgMzAyLjE1NiBMIDQwNy40MjIgMjM5LjgwNiBMIDQwNy40MzIgMjM5LjgxNiBaIiBjbGFzcz0iY2xzLTU4Ii8+JiN4YTsgIDxwYXRoIHN0eWxlPSJmaWxsOiByZ2IoMTYsIDAsIDMwKTsgc3Ryb2tlLXdpZHRoOiAwcHg7IiBkPSJNIDQzMi45ODIgMTk5LjY4NiBMIDQ0OC44NTIgMzA2LjA0NiBDIDQ0OC44NTIgMzA2LjA0NiA0NzUuNzIyIDM1Mi45MjYgNDc5LjgyMiAzNTcuOTA2IEMgNDgzLjkyMiAzNjIuODg2IDQ5MC44MDIgMzYzLjM5NiA0OTEuNDMyIDM1Ni43MjYgQyA0OTIuMDYyIDM1MC4wNDYgNDg3LjU2MiAyNDEuMzk2IDQ4Ny41NjIgMjQxLjM5NiBMIDQzMi45NzIgMTk5LjY5NiBMIDQzMi45ODIgMTk5LjY4NiBaIiBjbGFzcz0iY2xzLTU4Ii8+JiN4YTsgIDxwYXRoIHN0eWxlPSJmaWxsOiByZ2IoMTYsIDAsIDMwKTsgc3Ryb2tlLXdpZHRoOiAwcHg7IiBkPSJNIDUyMi44MDIgMTQxLjExNiBMIDUxMi43MzIgMTk1LjcwNiBDIDUxMi43MzIgMTk1LjcwNiA1NjUuMzgyIDIzOC4wMjYgNTcwLjAzMiAyNDEuMzg2IEMgNTc0LjY4MiAyNDQuNzQ2IDU3NC42ODIgMjM5LjgxNiA1NzQuNjgyIDIzOS44MTYgTCA1NzEuNTgyIDIzMi4wODYgTCA1MjIuODAyIDE0MS4xMDYgTCA1MjIuODAyIDE0MS4xMTYgWiIgY2xhc3M9ImNscy01OCIvPiYjeGE7ICA8cG9seWdvbiBzdHlsZT0iZmlsbDogdXJsKCcjbGluZWFyLWdyYWRpZW50LTMnKTsgc3Ryb2tlLXdpZHRoOiAwcHg7IiBwb2ludHM9Ii02Ni42MjggMTIwLjAzNiAtMTAyLjg1OCAtMjQuMTY0IC04Mi4yNzggLTMyLjM1NCAtNjYuNjI4IDEyMC4wMzYiIGNsYXNzPSJjbHMtNDkiLz4mI3hhOyAgPHBvbHlnb24gc3R5bGU9ImZpbGw6IHJnYigyMzgsIDcsIDgyKTsgc3Ryb2tlLXdpZHRoOiAwcHg7IiBwb2ludHM9Ii01Ljg1OCAtMTc0LjUzNCAtNDIuODY4IC0xNTcuMjA0IC02Ni42MjggMTIwLjAzNiAtNDcuNjg4IC0zMS44NTQgLTUuODU4IC0xNzQuNTM0IiBjbGFzcz0iY2xzLTc5Ii8+JiN4YTsgIDxwb2x5Z29uIHN0eWxlPSJmaWxsOiB1cmwoJyNsaW5lYXItZ3JhZGllbnQtNCcpOyBzdHJva2Utd2lkdGg6IDBweDsiIHBvaW50cz0iMTAuNzMyIC0yNTUuNDA0IC02LjI2OCAtMTczLjExNCAtNDMuMjc4IC0xNTQuODM0IDEwLjczMiAtMjU1LjQwNCIgY2xhc3M9ImNscy00NyIvPiYjeGE7ICA8cG9seWdvbiBzdHlsZT0iZmlsbDogcmdiKDI1NSwgMTExLCA0MCk7IHN0cm9rZS13aWR0aDogMHB4OyIgcG9pbnRzPSIxMjYuNjEyIC0yMDcuNDk0IDI5LjI5MiAtMTE5LjgwNCA3OS40NjIgLTIyMS4yMTQgMTI2LjYxMiAtMjA3LjQ5NCIgY2xhc3M9ImNscy03MyIvPiYjeGE7ICA8cG9seWdvbiBzdHlsZT0iZmlsbDogcmdiKDI1NSwgMTY2LCAwKTsgc3Ryb2tlLXdpZHRoOiAwcHg7IiBwb2ludHM9Ii02Ni42MjggLTIwNy40OTQgLTEwMi44NTggLTI0LjE2NCAtNDIuODY4IC0xNTcuMjA0IC02Ni42MjggLTIwNy40OTQiIGNsYXNzPSJjbHMtODQiLz4mI3hhOyAgPHBvbHlnb24gc3R5bGU9ImZpbGw6IHVybCgnI2xpbmVhci1ncmFkaWVudC01Jyk7IHN0cm9rZS13aWR0aDogMHB4OyIgcG9pbnRzPSItNDcuNjg4IDgzLjcyNiAtNjYuNjI4IDEyMC4wMzYgLTQ3LjY4OCAtMzIuMzU0IC0yMC42NDggLTEyNC44NzQgLTQ3LjY4OCA4My43MjYiIGNsYXNzPSJjbHMtNTMiLz4mI3hhOyAgPHBvbHlnb24gc3R5bGU9ImZpbGw6IHJnYigyNTUsIDIxNywgMTUzKTsgc3Ryb2tlLXdpZHRoOiAwcHg7IiBwb2ludHM9Ii0yNi4xMTggLTEwMS43NTQgNzUuNjMyIC0yMTMuNDc0IDY0Ljg1MiAtMTkxLjY4NCAyOS4yOTIgLTExOS44MDQgLTQwLjA3OCAyNS4wMzYgLTI2LjExOCAtMTAxLjc1NCIgY2xhc3M9ImNscy04MSIvPiYjeGE7ICA8cG9seWdvbiBzdHlsZT0iZmlsbDogcmdiKDI1NSwgMTIzLCA5Nyk7IHN0cm9rZS13aWR0aDogMHB4OyIgcG9pbnRzPSItNS44NTggLTE3NS40OTQgMzYuNDQyIC0xOTguODg0IC0wLjQwOCAtMTI5Ljk3NCAtMjguMDE4IC05OS42NjQgLTUuODU4IC0xNzUuNDk0IiBjbGFzcz0iY2xzLTcyIi8+JiN4YTsgIDxwb2x5Z29uIHN0eWxlPSJmaWxsOiByZ2IoMTEyLCAyOCwgOTkpOyBzdHJva2Utd2lkdGg6IDBweDsiIHBvaW50cz0iLTQ3LjY4OCA4My43MjYgNDkuMTUyIC0xMzcuNjk0IDI5LjI5MiAtMTE5LjgwNCAtNDAuMDc4IDI1LjAzNiAtNDcuNjg4IDgzLjcyNiIgY2xhc3M9ImNscy01NyIvPiYjeGE7ICA8cG9seWdvbiBzdHlsZT0iZmlsbDogcmdiKDI1NSwgMjE3LCAxNTMpOyBzdHJva2Utd2lkdGg6IDBweDsiIHBvaW50cz0iOTcuNjMyIC0yODkuOTk0IDM2LjQ0MiAtMTk4Ljg4NCAtNS44NTggLTE3NS40OTQgNTcuNTQyIC0yNTMuNDQ0IDk3LjYzMiAtMjg5Ljk5NCIgY2xhc3M9ImNscy04MSIvPiYjeGE7ICA8cG9seWdvbiBzdHlsZT0iZmlsbDogcmdiKDI1NSwgMCwgODMpOyBzdHJva2Utd2lkdGg6IDBweDsiIHBvaW50cz0iNzkuNDYyIC0yMjEuMjE0IDk3LjYzMiAtMjg5Ljk5NCAzNi40NDIgLTE5OC44ODQgNzkuNDYyIC0yMjEuMjE0IiBjbGFzcz0iY2xzLTg1Ii8+JiN4YTsgIDxwb2x5Z29uIHN0eWxlPSJmaWxsOiByZ2IoMjUwLCAyNDAsIDIwMik7IHN0cm9rZS13aWR0aDogMHB4OyIgcG9pbnRzPSItMC40MDggLTEyOS45NzQgNzUuNjMyIC0yMTMuNDc0IDc5LjQ2MiAtMjIxLjIxNCAzNi40NDIgLTE5OC44ODQgLTAuNDA4IC0xMjkuOTc0IiBjbGFzcz0iY2xzLTgyIi8+JiN4YTsgIDxwb2x5Z29uIHN0eWxlPSJmaWxsOiByZ2IoMjU1LCAyMTcsIDE1Myk7IHN0cm9rZS13aWR0aDogMHB4OyIgcG9pbnRzPSIxNzEuNDkyIC0zMDkuNjY0IDE2Mi40MDIgLTI1MC4yMTQgNzkuNDYyIC0yMjEuMjE0IDE3MS40OTIgLTMwOS42NjQiIGNsYXNzPSJjbHMtODEiLz4mI3hhOyAgPHBvbHlnb24gc3R5bGU9ImZpbGw6IHVybCgnI2xpbmVhci1ncmFkaWVudC02Jyk7IHN0cm9rZS13aWR0aDogMHB4OyIgcG9pbnRzPSIyNzIuODkyIC0zMDkuNjY0IDEyNi42MTIgLTIwNy40OTQgNzkuNDYyIC0yMjEuMjE0IDI3Mi44OTIgLTMwOS42NjQiIGNsYXNzPSJjbHMtNTQiLz4mI3hhOyAgPHBvbHlnb24gc3R5bGU9ImZpbGw6IHVybCgnI2xpbmVhci1ncmFkaWVudC03Jyk7IHN0cm9rZS13aWR0aDogMHB4OyIgcG9pbnRzPSIxMjguOTEyIC0yMDkuNDg0IDEwOC41MjIgLTE3Ni45MjQgNDguNzg3IC0xMzcuNjU4IDEyOC45MTIgLTIwOS40ODQiIGNsYXNzPSJjbHMtNTIiLz4mI3hhOyAgPHBvbHlnb24gc3R5bGU9ImZpbGw6IHVybCgnI2xpbmVhci1ncmFkaWVudC04Jyk7IHN0cm9rZS13aWR0aDogMHB4OyIgcG9pbnRzPSItMjUuMTg4IDY2LjY4NiA1LjgwMiAtMTAuODM0IDAuNzMyIC0yNC4zODQgLTY2LjYyOCAxMjAuMDM2IC0yMi41NzggODAuNzE2IC0yNS4xODggNjYuNjg2IiBjbGFzcz0iY2xzLTUwIi8+JiN4YTsgIDxwb2x5bGluZSBzdHlsZT0iZmlsbDogcmdiKDI1MCwgMjQwLCAyMDIpOyBzdHJva2Utd2lkdGg6IDBweDsiIHBvaW50cz0iNDguOTcyIC0xMzcuOTk2IC0xNS4wODggOS41NDYgLTIyLjc3OCA1OC4yMjYgLTUuMjI4IC0xMS41OTQgMTEzLjQ5MiAtMTg2LjgxNCIgY2xhc3M9ImNscy04MiIvPiYjeGE7ICA8cG9seWdvbiBzdHlsZT0iZmlsbDogcmdiKDI1NSwgMTA2LCAzOCk7IHN0cm9rZS13aWR0aDogMHB4OyIgcG9pbnRzPSIxMzIuMTYyIC0yMDcuNDk0IDIxOS41NzIgLTI1MC4yMTQgMjcyLjg5MiAtMzA5LjY2NCAxMjYuNjEyIC0yMDcuNDk0IDEzMi4xNjIgLTIwNy40OTQiIGNsYXNzPSJjbHMtNzUiLz4mI3hhOyAgPHBvbHlnb24gc3R5bGU9ImZpbGw6IHVybCgnI2xpbmVhci1ncmFkaWVudC05Jyk7IHN0cm9rZS13aWR0aDogMHB4OyIgcG9pbnRzPSI1LjgwMiAtMTAuODM0IDg2LjA5MiAtMTIyLjEwNCAxMjMuMzkyIC0xNzQuNTM0IDIxOS41NzIgLTI1MC4yMTQgMTI2LjYxMiAtMjA3LjQ5NCAtMC4zNzggLTE4LjY3NCA1LjgwMiAtMTAuODM0IiBjbGFzcz0iY2xzLTUxIi8+JiN4YTsgIDxwb2x5Z29uIHN0eWxlPSJmaWxsOiB1cmwoJyNsaW5lYXItZ3JhZGllbnQtMTAnKTsgc3Ryb2tlLXdpZHRoOiAwcHg7IiBwb2ludHM9IjEzLjE2MiAtMi40MjQgLTI1LjE4OCA2Ni42ODYgNS44MDIgLTEwLjgzNCAxMy4xNjIgLTIuNDI0IiBjbGFzcz0iY2xzLTE4Ii8+JiN4YTsgIDxwb2x5Z29uIHN0eWxlPSJmaWxsOiB1cmwoJyNsaW5lYXItZ3JhZGllbnQtMTEnKTsgc3Ryb2tlLXdpZHRoOiAwcHg7IiBwb2ludHM9IjE1My43OTIgLTE1OS40NzQgMTEzLjQ5MiAtODMuODI0IDEzLjE2MiAtMi40MjQgNS44MDIgLTEwLjgzNCA4OC40NTggLTEyNy43MTcgMTUzLjc5MiAtMTU5LjQ3NCIgY2xhc3M9ImNscy0xNSIvPiYjeGE7ICA8cG9seWdvbiBzdHlsZT0iZmlsbDogdXJsKCcjbGluZWFyLWdyYWRpZW50LTEyJyk7IHN0cm9rZS13aWR0aDogMHB4OyIgcG9pbnRzPSIxODAuNjUyIC0xNTUuMDk0IDEzNS44NDIgLTEzNC4wNTQgMTUxLjc3MiAtMTU5LjQ3NCAyMDguMTQyIC0xOTEuNjg0IDE4MC42NTIgLTE1NS4wOTQiIGNsYXNzPSJjbHMtMTYiLz4mI3hhOyAgPHBvbHlnb24gc3R5bGU9ImZpbGw6IHVybCgnI2xpbmVhci1ncmFkaWVudC0xMycpOyBzdHJva2Utd2lkdGg6IDBweDsiIHBvaW50cz0iMTQ5LjI5MiAtMTEzLjEzNCAxMTEuMDMyIC05MS4yNDQgMTM1Ljg0MiAtMTM0LjA1NCAxODAuNjUyIC0xNTUuMDk0IDE0OS4yOTIgLTExMy4xMzQiIGNsYXNzPSJjbHMtMTciLz4mI3hhOyAgPHBvbHlnb24gc3R5bGU9ImZpbGw6IHJnYigyNTUsIDIyNCwgMTU5KTsgc3Ryb2tlLXdpZHRoOiAwcHg7IiBwb2ludHM9Ijg4LjMwMiAtMTI3LjU1NCAxMjMuMzkyIC0xNzQuNTM0IDIxOS41NzIgLTI1MC4yMTQgMzI3LjM5MiAtMjg3LjcwNCAzNTEuNTIyIC0yODkuOTk0IDIyOS4xODIgLTIxOC43MTQgODguMzAyIC0xMjcuNTU0IiBjbGFzcz0iY2xzLTg5Ii8+JiN4YTsgIDxwb2x5Z29uIHN0eWxlPSJmaWxsOiByZ2IoMjU1LCAwLCA4Myk7IHN0cm9rZS13aWR0aDogMHB4OyIgcG9pbnRzPSIyMDEuNDEyIC0xODIuMTg0IDIxMS45NjIgLTE5Ny4wODQgMjI1LjcxOCAtMjE2LjQ1NCA4OC40MjYgLTEyNy43NDMgMjAxLjQxMiAtMTgyLjE4NCIgY2xhc3M9ImNscy04NSIvPiYjeGE7ICA8cG9seWdvbiBzdHlsZT0iZmlsbDogcmdiKDI1NSwgMTA2LCAzOCk7IHN0cm9rZS13aWR0aDogMHB4OyIgcG9pbnRzPSIzMDYuMjIyIC0yNDYuNjU0IDIxMS45NjIgLTE5Ny4wODQgMjI1LjUyNCAtMjE2LjQ3IDM0NS41OTIgLTI4OS45OTQgMzUxLjUyMiAtMjg5Ljk5NCAzMDYuMjIyIC0yNDYuNjU0IiBjbGFzcz0iY2xzLTc1Ii8+JiN4YTsgIDxwb2x5Z29uIHN0eWxlPSJmaWxsOiB1cmwoJyNsaW5lYXItZ3JhZGllbnQtMTQnKTsgc3Ryb2tlLXdpZHRoOiAwcHg7IiBwb2ludHM9IjguOTMyIDMyLjcyNiA3NS42MzIgLTU3LjIyNCA5OC4zMzIgLTc5LjcxNCA3NS42MzIgLTM4LjQ4NCA4LjkzMiAzMi43MjYiIGNsYXNzPSJjbHMtMjYiLz4mI3hhOyAgPHBvbHlnb24gc3R5bGU9ImZpbGw6IHVybCgnI2xpbmVhci1ncmFkaWVudC0xNScpOyBzdHJva2Utd2lkdGg6IDBweDsiIHBvaW50cz0iMTE1LjY3MiAtNzEuNzQ0IDI1NS4wNzIgLTE3NC41MzQgMTgwLjY1MiAtMTU1LjA5NCAxMTQuMjExIC03MC4yODYiIGNsYXNzPSJjbHMtMjIiLz4mI3hhOyAgPHBvbHlnb24gc3R5bGU9ImZpbGw6IHJnYigyNTUsIDIxNywgMTUzKTsgc3Ryb2tlLXdpZHRoOiAwcHg7IiBwb2ludHM9IjIxMS45NjIgLTE5Ny4wODQgMTgwLjY1MiAtMTU1LjA5NCAzNDYuOTkyIC0yMjcuNDc0IDQxNS45MzIgLTI0NC40NDQgNDE5LjU2MiAtMjQ3LjczNCAzNzQuMjEyIC0yNDcuNzM0IDIxMS45NjIgLTE5Ny4wODQiIGNsYXNzPSJjbHMtODEiLz4mI3hhOyAgPHBvbHlnb24gc3R5bGU9ImZpbGw6IHJnYigyNTUsIDAsIDEwNSk7IHN0cm9rZS13aWR0aDogMHB4OyIgcG9pbnRzPSIyNTUuMDcyIC0xNzQuNTM0IDMxNy45NjIgLTE5MC4yNzQgNDE1LjkzMiAtMjQ0LjQ0NCAzNDYuOTkyIC0yMjcuNDc0IDE3OS4wMDIgLTE1NC4zMjQgMjU1LjA3MiAtMTc0LjUzNCIgY2xhc3M9ImNscy04NiIvPiYjeGE7ICA8cG9seWdvbiBzdHlsZT0iZmlsbDogcmdiKDI1MCwgMjQwLCAyMDIpOyBzdHJva2Utd2lkdGg6IDBweDsiIHBvaW50cz0iMjQ1LjI5MiAtMTY3LjMzNCAyOTMuNzcyIC0xNDMuMDk0IDI2My4zNzIgLTEyOS40NDQgMTQwLjIwMiAtODkuODM0IDI0NS4yOTIgLTE2Ny4zMzQiIGNsYXNzPSJjbHMtODIiLz4mI3hhOyAgPHBvbHlnb24gc3R5bGU9ImZpbGw6IHJnYigyNTUsIDIxNywgMTUzKTsgc3Ryb2tlLXdpZHRoOiAwcHg7IiBwb2ludHM9IjI1NS4wNzIgLTE3NC41MzQgMjQ1LjI5MiAtMTY3LjMzNCAyOTMuNzcyIC0xNDMuMDk0IDM1Ni40MDIgLTE2NS41OTQgMjk1LjgyMiAtMTg0LjczNCAyNTUuMDcyIC0xNzQuNTM0IiBjbGFzcz0iY2xzLTgxIi8+JiN4YTsgIDxwb2x5Z29uIHN0eWxlPSJmaWxsOiB1cmwoJyNsaW5lYXItZ3JhZGllbnQtMTYnKTsgc3Ryb2tlLXdpZHRoOiAwcHg7IiBwb2ludHM9IjMzMS44ODIgLTE5NC4zNzQgNDMxLjQwMiAtMjA1LjExNCA0OTEuNDAyIC0xOTguMjI0IDQ4My40OTIgLTE5NC4zNzQgNDM4LjQ5MiAtMTg4LjI5NCAzNTYuNDAyIC0xNjUuNTk0IDI5NS44MjIgLTE4NC43MzQgMzMxLjg4MiAtMTk0LjM3NCIgY2xhc3M9ImNscy0yMCIvPiYjeGE7ICA8cG9seWdvbiBzdHlsZT0iZmlsbDogdXJsKCcjbGluZWFyLWdyYWRpZW50LTE3Jyk7IHN0cm9rZS13aWR0aDogMHB4OyIgcG9pbnRzPSI0MzIuNzUyIC0xNjcuMzM0IDM1Ni40MDIgLTE2NS41OTQgNDM4LjQ5MiAtMTg4LjI5NCA0OTEuNDAyIC0xOTguMjI0IDQzMi43NTIgLTE2Ny4zMzQiIGNsYXNzPSJjbHMtMTkiLz4mI3hhOyAgPHBvbHlnb24gc3R5bGU9ImZpbGw6IHJnYigyNTUsIDExMSwgNDApOyBzdHJva2Utd2lkdGg6IDBweDsiIHBvaW50cz0iMjkzLjc3MiAtMTQzLjA5NCAzMDUuMzIxIC0xMzYuOCA0MzIuNzUyIC0xNjcuMzM0IDM1Ni40MDIgLTE2NS41OTQgMjkzLjc3MiAtMTQzLjA5NCIgY2xhc3M9ImNscy03MyIvPiYjeGE7ICA8cG9seWdvbiBzdHlsZT0iZmlsbDogdXJsKCcjbGluZWFyLWdyYWRpZW50LTE4Jyk7IHN0cm9rZS13aWR0aDogMHB4OyIgcG9pbnRzPSIxMy4xNjIgLTIuNDI0IC0yNS4xODggNjYuNjg2IC0yMi41NzggODAuNzE2IDguOTMyIDMyLjcyNiA3Ny45NTIgLTU5LjUyNCAxMy4xNjIgLTIuNDI0IiBjbGFzcz0iY2xzLTI1Ii8+JiN4YTsgIDxwb2x5Z29uIHN0eWxlPSJmaWxsOiByZ2IoNywgMjQsIDUzKTsgc3Ryb2tlLXdpZHRoOiAwcHg7IiBwb2ludHM9IjMzLjg4MiAzMi43MjYgLTIyLjU3OCA4MC43MTYgOC45MzIgMzIuNzI2IDc1LjYzMiAtMzguNDg0IDc5LjQ2MiAtMzQuMDg0IDUxLjg2MiAxNy4xNzYgMzMuODgyIDMyLjcyNiIgY2xhc3M9ImNscy01OSIvPiYjeGE7ICA8cG9seWdvbiBzdHlsZT0iZmlsbDogdXJsKCcjbGluZWFyLWdyYWRpZW50LTE5Jyk7IHN0cm9rZS13aWR0aDogMHB4OyIgcG9pbnRzPSIxNDkuMjkyIC0xMTMuMTM0IDExMC40NjIgLTY1LjcxNCA3OS40NjIgLTM0LjA4NCA3NS42MzIgLTM4LjQ4NCA5OC4zMzIgLTc5LjcxNCAxMTEuMDMyIC05MS4yNDQgMTQ5LjI5MiAtMTEzLjEzNCIgY2xhc3M9ImNscy0yMSIvPiYjeGE7ICA8cG9seWdvbiBzdHlsZT0iZmlsbDogcmdiKDIzOCwgNywgODIpOyBzdHJva2Utd2lkdGg6IDBweDsiIHBvaW50cz0iNTQuMDgyIDEzLjA0NiAxMjQuODgyIC02MS40MjQgMTQwLjIwMiAtODkuODM0IDExNS42NzIgLTcxLjc0NCA3OS40NjIgLTM0LjA4NCA1NC4wODIgMTMuMDQ2IiBjbGFzcz0iY2xzLTc5Ii8+JiN4YTsgIDxwb2x5Z29uIHN0eWxlPSJmaWxsOiB1cmwoJyNsaW5lYXItZ3JhZGllbnQtMjAnKTsgc3Ryb2tlLXdpZHRoOiAwcHg7IiBwb2ludHM9IjI2My4zNzIgLTEyOS40NDQgNTQuMDgyIDEzLjA0NiAxMjYuNDE1IC02NC4yODUgMTQwLjIwMiAtODkuODM0IDI2My4zNzIgLTEyOS40NDQiIGNsYXNzPSJjbHMtMjgiLz4mI3hhOyAgPHBvbHlnb24gc3R5bGU9ImZpbGw6IHVybCgnI2xpbmVhci1ncmFkaWVudC0yMScpOyBzdHJva2Utd2lkdGg6IDBweDsiIHBvaW50cz0iMjkzLjc3MiAtMTQzLjA5NCAzMDUuNDY4IC0xMzYuODQ3IDI2MS45NTIgLTEwMi44MjQgMTk1LjA4MiAtNzkuNzE0IDE5NS4wODIgLTgyLjk1NCAyNjMuMzcyIC0xMjkuNDQ0IDI5My43NzIgLTE0My4wOTQiIGNsYXNzPSJjbHMtMjQiLz4mI3hhOyAgPHBvbHlnb24gc3R5bGU9ImZpbGw6IHJnYig3LCAyNCwgNTMpOyBzdHJva2Utd2lkdGg6IDBweDsiIHBvaW50cz0iMzMuODgyIDMyLjcyNiA1NC4wODIgMTMuMDQ2IDE5NS4wODIgLTgyLjk1NCAxOTUuMDgyIC03Ni42ODQgNzAuNTAyIDEwLjU5NiAzMy44ODIgMzIuNzI2IiBjbGFzcz0iY2xzLTU5Ii8+JiN4YTsgIDxwb2x5Z29uIHN0eWxlPSJmaWxsOiB1cmwoJyNsaW5lYXItZ3JhZGllbnQtMjInKTsgc3Ryb2tlLXdpZHRoOiAwcHg7IiBwb2ludHM9IjI3MC40MzIgLTg1Ljg1NCAzMTAuMTUyIC0xMDUuNTM0IDI2MS45NTIgLTEwMi44MjQgMTk1LjA4MiAtNzkuNzE0IDcwLjUwMiAxMC41OTYgMjcwLjQzMiAtODUuODU0IiBjbGFzcz0iY2xzLTI3Ii8+JiN4YTsgIDxwb2x5Z29uIHN0eWxlPSJmaWxsOiByZ2IoMjU1LCAyMTcsIDE1Myk7IHN0cm9rZS13aWR0aDogMHB4OyIgcG9pbnRzPSI2OS40ODIgMTcuNTA2IDMzLjg4MiAzMi43MjYgNzAuNTAyIDEwLjU5NiAyNzAuNDMyIC04NS44NTQgMzEwLjE1MiAtODcuNjQ0IDQxMS40MjIgLTYzLjk2NCAzMzQuNTkyIC02MC4xMDQgMjQ0LjI3MiAtMzkuNzM0IDY5LjQ4MiAxNy41MDYiIGNsYXNzPSJjbHMtODEiLz4mI3hhOyAgPHBvbHlnb24gc3R5bGU9ImZpbGw6IHVybCgnI2xpbmVhci1ncmFkaWVudC0yMycpOyBzdHJva2Utd2lkdGg6IDBweDsiIHBvaW50cz0iMjY1LjIzMiAtMjIuMTg0IDI5OC41ODIgLTUxLjk4NCAyNDQuODEyIC00MS44MDQgNjkuNDgyIDE3LjUwNiAxNDkuMjkyIDAuNzA2IDI2NS4yMzIgLTIyLjE4NCIgY2xhc3M9ImNscy0yMyIvPiYjeGE7ICA8cG9seWdvbiBzdHlsZT0iZmlsbDogcmdiKDcsIDI0LCA1Myk7IHN0cm9rZS13aWR0aDogMHB4OyIgcG9pbnRzPSIyNjYuMzQyIC0yMy40OTQgMjQ4LjQ0MiAtMi40MjQgMTQ1LjMzMiA0LjMxNiAxNDYuMTMyIDEuMzU2IDI2Ni4zNDIgLTIzLjQ5NCIgY2xhc3M9ImNscy01OSIvPiYjeGE7ICA8cG9seWdvbiBzdHlsZT0iZmlsbDogdXJsKCcjbGluZWFyLWdyYWRpZW50LTI0Jyk7IHN0cm9rZS13aWR0aDogMHB4OyIgcG9pbnRzPSIxNDkuMjkyIDAuNzA2IDExMi40NjIgMzQuMjk2IDI0Ny44MDIgNjkuMDU2IDI5My43NzIgNzMuMjQ2IDE0OS4yOTIgMC43MDYiIGNsYXNzPSJjbHMtMzAiLz4mI3hhOyAgPHBvbHlnb24gc3R5bGU9ImZpbGw6IHVybCgnI2xpbmVhci1ncmFkaWVudC0yNScpOyBzdHJva2Utd2lkdGg6IDBweDsiIHBvaW50cz0iMzEwLjE1MiAxOC4xNjYgMjQ4LjQ0MiAtMi40MjQgMTQ5LjI5MiAwLjcwNiAxNzYuNTYyIDE4LjE2NiAzMTAuMTUyIDE4LjE2NiIgY2xhc3M9ImNscy0xNCIvPiYjeGE7ICA8cG9seWdvbiBzdHlsZT0iZmlsbDogdXJsKCcjbGluZWFyLWdyYWRpZW50LTI2Jyk7IHN0cm9rZS13aWR0aDogMHB4OyIgcG9pbnRzPSIzMTguNDUyIDMuNTg2IDI0OC40NDIgLTIuNDI0IDI2Ni4zNDIgLTIzLjQ5NCAzMTguNDUyIDMuNTg2IiBjbGFzcz0iY2xzLTMxIi8+JiN4YTsgIDxwb2x5Z29uIHN0eWxlPSJmaWxsOiByZ2IoMTEzLCA4MiwgMTUyKTsgc3Ryb2tlLXdpZHRoOiAwcHg7IiBwb2ludHM9IjMzMy40ODIgMjkuMTU2IDM5NS41MTIgODMuNzI2IDQ3MS42MDIgMTMxLjE1NiA0MTQuMDUyIDUwLjI2NiAzMTguNDUyIDMuNTg2IDI0OC40NDIgLTIuNDI0IDMzMy40ODIgMjkuMTU2IiBjbGFzcz0iY2xzLTU2Ii8+JiN4YTsgIDxwb2x5Z29uIHN0eWxlPSJmaWxsOiB1cmwoJyNsaW5lYXItZ3JhZGllbnQtMjcnKTsgc3Ryb2tlLXdpZHRoOiAwcHg7IiBwb2ludHM9IjIzNy41MTIgMTA5LjA0NiAyOTYuODYyIDEzMC4yMDYgMjQ3LjgwMiA2OS4wNTYgMTcwLjIzNCA0OS4xNjMgMjM3LjUxMiAxMDkuMDQ2IiBjbGFzcz0iY2xzLTI5Ii8+JiN4YTsgIDxwb2x5Z29uIHN0eWxlPSJmaWxsOiByZ2IoMTg4LCAwLCA5Myk7IHN0cm9rZS13aWR0aDogMHB4OyIgcG9pbnRzPSIyNjYuMzQyIC0yMy40OTQgMzMxLjkzMiAtNTEuOTg0IDMzNC41OTIgLTYwLjEwNCAyOTguNTgyIC01MS45ODQgMjY2LjM0MiAtMjMuNDk0IiBjbGFzcz0iY2xzLTY5Ii8+JiN4YTsgIDxwb2x5Z29uIHN0eWxlPSJmaWxsOiByZ2IoMTg4LCAwLCA5Myk7IHN0cm9rZS13aWR0aDogMHB4OyIgcG9pbnRzPSI0NTkuMTcyIC01NS4xOTQgNDM4Ljc3NCAtNjUuNDM1IDMzNC41OTIgLTYwLjEwNCAzMzAuMzMyIC00OS4zMDQgNDU5LjE3MiAtNTUuMTk0IiBjbGFzcz0iY2xzLTY5Ii8+JiN4YTsgIDxwb2x5Z29uIHN0eWxlPSJmaWxsOiByZ2IoMjU1LCAyMDEsIDE0MSk7IHN0cm9rZS13aWR0aDogMHB4OyIgcG9pbnRzPSIzMDAuODUyIC0xMzQuMTk0IDI2MS45NTIgLTEwMi44MjQgMzQxLjM1MiAtMTAwLjEzNCA0MzguMjkyIC0xMDUuNTM0IDMwMC44NTIgLTEzNC4xOTQiIGNsYXNzPSJjbHMtNzgiLz4mI3hhOyAgPHBvbHlnb24gc3R5bGU9ImZpbGw6IHJnYigyNTAsIDI0MCwgMjAyKTsgc3Ryb2tlLXdpZHRoOiAwcHg7IiBwb2ludHM9IjUzOC45NzIgLTEzNC4wNTQgNDkxLjQwMiAtMTQ4LjE5NCA0MTUuOTMyIC0xNTcuMjA0IDMwOS4xNTIgLTEzOC45NTQgMzAwLjg1MiAtMTM0LjE5NCAzNTEuNTIyIC0xMjMuMTQ0IDUzOC45NzIgLTEzNC4wNTQiIGNsYXNzPSJjbHMtODIiLz4mI3hhOyAgPHBvbHlnb24gc3R5bGU9ImZpbGw6IHVybCgnI2xpbmVhci1ncmFkaWVudC0yOCcpOyBzdHJva2Utd2lkdGg6IDBweDsiIHBvaW50cz0iNDM4LjI5MiAtMTA1LjUzNCA1MzguOTcyIC0xMzQuMDU0IDM1MS41MjIgLTEyMy4xNDQgNDM4LjI5MiAtMTA1LjUzNCIgY2xhc3M9ImNscy0xMyIvPiYjeGE7ICA8cG9seWdvbiBzdHlsZT0iZmlsbDogcmdiKDI1MCwgMjQwLCAyMDIpOyBzdHJva2Utd2lkdGg6IDBweDsiIHBvaW50cz0iMzAxLjk0MiAtMTAxLjQ3NCAyNzAuNDMyIC04NS44NTQgMzEwLjE1MiAtODcuNjQ0IDQxMS40MjIgLTYzLjk2NCA0MjYuNzgyIC02NC40MjQgMzQ2LjM0MiAtMTAxLjQ3NCAzMDEuOTQyIC0xMDEuNDc0IiBjbGFzcz0iY2xzLTgyIi8+JiN4YTsgIDxwb2x5Z29uIHN0eWxlPSJmaWxsOiByZ2IoMjU1LCAwLCA4Myk7IHN0cm9rZS13aWR0aDogMHB4OyIgcG9pbnRzPSI0MzguMjkyIC0xMDUuNTM0IDUxOC40OTIgLTYyLjEwNCA0MjYuNzgyIC02NC40MjQgMzQ2LjM0MiAtMTAxLjQ3NCA0MzguMjkyIC0xMDUuNTM0IiBjbGFzcz0iY2xzLTg1Ii8+JiN4YTsgIDxwYXRoIHN0eWxlPSJmaWxsOiB1cmwoJyNsaW5lYXItZ3JhZGllbnQtMjknKTsgc3Ryb2tlLXdpZHRoOiAwcHg7IiBkPSJNIDU3OS4yMzIgLTYyLjEwNCBMIDUxOC40OTIgLTYyLjEwNCBMIDQzOC4yOTIgLTEwNS41MzQgTCA0NTQuNTMyIC0xMDUuNTM0IEMgNDU0LjUzMiAtMTA1LjUzNCA1MzUuMjgyIC04Ny4wNTQgNTQxLjgxMiAtODUuNDM0IEMgNTQ4LjM0MiAtODMuODE0IDU3OS4yMjIgLTYyLjEwNCA1NzkuMjIyIC02Mi4xMDQgTCA1NzkuMjMyIC02Mi4xMDQgWiIgY2xhc3M9ImNscy00Ii8+JiN4YTsgIDxwb2x5Z29uIHN0eWxlPSJmaWxsOiByZ2IoMjU1LCAxNzYsIDI5KTsgc3Ryb2tlLXdpZHRoOiAwcHg7IiBwb2ludHM9IjU0Ni40NzIgLTQxLjgwNCA1NDEuNDUyIC0yNy40NjQgNDU5LjE3MiAtNTUuMTk0IDQzOS41MzIgLTY0LjQyNCA1MTguNDkyIC02Mi4xMDQgNTQ2LjQ3MiAtNDEuODA0IiBjbGFzcz0iY2xzLTgwIi8+JiN4YTsgIDxwYXRoIHN0eWxlPSJmaWxsOiB1cmwoJyNsaW5lYXItZ3JhZGllbnQtMzAnKTsgc3Ryb2tlLXdpZHRoOiAwcHg7IiBkPSJNIDM4Ny40NDIgLTQ1Ljk0NCBMIDYwNy41NzIgMTEzLjQyNiBDIDYwNy41NzIgMTEzLjQyNiA2MTAuMjUyIDEwOS40NzYgNjA3LjU3MiAxMDIuMTI2IEMgNjA0Ljg5MiA5NC43NzYgNTIxLjM2MiAtNS40MjQgNTIxLjM2MiAtNS40MjQgTCAzODcuNDQyIC00NS45NDQgWiIgY2xhc3M9ImNscy02Ii8+JiN4YTsgIDxwb2x5Z29uIHN0eWxlPSJmaWxsOiB1cmwoJyNsaW5lYXItZ3JhZGllbnQtMzEnKTsgc3Ryb2tlLXdpZHRoOiAwcHg7IiBwb2ludHM9IjU0MS40NTIgLTI3LjQ2NCA1MjEuMzYyIC01LjQyNCA2MDQuMjIyIDE4LjE2NiA1NDEuNDUyIC0yNy40NjQiIGNsYXNzPSJjbHMtNyIvPiYjeGE7ICA8cG9seWdvbiBzdHlsZT0iZmlsbDogcmdiKDI1NSwgMjAxLCAxNDEpOyBzdHJva2Utd2lkdGg6IDBweDsiIHBvaW50cz0iMzMxLjkzMiAtNTEuOTg0IDI2Ni4zNDIgLTIzLjQ5NCAyOTIuNTEyIC0xNy4yNDQgNDE2Ljc1MiAtNTMuMjU0IDMzMS45MzIgLTUxLjk4NCIgY2xhc3M9ImNscy03OCIvPiYjeGE7ICA8cG9seWdvbiBzdHlsZT0iZmlsbDogcmdiKDI1NSwgMjAxLCAxNDEpOyBzdHJva2Utd2lkdGg6IDBweDsiIHBvaW50cz0iNTQxLjQ1MiAtMjcuNDY0IDUyMS4zNjIgLTUuNDI0IDUyMS4zNjIgLTUuNDI0IDM4Ny40NDIgLTQ1Ljk0NCA0MTYuNzUyIC01My4yNTQgNDU1LjYyMiAtNTYuODY0IDU0MS40NTIgLTI3LjQ2NCIgY2xhc3M9ImNscy03OCIvPiYjeGE7ICA8cG9seWdvbiBzdHlsZT0iZmlsbDogdXJsKCcjbGluZWFyLWdyYWRpZW50LTMyJyk7IHN0cm9rZS13aWR0aDogMHB4OyIgcG9pbnRzPSI0MDYuNjkyIDAuNzA2IDM4Ny40NDIgLTQ1Ljk0NCAyOTIuNTEyIC0xNy4yNDQgNDA2LjY5MiAwLjcwNiIgY2xhc3M9ImNscy01Ii8+JiN4YTsgIDxwb2x5Z29uIHN0eWxlPSJmaWxsOiB1cmwoJyNsaW5lYXItZ3JhZGllbnQtMzMnKTsgc3Ryb2tlLXdpZHRoOiAwcHg7IiBwb2ludHM9IjUxMC42NzIgNDMuMjY2IDUzMy4wODIgODIuNDU2IDQwNi42OTIgMC43MDYgMzg3LjQ0MiAtNDUuOTQ0IDUxMC42NzIgNDMuMjY2IiBjbGFzcz0iY2xzLTMiLz4mI3hhOyAgPHBvbHlnb24gc3R5bGU9ImZpbGw6IHVybCgnI2xpbmVhci1ncmFkaWVudC0zNCcpOyBzdHJva2Utd2lkdGg6IDBweDsiIHBvaW50cz0iMTc2LjU2MiAxOC4xNjYgMjEwLjg0MiAxOC4yNTYgMjkzLjc3MiA3My4yNDYgMTc2LjU2MiAxOC4xNjYiIGNsYXNzPSJjbHMtMTAiLz4mI3hhOyAgPHBvbHlnb24gc3R5bGU9ImZpbGw6IHVybCgnI2xpbmVhci1ncmFkaWVudC0zNScpOyBzdHJva2Utd2lkdGg6IDBweDsiIHBvaW50cz0iMzIzLjQyMiA0Ny4zNTYgMjEwLjg0MiAxOC4yNTYgMjkzLjc3MiA3My4yNDYgMzMwLjMzMiAxMDQuNjM2IDQzMi45ODIgMTk5LjY4NiAzMjMuNDIyIDQ3LjM1NiIgY2xhc3M9ImNscy0xMiIvPiYjeGE7ICA8cG9seWdvbiBzdHlsZT0iZmlsbDogdXJsKCcjbGluZWFyLWdyYWRpZW50LTM2Jyk7IHN0cm9rZS13aWR0aDogMHB4OyIgcG9pbnRzPSIzMDMuODkyIDE4LjE2NiAzOTQuNjMyIDgzLjI3NiAzMjMuNDIyIDQ3LjM1NiAyMTAuODQyIDE4LjI1NiAzMDMuODkyIDE4LjE2NiIgY2xhc3M9ImNscy04Ii8+JiN4YTsgIDxwb2x5Z29uIHN0eWxlPSJmaWxsOiB1cmwoJyNsaW5lYXItZ3JhZGllbnQtMzcnKTsgc3Ryb2tlLXdpZHRoOiAwcHg7IiBwb2ludHM9IjMzMy40ODIgMjkuMTU2IDMzMi41MTIgNDAuNDA2IDMwMy44OTIgMTguMTY2IDMzMy40ODIgMjkuMTU2IiBjbGFzcz0iY2xzLTExIi8+JiN4YTsgIDxwb2x5Z29uIHN0eWxlPSJmaWxsOiByZ2IoNywgMjQsIDUzKTsgc3Ryb2tlLXdpZHRoOiAwcHg7IiBwb2ludHM9IjM5NS41MTIgODMuNzI2IDM3MS41NDIgNzAuNzI2IDMzMi41MTIgNDAuNDA2IDMzMy40ODIgMjkuMTU2IDM5NS41MTIgODMuNzI2IiBjbGFzcz0iY2xzLTU5Ii8+JiN4YTsgIDxwb2x5Z29uIHN0eWxlPSJmaWxsOiB1cmwoJyNsaW5lYXItZ3JhZGllbnQtMzgnKTsgc3Ryb2tlLXdpZHRoOiAwcHg7IiBwb2ludHM9IjI2Ni4zNDIgLTIzLjQ5NCA0MDYuNjkyIDAuNzA2IDQ1Mi44MTIgNzUuODI2IDI2Ni4zNDIgLTIzLjQ5NCIgY2xhc3M9ImNscy0yIi8+JiN4YTsgIDxwb2x5Z29uIHN0eWxlPSJmaWxsOiByZ2IoMjU1LCA5NiwgNDEpOyBzdHJva2Utd2lkdGg6IDBweDsiIHBvaW50cz0iMzIzLjQyMiA0Ny4zNTYgNDMyLjk4MiAxOTkuNjg2IDM5NS41MTIgODMuNzI2IDMyMy40MjIgNDcuMzU2IiBjbGFzcz0iY2xzLTc0Ii8+JiN4YTsgIDxwb2x5Z29uIHN0eWxlPSJmaWxsOiB1cmwoJyNsaW5lYXItZ3JhZGllbnQtMzknKTsgc3Ryb2tlLXdpZHRoOiAwcHg7IiBwb2ludHM9IjQ4Ny41NzIgMjQxLjM4NiAzOTUuNTEyIDgzLjcyNiA0ODEuNTgyIDEzNS43MDYgNDg3LjU3MiAyNDEuMzg2IiBjbGFzcz0iY2xzLTkiLz4mI3hhOyAgPHBvbHlnb24gc3R5bGU9ImZpbGw6IHVybCgnI2xpbmVhci1ncmFkaWVudC00MCcpOyBzdHJva2Utd2lkdGg6IDBweDsiIHBvaW50cz0iMzY0LjAxMiAxNDEuMTE2IDQwNy40MzIgMjM5LjgxNiA0MzIuOTgyIDE5OS42ODYgMzcyLjk4MiAxMTYuMjY2IDM2NC4wMTIgMTQxLjExNiIgY2xhc3M9ImNscy00MCIvPiYjeGE7ICA8cG9seWdvbiBzdHlsZT0iZmlsbDogdXJsKCcjbGluZWFyLWdyYWRpZW50LTQxJyk7IHN0cm9rZS13aWR0aDogMHB4OyIgcG9pbnRzPSIzNDIuNzcyIDIyNi4yODYgMzc4LjIwMiAyNzguMjg2IDM0OC42MTIgMzcwLjg0NiAzNDAuODQyIDM3OC4wNDYgMzQyLjc3MiAyMjYuMjg2IiBjbGFzcz0iY2xzLTQxIi8+JiN4YTsgIDxwb2x5Z29uIHN0eWxlPSJmaWxsOiByZ2IoNTEsIDQwLCAxMTYpOyBzdHJva2Utd2lkdGg6IDBweDsiIHBvaW50cz0iMjk2LjIzMiAxMTQuNjc2IDMyMS40MTIgMjg4LjEyNiAyODUuNjEyIDI3NC4xMTYgMjk2LjIzMiAxMTQuNjc2IiBjbGFzcz0iY2xzLTY4Ii8+JiN4YTsgIDxwb2x5Z29uIHN0eWxlPSJmaWxsOiByZ2IoMCwgNjksIDE3OCk7IHN0cm9rZS13aWR0aDogMHB4OyIgcG9pbnRzPSIyMzcuNTEyIDEwOS4wNDYgMjY2LjM0MiAxNDcuMDg2IDI1Ni42ODIgMTczLjMyNiAyMzcuNTEyIDEwOS4wNDYiIGNsYXNzPSJjbHMtOTMiLz4mI3hhOyAgPHBvbHlnb24gc3R5bGU9ImZpbGw6IHJnYigyNTAsIDAsIDk3KTsgc3Ryb2tlLXdpZHRoOiAwcHg7IiBwb2ludHM9IjUzMy4wODIgODIuNDU2IDUyMi44MDIgMTQxLjExNiA1NTkuODkyIDExNi44NTYgNTMzLjA4MiA4Mi40NTYiIGNsYXNzPSJjbHMtNTUiLz4mI3hhOyAgPHBvbHlnb24gc3R5bGU9ImZpbGw6IHJnYigyNTUsIDI3LCA3OCk7IHN0cm9rZS13aWR0aDogMHB4OyIgcG9pbnRzPSI0MDYuNjkyIDAuNzA2IDQ1Mi44MTIgNzUuODI2IDUyMi44MDIgMTQxLjExNiA1MzMuMDgyIDgyLjQ1NiA0MDYuNjkyIDAuNzA2IiBjbGFzcz0iY2xzLTgzIi8+JiN4YTsgIDxwb2x5Z29uIHN0eWxlPSJmaWxsOiByZ2IoNywgMjQsIDUzKTsgc3Ryb2tlLXdpZHRoOiAwcHg7IiBwb2ludHM9IjQxOS42ODIgNTguMTc2IDQ1Mi44MTIgNzUuODI2IDQ4MC4xOTIgMTM3LjE3NiA0NzEuNjAyIDEzMS4xNTYgNDE5LjY4MiA1OC4xNzYiIGNsYXNzPSJjbHMtNTkiLz4mI3hhOyAgPHBvbHlnb24gc3R5bGU9ImZpbGw6IHJnYigyNTUsIDIxNywgMTUzKTsgc3Ryb2tlLXdpZHRoOiAwcHg7IiBwb2ludHM9IjU0Ni40NzIgLTQxLjgwNCA2MDQuMjIyIDE4LjE2NiA1NDEuNDUyIC0yNy40NjQgNTQ2LjQ3MiAtNDEuODA0IiBjbGFzcz0iY2xzLTgxIi8+JiN4YTsgIDxwb2x5Z29uIHN0eWxlPSJmaWxsOiByZ2IoMjI3LCAwLCAxMDMpOyBzdHJva2Utd2lkdGg6IDBweDsiIHBvaW50cz0iNTEwLjY3MiA0My4yNjYgNTMzLjA4MiA4Mi40NTYgNjA3LjU3MiAxMTMuNDI2IDUxMC42NzIgNDMuMjY2IiBjbGFzcz0iY2xzLTY0Ii8+JiN4YTsgIDxwYXRoIHN0eWxlPSJmaWxsOiB1cmwoJyNsaW5lYXItZ3JhZGllbnQtNDInKTsgc3Ryb2tlLXdpZHRoOiAwcHg7IiBkPSJNIDU1OS44OTIgMTE2Ljg1NiBMIDU3MC4zNzIgMTM3LjE3NiBDIDU3MC4zNzIgMTM3LjE3NiA1OTYuNDEyIDE3MS45MDYgNTk1LjQwMiAxNzYuNTM2IEMgNTk0LjM5MiAxODEuMTY2IDUyMi43OTIgMTQxLjEwNiA1MjIuNzkyIDE0MS4xMDYgTCA1NTkuODgyIDExNi44NDYgTCA1NTkuODkyIDExNi44NTYgWiIgY2xhc3M9ImNscy0zOCIvPiYjeGE7ICA8cG9seWdvbiBzdHlsZT0iZmlsbDogcmdiKDI1NSwgMjAxLCAxNDEpOyBzdHJva2Utd2lkdGg6IDBweDsiIHBvaW50cz0iNDUyLjgxMiA3NS44MjYgNDgwLjE5MiAxMzcuMTc2IDUyMi44MDIgMTQxLjExNiA0NTIuODEyIDc1LjgyNiIgY2xhc3M9ImNscy03OCIvPiYjeGE7ICA8cG9seWdvbiBzdHlsZT0iZmlsbDogcmdiKDIyNywgMCwgMTAzKTsgc3Ryb2tlLXdpZHRoOiAwcHg7IiBwb2ludHM9IjUxMi43MzIgMTk1LjY5NiA0NzEuNjAyIDEzMS4xNTYgNTIyLjgwMiAxNDEuMTE2IDUxMi43MzIgMTk1LjY5NiIgY2xhc3M9ImNscy02NCIvPiYjeGE7ICA8cG9seWdvbiBzdHlsZT0iZmlsbDogcmdiKDcsIDI0LCA1Myk7IHN0cm9rZS13aWR0aDogMHB4OyIgcG9pbnRzPSIyNTYuNjgyIDE3My4zMjYgMjg1LjY2MiAyNzMuMDA2IDI5My43NzIgMTk1LjY5NiAyNjYuMzQyIDE0Ny4wODYgMjU2LjY4MiAxNzMuMzI2IiBjbGFzcz0iY2xzLTU5Ii8+JiN4YTsgIDxwb2x5Z29uIHN0eWxlPSJmaWxsOiB1cmwoJyNsaW5lYXItZ3JhZGllbnQtNDMnKTsgc3Ryb2tlLXdpZHRoOiAwcHg7IiBwb2ludHM9IjI5Ni44NjIgMTI3LjQ2NiAzNDIuNzcyIDIyNi4yODYgMzIxLjQxMiAyODguMTI2IDI5Ni44NjIgMTI3LjQ2NiIgY2xhc3M9ImNscy0zOSIvPiYjeGE7ICA8cG9seWdvbiBzdHlsZT0iZmlsbDogdXJsKCcjbGluZWFyLWdyYWRpZW50LTQ0Jyk7IHN0cm9rZS13aWR0aDogMHB4OyIgcG9pbnRzPSIzNjAuMDIyIDE3MC44NzYgMzc4LjIwMiAyNzguMjg2IDM5Ny45MjIgMzI0LjY1OCA0MDcuNDMyIDIzOS44MTYgMzU3LjkxNyAxNjAuMjI4IiBjbGFzcz0iY2xzLTM0Ii8+JiN4YTsgIDxwb2x5Z29uIHN0eWxlPSJmaWxsOiB1cmwoJyNsaW5lYXItZ3JhZGllbnQtNDUnKTsgc3Ryb2tlLXdpZHRoOiAwcHg7IiBwb2ludHM9IjMxOS44MjIgMTAwLjY0NiAyOTYuODYyIDEzMC4yMDYgMzk0LjYzMiAyMjEuMjA2IDMxOS44MjIgMTAwLjY0NiIgY2xhc3M9ImNscy0zMiIvPiYjeGE7ICA8cG9seWdvbiBzdHlsZT0iZmlsbDogdXJsKCcjbGluZWFyLWdyYWRpZW50LTQ2Jyk7IHN0cm9rZS13aWR0aDogMHB4OyIgcG9pbnRzPSIyNDcuODAyIDY5LjA1NiAyOTYuODYyIDEzMC4yMDYgMzE5LjgyMiAxMDAuNjQ2IDI0Ny44MDIgNjkuMDU2IiBjbGFzcz0iY2xzLTMzIi8+JiN4YTsgIDxwb2x5Z29uIHN0eWxlPSJmaWxsOiByZ2IoNywgMjQsIDUzKTsgc3Ryb2tlLXdpZHRoOiAwcHg7IiBwb2ludHM9IjQwNy42NzUgMjQxLjMwOSAzMjAuMDA5IDEwMS40NTYgMzY1Ljg4NSAxMjIuMDk3IDQwNy42MzggMjQwLjk5MSIgY2xhc3M9ImNscy01OSIvPiYjeGE7ICA8cG9seWdvbiBzdHlsZT0iZmlsbDogcmdiKDI1MCwgMCwgOTcpOyBzdHJva2Utd2lkdGg6IDBweDsiIHBvaW50cz0iNDMyLjk4MiAxOTkuNjg2IDQwNy40MzIgMjM5LjgxNiA0NDguODUyIDMwNi4wMzYgNDMyLjk4MiAxOTkuNjg2IiBjbGFzcz0iY2xzLTU1Ii8+JiN4YTsgIDxwYXRoIGQ9Ik0gMzc4LjIwMiAyNzguMjg2IEMgMzc4LjIwMiAyNzguMjg2IDM5OC4yMjUgMzI1LjQ2NCAzOTguMTU1IDMyNS4wNDMgTCAzNDguNjEyIDM3MC44NDYgTCAzNzguMjAyIDI3OC4yODYgWiIgc3R5bGU9ImZpbGw6IHVybCgnI2xpbmVhci1ncmFkaWVudC00NycpOyBzdHJva2Utd2lkdGg6IDBweDsiIGNsYXNzPSJjbHMtMzciLz4mI3hhOyAgPHBvbHlnb24gc3R5bGU9ImZpbGw6IHVybCgnI2xpbmVhci1ncmFkaWVudC00OCcpOyBzdHJva2Utd2lkdGg6IDBweDsiIHBvaW50cz0iMzYwLjAyMiAxNzAuODc2IDM0Mi43NzIgMjI2LjI4NiAyOTUuMjY5IDEyOS4wNTkgMzYwLjAyMiAxNzAuODc2IiBjbGFzcz0iY2xzLTM1Ii8+JiN4YTsgIDxwb2x5Z29uIHN0eWxlPSJmaWxsOiByZ2IoMjU1LCAxMjMsIDk3KTsgc3Ryb2tlLXdpZHRoOiAwcHg7IiBwb2ludHM9IjM3OC4yMDIgMjc4LjI4NiAzNjAuMDIyIDE3MC44NzYgMzQyLjc3MiAyMjYuMjg2IDM3OC4yMDIgMjc4LjI4NiIgY2xhc3M9ImNscy03MiIvPiYjeGE7ICA8cG9seWdvbiBzdHlsZT0iZmlsbDogcmdiKDI1NSwgMjcsIDc4KTsgc3Ryb2tlLXdpZHRoOiAwcHg7IiBwb2ludHM9IjM5NS41MTIgODMuNzI2IDQ4Ny41NzIgMjQxLjM4NiA0MzIuOTgyIDE5OS42ODYgMzk1LjUxMiA4My43MjYiIGNsYXNzPSJjbHMtODMiLz4mI3hhOyAgPHBvbHlnb24gc3R5bGU9ImZpbGw6IHVybCgnI2xpbmVhci1ncmFkaWVudC00OScpOyBzdHJva2Utd2lkdGg6IDBweDsiIHBvaW50cz0iNDcxLjYwMiAxMzEuMTU2IDQ4Ny42MDkgMjQxLjM4NiA1MTIuNzExIDE5NS42MyA0NzEuNjAyIDEzMS4xNTYiIGNsYXNzPSJjbHMtMzYiLz4mI3hhOyAgPHBhdGggc3R5bGU9ImZpbGw6IHVybCgnI2xpbmVhci1ncmFkaWVudC01MCcpOyBzdHJva2Utd2lkdGg6IDBweDsiIGQ9Ik0gNTM2LjU0MiAzMDIuMTY2IEMgNTQwLjU4MiAzMDYuNTg2IDU0MS4zNDIgMzAyLjE2NiA1NDEuMzQyIDMwMi4xNjYgTCA1MTIuODExIDE5NS4zODMgTCA0ODcuNTYyIDI0MS4zNzYgQyA0ODcuNTYyIDI0MS4zNzYgNTMyLjQ5MiAyOTcuNzM2IDUzNi41MzIgMzAyLjE1NiBMIDUzNi41NDIgMzAyLjE2NiBaIiBjbGFzcz0iY2xzLTQ1Ii8+JiN4YTsgIDxwb2x5Z29uIHN0eWxlPSJmaWxsOiByZ2IoMTEzLCA4MiwgMTUyKTsgc3Ryb2tlLXdpZHRoOiAwcHg7IiBwb2ludHM9IjIzNy41MTIgMTA5LjA0NiAyOTMuNzcyIDE5NS42OTYgMjk2Ljg2MiAxMzAuMjA2IDIzNy41MTIgMTA5LjA0NiIgY2xhc3M9ImNscy01NiIvPiYjeGE7ICA8cG9seWdvbiBzdHlsZT0iZmlsbDogdXJsKCcjbGluZWFyLWdyYWRpZW50LTUxJyk7IHN0cm9rZS13aWR0aDogMHB4OyIgcG9pbnRzPSIyOTYuODYyIDcxLjE4NiAzNjkuMTAyIDEyMy41MTYgMjQ3LjgwMiA2OS4wNTYgMjk2Ljg2MiA3MS4xODYiIGNsYXNzPSJjbHMtNDMiLz4mI3hhOyAgPHBvbHlnb24gc3R5bGU9ImZpbGw6IHJnYigxMCwgMjQsIDM3KTsgc3Ryb2tlLXdpZHRoOiAwcHg7IiBwb2ludHM9IjIzNy41MTIgMTA5LjA0NiAyMjEuOTAyIDIxNC4wNzYgMTM4LjY2MiAxMTcuNjI2IDIzNy41MTIgMTA5LjA0NiIgY2xhc3M9ImNscy02MCIvPiYjeGE7ICA8cG9seWdvbiBzdHlsZT0iZmlsbDogdXJsKCcjbGluZWFyLWdyYWRpZW50LTUyJyk7IHN0cm9rZS13aWR0aDogMHB4OyIgcG9pbnRzPSItNjYuNjI4IDEyMC4wMzYgLTgyLjI3OCAtMzIuMzU0IC02MS42MzggLTk2LjE1NCAtNTAuNjI4IC04LjY4NCAtNjYuNjI4IDEyMC4wMzYiIGNsYXNzPSJjbHMtNDQiLz4mI3hhOyAgPHBvbHlnb24gc3R5bGU9ImZpbGw6IHJnYigyNTUsIDExOSwgMCk7IHN0cm9rZS13aWR0aDogMHB4OyIgcG9pbnRzPSItMTAyLjg1OCAtMjQuMTY0IC04Mi4wMTggLTI5Ljg0NCAtNDIuODY4IC0xNTcuMjA0IC0xMDIuODU4IC0yNC4xNjQiIGNsYXNzPSJjbHMtNzYiLz4mI3hhOyAgPHBvbHlnb24gc3R5bGU9ImZpbGw6IHVybCgnI2xpbmVhci1ncmFkaWVudC01MycpOyBzdHJva2Utd2lkdGg6IDBweDsiIHBvaW50cz0iMzMuODgyIDMyLjcyNiAxMTIuNDYyIDM0LjI5NiAxNDkuMjkyIDAuNzA2IDY5LjQ4MiAxNy41MDYgMzMuODgyIDMyLjcyNiIgY2xhc3M9ImNscy00MiIvPiYjeGE7ICA8cG9seWdvbiBzdHlsZT0iZmlsbDogcmdiKDI1NSwgMTM1LCAxMjQpOyBzdHJva2Utd2lkdGg6IDBweDsiIHBvaW50cz0iLTYuMjY4IC0xNzMuMTE0IDI3LjI4MSAtMjE2LjE2NiAxMC43MzIgLTI1NS40MDQgLTYuMjY4IC0xNzMuMTE0IiBjbGFzcz0iY2xzLTc3Ii8+JiN4YTsgIDxwb2x5Z29uIHN0eWxlPSJmaWxsOiByZ2IoMjU1LCAxNjYsIDApOyBzdHJva2Utd2lkdGg6IDBweDsiIHBvaW50cz0iMTcuNzcyIC0xNDAuMTc0IDguOTMyIC03Ny4yODQgNjkuNjcyIC0yMDEuNDE0IDE3Ljc3MiAtMTQwLjE3NCIgY2xhc3M9ImNscy04NCIvPiYjeGE7ICA8cG9seWdvbiBzdHlsZT0iZmlsbDogcmdiKDEzMiwgMTgzLCAyNTUpOyBzdHJva2Utd2lkdGg6IDBweDsiIHBvaW50cz0iMzYuNDQyIDg2LjExNiA0NC44NjIgMTI1Ljc1NiAtMjIuNTc4IDEyNS43NTYgMzYuNDQyIDg2LjExNiIgY2xhc3M9ImNscy02NiIvPiYjeGE7ICA8Y2lyY2xlIHN0eWxlPSJmaWxsOiByZ2IoMCwgMjgsIDc0KTsgc3Ryb2tlLXdpZHRoOiAwcHg7IiByPSIxOC40MyIgY3k9IjkzLjE0NiIgY3g9IjE4LjAxMiIgY2xhc3M9ImNscy05NiIvPiYjeGE7ICA8cG9seWdvbiBzdHlsZT0iZmlsbDogcmdiKDAsIDQ5LCAxMTYpOyBzdHJva2Utd2lkdGg6IDBweDsiIHBvaW50cz0iMjg1LjYxMiAyNzIuNDA2IDE5NC44ODIgMzYxLjAwNiAxMTYuOTIyIDQ0My44NTYgMjUzLjA3MiAzNTYuOTM2IDI4NS4xMDIgMjc0LjQyNiAyODUuNjEyIDI3Mi40MDYiIGNsYXNzPSJjbHMtOTAiLz4mI3hhOyAgPHBvbHlnb24gc3R5bGU9ImZpbGw6IHJnYig1MSwgNDAsIDExNik7IHN0cm9rZS13aWR0aDogMHB4OyIgcG9pbnRzPSIyMTcuNjkyIDQxNi45ODYgMjkzLjc3MiAzNjQuMjc2IDI4NS42MTIgMjcyLjQwNiAyODUuMTYyIDI3NC4wNzYgMjE3LjY5MiA0MTYuOTg2IiBjbGFzcz0iY2xzLTY4Ii8+JiN4YTsgIDxwb2x5Z29uIHN0eWxlPSJmaWxsOiByZ2IoMjU1LCAxMjMsIDk3KTsgc3Ryb2tlLXdpZHRoOiAwcHg7IiBwb2ludHM9IjMzNC41OTIgLTYwLjEwNCAyNzAuNDMyIC04NS44NTQgMzEwLjE1MiAtODcuNjQ0IDQxMS40MjIgLTYzLjk2NCAzMzQuNTkyIC02MC4xMDQiIGNsYXNzPSJjbHMtNzIiLz4mI3hhOyAgPHBvbHlnb24gc3R5bGU9ImZpbGw6IHJnYigyNTUsIDE2NiwgMCk7IHN0cm9rZS13aWR0aDogMHB4OyIgcG9pbnRzPSIyNDQuODEyIC00MS44MDQgMjcwLjQzMiAtODUuODU0IDMzNC41OTIgLTYwLjEwNCAyNDQuODEyIC00MS44MDQiIGNsYXNzPSJjbHMtODQiLz4mI3hhOyAgPHBvbHlnb24gc3R5bGU9ImZpbGw6IHVybCgnI2xpbmVhci1ncmFkaWVudC01NCcpOyBzdHJva2Utd2lkdGg6IDBweDsiIHBvaW50cz0iMTQ4LjIwMiAtMTAuODM0IDE3MS40OTIgLTM4LjExNCAyNzAuNDMyIC04NS44NTQgMjQ0LjgxMiAtNDEuODA0IDE0OC4yMDIgLTEwLjgzNCIgY2xhc3M9ImNscy00NiIvPiYjeGE7ICA8Y2lyY2xlIHN0eWxlPSJmaWxsOiByZ2IoMjUyLCAyNTIsIDI1Mik7IHN0cm9rZS13aWR0aDogMHB4OyIgcj0iMy43MiIgY3k9IjgzLjcyNiIgY3g9IjE2LjA1MiIgY2xhc3M9ImNscy04OCIvPiYjeGE7PC9zdmc+;" vertex="1" parent="bViVYC_TJQOF8ieiFQaA-127">
          <mxGeometry x="4.746666666666668" y="4.88" width="30.506666666666664" height="30.24" as="geometry" />
        </mxCell>
        <mxCell id="bViVYC_TJQOF8ieiFQaA-140" value="" style="edgeStyle=orthogonalEdgeStyle;rounded=0;orthogonalLoop=1;jettySize=auto;html=1;" edge="1" parent="1" source="bViVYC_TJQOF8ieiFQaA-136" target="bViVYC_TJQOF8ieiFQaA-139">
          <mxGeometry relative="1" as="geometry">
            <Array as="points">
              <mxPoint x="187" y="340" />
              <mxPoint x="224" y="340" />
              <mxPoint x="224" y="327" />
              <mxPoint x="231" y="327" />
            </Array>
          </mxGeometry>
        </mxCell>
        <mxCell id="bViVYC_TJQOF8ieiFQaA-136" value="&lt;font style=&quot;color: rgb(255, 255, 255);&quot;&gt;VM&lt;/font&gt;" style="rounded=1;whiteSpace=wrap;html=1;strokeColor=none;arcSize=21;fillColor=#001135;" vertex="1" parent="1">
          <mxGeometry x="170" y="295.5" width="34.11" height="30" as="geometry" />
        </mxCell>
        <mxCell id="bViVYC_TJQOF8ieiFQaA-143" style="edgeStyle=orthogonalEdgeStyle;rounded=0;orthogonalLoop=1;jettySize=auto;html=1;" edge="1" parent="1" source="bViVYC_TJQOF8ieiFQaA-138">
          <mxGeometry relative="1" as="geometry">
            <mxPoint x="287.05500000000006" y="420" as="targetPoint" />
          </mxGeometry>
        </mxCell>
        <mxCell id="bViVYC_TJQOF8ieiFQaA-138" value="&lt;font style=&quot;color: rgb(255, 255, 255);&quot;&gt;VM&lt;/font&gt;" style="rounded=1;whiteSpace=wrap;html=1;strokeColor=none;arcSize=21;fillColor=#001135;" vertex="1" parent="1">
          <mxGeometry x="270" y="295.25" width="34.11" height="30" as="geometry" />
        </mxCell>
        <mxCell id="bViVYC_TJQOF8ieiFQaA-144" style="edgeStyle=orthogonalEdgeStyle;rounded=0;orthogonalLoop=1;jettySize=auto;html=1;" edge="1" parent="1" source="bViVYC_TJQOF8ieiFQaA-139">
          <mxGeometry relative="1" as="geometry">
            <mxPoint x="280" y="420" as="targetPoint" />
          </mxGeometry>
        </mxCell>
        <mxCell id="bViVYC_TJQOF8ieiFQaA-145" style="edgeStyle=orthogonalEdgeStyle;rounded=0;orthogonalLoop=1;jettySize=auto;html=1;" edge="1" parent="1" source="bViVYC_TJQOF8ieiFQaA-139">
          <mxGeometry relative="1" as="geometry">
            <mxPoint x="180" y="420" as="targetPoint" />
          </mxGeometry>
        </mxCell>
        <mxCell id="bViVYC_TJQOF8ieiFQaA-139" value="&lt;font style=&quot;color: rgb(255, 255, 255);&quot;&gt;OVS&lt;/font&gt;" style="ellipse;whiteSpace=wrap;html=1;fillColor=#001135;strokeColor=none;rounded=1;arcSize=21;" vertex="1" parent="1">
          <mxGeometry x="190" y="354.51" width="62.94" height="29.5" as="geometry" />
        </mxCell>
        <mxCell id="bViVYC_TJQOF8ieiFQaA-163" value="" style="edgeStyle=orthogonalEdgeStyle;rounded=0;orthogonalLoop=1;jettySize=auto;html=1;" edge="1" parent="1" source="bViVYC_TJQOF8ieiFQaA-141" target="bViVYC_TJQOF8ieiFQaA-160">
          <mxGeometry relative="1" as="geometry">
            <Array as="points">
              <mxPoint x="287" y="460" />
              <mxPoint x="238" y="460" />
            </Array>
          </mxGeometry>
        </mxCell>
        <mxCell id="bViVYC_TJQOF8ieiFQaA-141" value="&lt;font style=&quot;color: rgb(255, 255, 255);&quot;&gt;eth1&lt;/font&gt;" style="rounded=1;whiteSpace=wrap;html=1;strokeColor=none;arcSize=21;fillColor=#001135;" vertex="1" parent="1">
          <mxGeometry x="270" y="420.5" width="34.11" height="30" as="geometry" />
        </mxCell>
        <mxCell id="bViVYC_TJQOF8ieiFQaA-161" value="" style="edgeStyle=orthogonalEdgeStyle;rounded=0;orthogonalLoop=1;jettySize=auto;html=1;" edge="1" parent="1" source="bViVYC_TJQOF8ieiFQaA-142" target="bViVYC_TJQOF8ieiFQaA-160">
          <mxGeometry relative="1" as="geometry">
            <Array as="points">
              <mxPoint x="187" y="460" />
              <mxPoint x="238" y="460" />
            </Array>
          </mxGeometry>
        </mxCell>
        <mxCell id="bViVYC_TJQOF8ieiFQaA-142" value="&lt;font style=&quot;color: rgb(255, 255, 255);&quot;&gt;eth0&lt;/font&gt;" style="rounded=1;whiteSpace=wrap;html=1;strokeColor=none;arcSize=21;fillColor=#001135;" vertex="1" parent="1">
          <mxGeometry x="170" y="420.5" width="34.11" height="30" as="geometry" />
        </mxCell>
        <mxCell id="bViVYC_TJQOF8ieiFQaA-153" value="" style="group;aspect=fixed;fillColor=none;strokeColor=none;" vertex="1" connectable="0" parent="1">
          <mxGeometry x="223.94" y="480" width="29" height="29" as="geometry" />
        </mxCell>
        <mxCell id="bViVYC_TJQOF8ieiFQaA-154" value="" style="group" vertex="1" connectable="0" parent="bViVYC_TJQOF8ieiFQaA-153">
          <mxGeometry width="29" height="29" as="geometry" />
        </mxCell>
        <mxCell id="bViVYC_TJQOF8ieiFQaA-155" value="" style="whiteSpace=wrap;html=1;aspect=fixed;fillColor=#001135;strokeColor=none;connectable=1;allowArrows=1;fontFamily=Manrope;fontSource=https%3A%2F%2Ffonts.googleapis.com%2Fcss%3Ffamily%3DManrope;" vertex="1" parent="bViVYC_TJQOF8ieiFQaA-154">
          <mxGeometry width="29" height="29" as="geometry" />
        </mxCell>
        <mxCell id="bViVYC_TJQOF8ieiFQaA-156" value="" style="endArrow=open;html=1;edgeStyle=orthogonalEdgeStyle;rounded=0;endFill=0;startSize=6;endSize=2;strokeColor=#FFFFFF;fontFamily=Manrope;fontSource=https%3A%2F%2Ffonts.googleapis.com%2Fcss%3Ffamily%3DManrope;" edge="1" parent="bViVYC_TJQOF8ieiFQaA-154">
          <mxGeometry width="48.33333333333334" height="48.33333333333334" as="geometry">
            <mxPoint x="2.9" y="11.6" as="sourcePoint" />
            <mxPoint x="10.633333333333335" y="2.9" as="targetPoint" />
            <Array as="points">
              <mxPoint x="10.633333333333335" y="11.6" />
            </Array>
          </mxGeometry>
        </mxCell>
        <mxCell id="bViVYC_TJQOF8ieiFQaA-157" value="" style="endArrow=open;html=1;edgeStyle=orthogonalEdgeStyle;rounded=0;endFill=0;startSize=6;endSize=2;strokeColor=#FFFFFF;fontFamily=Manrope;fontSource=https%3A%2F%2Ffonts.googleapis.com%2Fcss%3Ffamily%3DManrope;" edge="1" parent="bViVYC_TJQOF8ieiFQaA-154">
          <mxGeometry width="48.33333333333334" height="48.33333333333334" as="geometry">
            <mxPoint x="10.633333333333335" y="26.1" as="sourcePoint" />
            <mxPoint x="2.9" y="18.366666666666667" as="targetPoint" />
            <Array as="points">
              <mxPoint x="10.633333333333335" y="18.366666666666667" />
            </Array>
          </mxGeometry>
        </mxCell>
        <mxCell id="bViVYC_TJQOF8ieiFQaA-158" value="" style="endArrow=open;html=1;edgeStyle=orthogonalEdgeStyle;rounded=0;endFill=0;startSize=6;endSize=2;strokeColor=#FFFFFF;fontFamily=Manrope;fontSource=https%3A%2F%2Ffonts.googleapis.com%2Fcss%3Ffamily%3DManrope;" edge="1" parent="bViVYC_TJQOF8ieiFQaA-154">
          <mxGeometry width="48.33333333333334" height="48.33333333333334" as="geometry">
            <mxPoint x="17.4" y="2.9" as="sourcePoint" />
            <mxPoint x="26.1" y="11.6" as="targetPoint" />
            <Array as="points">
              <mxPoint x="17.4" y="11.6" />
            </Array>
          </mxGeometry>
        </mxCell>
        <mxCell id="bViVYC_TJQOF8ieiFQaA-159" value="" style="endArrow=open;html=1;edgeStyle=orthogonalEdgeStyle;rounded=0;endFill=0;startSize=6;endSize=2;strokeColor=#FFFFFF;fontFamily=Manrope;fontSource=https%3A%2F%2Ffonts.googleapis.com%2Fcss%3Ffamily%3DManrope;" edge="1" parent="bViVYC_TJQOF8ieiFQaA-154">
          <mxGeometry width="48.33333333333334" height="48.33333333333334" as="geometry">
            <mxPoint x="26.1" y="18.366666666666667" as="sourcePoint" />
            <mxPoint x="17.4" y="26.1" as="targetPoint" />
            <Array as="points">
              <mxPoint x="17.4" y="18.366666666666667" />
            </Array>
          </mxGeometry>
        </mxCell>
        <mxCell id="bViVYC_TJQOF8ieiFQaA-160" value="SRLinux" style="text;html=1;align=center;verticalAlign=middle;resizable=0;points=[];autosize=1;fontSize=8;fontFamily=Google Sans;fontColor=#001135;fontSource=https%3A%2F%2Ffonts.googleapis.com%2Fcss%3Ffamily%3DGoogle%2BSans;" vertex="1" parent="1">
          <mxGeometry x="212.94" y="510" width="50" height="20" as="geometry" />
        </mxCell>
        <mxCell id="bViVYC_TJQOF8ieiFQaA-167" value="" style="endArrow=classic;startArrow=classic;html=1;rounded=0;exitX=0.75;exitY=1;exitDx=0;exitDy=0;entryX=1;entryY=0.5;entryDx=0;entryDy=0;fillColor=#d5e8d4;strokeColor=#82b366;" edge="1" parent="1" source="bViVYC_TJQOF8ieiFQaA-141" target="bViVYC_TJQOF8ieiFQaA-155">
          <mxGeometry width="50" height="50" relative="1" as="geometry">
            <mxPoint x="299.64000000000004" y="480" as="sourcePoint" />
            <mxPoint x="269.99807757166946" y="505.5" as="targetPoint" />
            <Array as="points">
              <mxPoint x="290" y="480" />
            </Array>
          </mxGeometry>
        </mxCell>
        <mxCell id="bViVYC_TJQOF8ieiFQaA-168" value="" style="endArrow=classic;startArrow=classic;html=1;rounded=0;exitX=0.25;exitY=1;exitDx=0;exitDy=0;entryX=0;entryY=0.5;entryDx=0;entryDy=0;fillColor=#d5e8d4;strokeColor=#82b366;" edge="1" parent="1" source="bViVYC_TJQOF8ieiFQaA-142" target="bViVYC_TJQOF8ieiFQaA-155">
          <mxGeometry width="50" height="50" relative="1" as="geometry">
            <mxPoint x="310" y="460" as="sourcePoint" />
            <mxPoint x="263" y="505" as="targetPoint" />
            <Array as="points">
              <mxPoint x="190" y="480" />
            </Array>
          </mxGeometry>
        </mxCell>
        <mxCell id="bViVYC_TJQOF8ieiFQaA-169" value="&lt;font style=&quot;font-size: 10px; color: rgb(151, 208, 119);&quot;&gt;LLDP&lt;/font&gt;" style="text;strokeColor=none;align=center;fillColor=none;html=1;verticalAlign=middle;whiteSpace=wrap;rounded=0;" vertex="1" parent="1">
          <mxGeometry x="280" y="470" width="60" height="30" as="geometry" />
        </mxCell>
        <mxCell id="bViVYC_TJQOF8ieiFQaA-170" value="&lt;font style=&quot;font-size: 10px; color: rgb(151, 208, 119);&quot;&gt;LLDP&lt;/font&gt;" style="text;strokeColor=none;align=center;fillColor=none;html=1;verticalAlign=middle;whiteSpace=wrap;rounded=0;" vertex="1" parent="1">
          <mxGeometry x="144" y="470" width="60" height="30" as="geometry" />
        </mxCell>
        <mxCell id="bViVYC_TJQOF8ieiFQaA-173" style="edgeStyle=orthogonalEdgeStyle;rounded=0;orthogonalLoop=1;jettySize=auto;html=1;endArrow=none;startFill=0;" edge="1" parent="1" source="bViVYC_TJQOF8ieiFQaA-172" target="bViVYC_TJQOF8ieiFQaA-35">
          <mxGeometry relative="1" as="geometry" />
        </mxCell>
        <mxCell id="bViVYC_TJQOF8ieiFQaA-175" style="edgeStyle=orthogonalEdgeStyle;rounded=0;orthogonalLoop=1;jettySize=auto;html=1;endArrow=none;startFill=0;" edge="1" parent="1" source="bViVYC_TJQOF8ieiFQaA-172" target="bViVYC_TJQOF8ieiFQaA-174">
          <mxGeometry relative="1" as="geometry">
            <Array as="points">
              <mxPoint x="440" y="260" />
            </Array>
          </mxGeometry>
        </mxCell>
        <mxCell id="bViVYC_TJQOF8ieiFQaA-172" value="&lt;font style=&quot;color: rgb(255, 255, 255);&quot;&gt;Connect&lt;/font&gt;&lt;div&gt;&lt;font style=&quot;color: rgb(255, 255, 255);&quot;&gt;OpenStack&lt;/font&gt;&lt;/div&gt;&lt;div&gt;&lt;font color=&quot;#ffffff&quot;&gt;ML2 Plugin&lt;/font&gt;&lt;/div&gt;" style="rounded=1;whiteSpace=wrap;html=1;strokeColor=none;arcSize=21;fillColor=#001135;" vertex="1" parent="1">
          <mxGeometry x="490" y="222.88" width="80" height="55.25" as="geometry" />
        </mxCell>
        <mxCell id="bViVYC_TJQOF8ieiFQaA-174" value="&lt;font color=&quot;#ffffff&quot;&gt;OpenStack Networking&lt;/font&gt;" style="rounded=1;whiteSpace=wrap;html=1;strokeColor=none;arcSize=21;fillColor=#001135;" vertex="1" parent="1">
          <mxGeometry x="400" y="295.5" width="80" height="55.25" as="geometry" />
        </mxCell>
        <mxCell id="bViVYC_TJQOF8ieiFQaA-177" style="edgeStyle=orthogonalEdgeStyle;rounded=0;orthogonalLoop=1;jettySize=auto;html=1;entryX=0.118;entryY=0.063;entryDx=0;entryDy=0;entryPerimeter=0;" edge="1" parent="1" source="bViVYC_TJQOF8ieiFQaA-176" target="bViVYC_TJQOF8ieiFQaA-174">
          <mxGeometry relative="1" as="geometry">
            <Array as="points">
              <mxPoint x="410" y="152" />
              <mxPoint x="410" y="296" />
              <mxPoint x="409" y="296" />
            </Array>
          </mxGeometry>
        </mxCell>
        <mxCell id="bViVYC_TJQOF8ieiFQaA-179" style="edgeStyle=orthogonalEdgeStyle;rounded=0;orthogonalLoop=1;jettySize=auto;html=1;entryX=0.5;entryY=0;entryDx=0;entryDy=0;" edge="1" parent="1" source="bViVYC_TJQOF8ieiFQaA-176" target="bViVYC_TJQOF8ieiFQaA-129">
          <mxGeometry relative="1" as="geometry" />
        </mxCell>
        <mxCell id="bViVYC_TJQOF8ieiFQaA-176" value="" style="shape=image;verticalLabelPosition=bottom;labelBackgroundColor=default;verticalAlign=top;aspect=fixed;imageAspect=0;image=data:image/png,iVBORw0KGgoAAAANSUhEUgAAAfQAAAH0CAYAAADL1t+KAAAACXBIWXMAAC4jAAAuIwF4pT92AAAgAElEQVR4nO3dX2yd533Y8Z/XIn8A0YduhixMYZq5MLcBIsRIdZFMhHmKbu0m0hXbYZgoazA9TAMNBQut1RAiAxVloEIFBzJd1DARDSgFKKIuioKaRSFAEewcQ0SCImJIiFfkRfQHCIcB63goXsS+8S5kJW4S26L4nD/vcz6fGyMF/PBFzzG/fJ73eZ/3sXjimQ8CACi0f9LsCwAAdk7QASADgg4AGRB0AMiAoANABgQdADIg6ACQAUEHgAwIOgBkQNABIAOCDgAZEHQAyICgA0AGBB0AMiDoAJABQQeADAg6AGRA0AEgA4IOABkQdADIgKADQAYEHQAyIOgAkAFBB4AMCDoAZEDQASADgg4AGRB0AMiAoANABgQdADIg6ACQAUEHgAwIOgBkQNABIAOCDgAZEHQAyICgA0AGBB0AMiDoAJABQQeADAg6AGRA0AEgA4IOABkQdADIgKADQAYEHQAyIOgAkAFBB4AMCDoAZEDQASADgg4AGRB0AMiAoANABgQdADIg6ACQAUEHgAwIOgBkQNABIAOCDgAZEHQAyICgA0AGBB0AMiDoAJABQQeADAg6AGRA0AEgA4IOABkQdADIgKADQAYEHQAyIOgAkAFBB4AMCDoAZEDQASADv9nsCwC2rzywLzpLu6J/d290ljqiv683IiI6Sx2xZ/fTDzXG8spabNTuRUTE0s3V2Kjdi6WV1diobUXl+o26XTtQH4/FE8980OyLAH69zlJHlAf2Rv/u3igP7Iv+vt4oPb6rIT+7trkVSzdXo3L9RiytrEbl+uLP/wAAWo+gQwvpLHXEyNBglPfvi/LA3njqya5mX9I/cvvuelSuL0Zl4UbMzVcFHlqIoEOT9XR3xchQOcZGhx96ubxVLK+sxczs1Zibr8StO+vNvhxoa4IOTVDkiH8ccYfmEnRooJGhwRgbHY6DBwabfSl1deVa9cO4V5t9KdA2BB3qrLPUERPjh2Ls8HDL3ROvt9t312Pm0tWYmr7sfjvUmaBDnfR0d8XY6HBMvDTasJ3praq2uRVTb8/GzOxVy/FQJ4IOiXWWOmLyxNH45vihZl9KS3pz+nJMnj1vxg6JCTok8mBp3Yz80z2YsVuKh3QEHRIYOzwcU2eOC/k21Ta3YuLkuZi5dLXZlwKFJ+iwA/19vTF15ngM7t/b7EsptOrCYkycPBdLN1ebfSlQWF7OAo9o8sTR+HH1opgnMLh/b/y4ejEmTxxt9qVAYZmhwzb19/XGzFunsjkQptUsr6zF2LHTZuuwTWbosA0PZuViXj97dj9ttg6PwAwdHkJnqSPmLr5ueb3BqguLMXLkFTvh4SEIOnyK/r7eqLwzXZgd7A9ee/pJGvka1p2qbW5F+blxS/DwKQQdPsHY4eH467/6s2Zfxq9YXlmLpZurcevOT2NpZTU2altRuX7jkcYqD+yLztKu6N/dGz3dX47+vt6WvKXw4jde83gbfAJBh48x89apeGF0qNmXERH3l54r129E5cN/NkJ5YF+U9++N8sC+lrnVcGF2PsaOnW72ZUBLEnT4JZ2ljpg6c7ypMa9tbsXcfDXmrlVa5o1lI0ODMXKgHCNDg01drr8wOx8TJ8+5rw6/RNDhIzpLHVF5Z7ppS84XZudbKuIf50Hcm/VHz/LKWpSfGxd1+AhBhw81K+a3767H1PTlmLl0tXCB6ix1xNjh4ZgYP9TwV8OKOvxjgg7RnJhXFxZjZvZqNhu9xg4Px9jocEPvt4s6/IKg0/YaHfPllbWYOHmuYZvbGq08sC+mzhxv6P8/RR0EnTbXyJjfvrsek2fPZzMj/zRjh4dj8sTRhizFizoIOm2skTE/ffZ8W777+8E74k814BhXUafd/UZ8/rcnm30R0AzT574Vf/j7X6vrz6guLMbv/dF4zF2rxs/ee7+uP6sV/ey996OysBgXZq/GV/v+efR012+2/qUvfiG6/tk/jblrrf2EANSLoNOW6n1oTG1zK7712lsxfvwvYqO2VbefUxQbta2Ymb0atc2t+PozffG5z36mLj+nv683nih1xPe+/4O6jA+tTNBpO2OHh+u6BLy8shYjR15p+WfJm+GHP1qJ733/B/H1Z/riS1/8Ql1+xtd+Z3fcvrvu7HfajnvotJX+vt74cfVi3cZ3itnDacRpfF8dPCLqtBVBp210ljri1vKVuh1b6uUh21fPl9/UNreiZ89Bf1zRNv5Jsy8AGmXu4ut1iXltcyt+749eEvNHMHPpavzeH70Utc30+wxKj++KuYuvJx8XWpWg0xYmXhqtywlmD97VneshMY1QuX4jys+N1yXqg/v3xsRLo8nHhVZkyZ3s1eu++f3Nb38at+6sJx+7HfV0d8XcxW/X5VwA99NpB4JO9pbe/W7ySDjEpD7qddjP8spa9D/7fNIxodVYcidrkyeOinmBbNTuRfm58VheWUs67p7dT8dkA06rg2YyQydb9Vhqr21uRf+zz1tmr7Oe7q5Yeve7yTcxWnonZ2boZGvqzPGk4z3YACfm9XfrznpdNsql/k5AKxF0sjR2OP17uUeOvGJ210BLN1dj5MgrSccc3L83xg4PJx0TWoWgk53OUkfy+6UvfuM1j6Y1QeX6jXjxG68lHXPyxNHoLHUkHRNagaCTnYnxQ0nfwX1hdt6hMU00c+lqXJidTzbeU092xcT4oWTjQauwKY6spD7e1Y721pD6cTbHwpIjM3SyMjF+KOnO6LFjp/3SbwEbtXsxdux0svFKj+8ySyc7gk42OksdSY/5fPnVN2yCayFLN1fj5VffSDbexEuj7qWTFUEnGyln59WFxZh6ezbJWKQz9fZsVBcWk4xllk5u3EMnC6nvnX+l/6DnzVtUT3dX/GTpSpKx3EsnJ2boZGHs8HCymJ8+e17MW9itO+tx+uz5JGOVHt/luXSyYYZOFm4tX0nyqNrtu+vR/+wRM7YW11nqiKV3Lyb7zHv2HExwVdBcZugU3sjQYLLnzifPnhfzAtio3YvJRLP0p57sipGhwSRjQTMJOoU3NppmyXR5Zc0BMgUyc+lqsreypfoOQTMJOoXW090VBw+kmV1NnDyXZBwaJ9VndvDAYPR0pztdEJpB0Cm0kaFyknGWV9ac1V5Ales3ks3SU32XoFkEnUJLtVQ6Ne2Z86JK9dlZdqfo7HKnsFI9j2yXc/GlesrB+QMUmRk6hZVqiXRq+nKScWieVJ+hZXeKTNAprFRLpHa2F1+qz9CyO0Um6BRSZ6kjyas0L8zOe+48Axu1e0nemb5n99Ne2EJhCTqFVB7Ym2ScuWuVJOPQfKk+y1TfLWg0QaeQRg6UdzxGbXMr5uarO78YWsLcfDVqm1s7HifFdwuaQdAppBSzKDHPT4rPtL+vN8GVQOMJOoXTWepI8oiS5fb8pPhM3UenqASdwkl1j7NyfTHJOLSOVJ+p++gUkaBTOP27d74kWl1YtLs9Qxu1e1Fd2HnUU3zHoNEEncIpD+zb8RjObc9Xis82xXcMGk3QKZwUb8WqJJjF0ZpSfLbevEYROcudwvngH/5+x2M89lu/m+BKaFW+I7QjM3QKJcVSaKrXbdK6UnzGlt0pGkGnUDpLu3Y8xq07P01wJbSyFJ9xiu8aNJKgUygpdh8v3VxNcCW0shSfsZ3uFI2g03aWVgQ9dz5j2pGgUygp7mtu1HZ+3jetLcVn7B46RSPotB1L7vnzGdOOBJ2244S4/PmMaUeCTqEM7nfGNo3hu0bRCDptJcU53xSDz5p2I+gAkAFBB4AMCDoAZEDQASADgg4AGRB0AMiAoANABgSdtuKwkPbhs6bdCDqF4rAQGsV3jaIRdNpOZ6mj2ZdAnfmMaUeCTtvp7+tt9iVQZz5j2pGgUyiV6zd2PEZnaVeCK6GVpfiMU3zXoJEEnbbTv9vsLXc+Y9qRoFMoSyurOx7Dcmz+UnzGKb5r0EiCTqFs1LZ2PEZP95cTXAmtLMVnnOK7Bo30WDzxzAfNvgjYjg/+4e93PMYTX/n92KjdS3A1tJrOUkf8v598f8fjPPZbv5vgaqBxzNApnNt313c8hmX3fKX4bFN8x6DRBJ3CWbq583ubZaeIZSvFZ5viOwaNJugUTpKgD+xLcCW0ohSfraBTRIJO4VQSHMk5uH+v08Qy1FnqSHKGe4rvGDSaoFM4qWZP5QHL7rlJ9ZmaoVNEgk7hbNTuxfLK2o7HGTlQ3vnF0FJSfKbLK2uegKCQBJ1CSnEs58jQYIIroZWk+Ewd+UpRCTqFVFnY+S/d0uO7RD0jI0ODUXo8wRnuCb5b0AyCTiFVrqfZtDQ2OpxkHJov1WeZ6rsFjSboFNJG7V5UE+xEPnhg0G73DHSWOuLggZ2vtlQXFt0/p7AEncKau1ZNMs7E+KEk49A8qT7DVN8paAZBp7Dm5itJxhk7bNm96FJ9hqm+U9AMgk5h3bqznuTxtaee7BL1Ahs7PBxPPdm143GWV9bi1h1nuFNcgk6hzcxeTTLO5ImjScah8VJ9dqm+S9Asgk6hzVxK80vYLL2YUs3OI9J9l6BZBJ1C26jdiyuJNjKZpRdPqs/syrWq3e0UnqBTeKmWSs3SiyXp7NxyOxl4LJ545oNmXwTs1K3lK0l+udc2t6Jnz0GztRbXWeqIW8tXkpwMd/vuevTsOZjgqqC5zNDJwtT05STjlB7f5bn0ApgYP5Qk5hHpvjvQbGboZCHljC0i4quDR7xCs0X19/XGj6sXk4xlRYacmKGThY3avZh6ezbZeDNvnUo2Fmml/Gym3p4Vc7Ih6GRjavpy1Da3koy1Z/fTdr23oMkTR2PP7qeTjFXb3LLcTlYEnWyknqWfOnE0+vt6k43HzvT39caphH9kmZ2TG/fQyUrqe+nLK2tRfm7cL/4m6yx1ROWd6aSzc/fOyY0ZOllJPUvfs/vpmDpzPNl4PJqpM8eTxTzC7Jw8CTrZmZq+HLfvpnvJxgujQzHx0miy8dieiZdG44XRoWTj3b677t45WRJ0srNRuxcTJ88lHfONP385RoYGk47JpxsZGow3/vzlpGNOnDxndk6WBJ0szc1Xo7qwmHTMmbdO2STXQP19vckfH6wuLMbcfJqz/6HV2BRHtnq6u+InS1eSjlnb3Iryc+MOnamz/r7eqLwznWxz4wNf6T/onedkywydbN26sx6nz55POmbp8V1ReWc6errTvBSEX9XT3VWXmJ8+e17MyZoZOtlbeve7SXdIR9x/nG3kyJ8KRGI93V0xd/Hbdfm8+p99PumY0GoEneylPPv7oyy/p1WvZfYIZ/PTHiy5k72lm6vx8qtvJB/3wfK7jXI7V8+Yv/zqG2JOWxB02sLU27Nx5Vr63c0Pou6Rtkc3MjRYt5hfuVZNetAQtDJL7rSNzlJHLL17MZ56sj4b2l5+9Q3x2KaJl0aTP2f+wO2769H/7BHPnNM2BJ22Us+l3Yj7M8KxY6+JyKfoLHXEzFt/FgcP1Gdlw/4G2pEld9rK0s3V5KfIfdTBA4Ox9O5F99U/QX9fbyy9e7FuMY+4fxqcmNNufiM+/9uTzb4IaKSlm6vxRKkjvvY7u+syfmepI8Zf/JN4LCIqiU+rK7rJE0dj9n/8eXSWOur2M96cvhx/MXWhbuNDqxJ02tL3vv+D+Er3l+s6ky4P7Is/HirHD3+0Ev/7//zfuv2cIujv643v/c1fxn/8k39T159zYXY+xv/7X9T1Z0Crcg+dtlaPQ2d+ndNnz8fU9OW2u7feWeqIifFDcerE0br/LIfH0O4EnbbWWeqIyjvTDYl6bXMrJk6ei5lLV+v+s1rB2OHhmDpzvG4bED9qeWUtys+Nt90fTPBRgk7ba2TUI+4/TjV59ny2YR87PByTJ47W7fHAXybmcJ+gQzQ+6hH5hb3RIY8Qc/goQYcPNSPqEffDPnPpaszMXi3cy156urtibHQ4xg4PNzTkEWIOv0zQ4SOaFfUHrlyrxszs1ZibT39MbUojQ4MxNjpc12fJP4mYw68SdPg1Zt46FS+MDjXt59c2t2JuvhqVhRsxN19terg6Sx0xMjQY5f37YmRosCEb3T7Ohdn5GDt2umk/H1qVoMPHmDpzPL45fqjZlxER92ekc/OVqCwsxtLN1boHvrPUEf19vVHevzdGhspNW7H4ZafPno/Js+ebfRnQkgQdPkEjH73ajtt312Pp5mos3VyNW3fX49ad9bh156fbvgff090VPd1fvv/PJ7uiv683+vt6G34//NO02yN/8CgEHT5Ff19vzF18veUi90mWV9Y+dhbfWepomRn3w7h9dz1GjrzibHb4FIIOD6Hebwfj1/P2Onh4znKHh/Cz996Py3/7d1Hb3IqvP9MXn/vsZ5p9SVmrbW7Ft157KyZOnoufvfd+sy8HCsEMHbapv683Zt46Vahl6yJZXlmLsWOnLbHDNnkfOmzT0s3V6H/2+Thtt3Vyp8+ej/5nnxdzeARm6LADPd1dMfPWqRjcv7fZl1Jo1YXFGDt2unAn5UErEXRIYGRoMKbOHC/UTvhWcPvuekycPNfyJ+NBEQg6JDR54mhMvDTacs+tt5ra5lZMvT3rkBhISNAhsc5SR0yMHxL2X+NByKemL3sUDRITdKgTYf8FIYf6E3SoswcvNmn0u8JbwYN3vrfCC2Ygd4IODVQe2Bdjo8NNfZNbI1yYnY+Z2atRuX6j2ZcCbUPQoQk6Sx0xdng4xkaHszmgZnllLWZmr8bMpatm49AEgg5N1tPdFSND5Sjv31u4s+KvXKtGZWEx5uYrniGHJhN0aCGdpY4oD+yN8v59UR7Y13Kz9+WVtahcvxGVhRtRub5oJg4tRNChhXWWOqK/rzfK+/c2/F3lH33nemVhMZZurgo4tDBBhwLq7+u9P5v/8MjZB/874v4S/qdF//bd9Z8vkW/U7v387PTKwuI/+t9AcQg6AGTA29YAIAOCDgAZEHQAyICgA0AGBB0AMiDoAJABQQeADAg6AGRA0AEgA4IOABkQdADIgKADQAYEHQAyIOgAkAFBB4AMCDoAZEDQASADgg4AGRB0AMiAoANABgQdADIg6ACQAUEHgAwIOgBkQNABIAOCDgAZEHQAyICgA0AGBB0AMiDoAJABQQeADAg6AGRA0AEgA4IOABkQdADIgKADQAYEHQAyIOgAkAFBB4AMCDoAZEDQASADv9nsC6C4ygP77v9z/96IiOjv643OUkdERPR0d8VTT3Y17dqglS2vrMVG7V5ERNy6sx637vw0Nja3YunmamzU7sXSzdUmXyFF9Fg88cwHzb4IWltnqSPKA3ujf3dvlAf2iTU0wPLKWty689NYurkalYXFqFy/0exLosUJOr+ip7srygP7orx/X5QH9oo3tIjllbWoXL8RlYUbMTdfbfbl0GIEnYi4v1w+cmAwRobKsWf3082+HOAhXLlWjcrCYszNV+LWnfVmXw5NJuhtrKe7KybGR2NkaNAsHApueWUtpqZnY26++vP787QXQW8znaWOGBkajInxUTNxyNSVa9WYmb1qWb7NCHqbeDAbHzs8HKXHdzX7coAGuH13PaamL8fMpatm7W1A0DNXHtgXY6PD8cLoULMvBWiS2uZWTL09G1PTl4U9Y4KeqfLAvpg8cTQGP3xGHCAi4s3pyzF59rywZ0jQM9PT3RVTZ47HwQODzb4UoEWZsedJ0DPRWeqIyRNH45vjh5p9KUBB1Da3YuLkuZi5dLXZl0ICgp6BscPDMXXmuM1uwCNZXlmLiZPnnEZXcIJeYD3dXTHz1in3yYEk3F8vNkEvqImXRmPyxFGzciCp23fXY+zYa2brBSToBWNWDjTCm9OXY+LkuWZfBtvgfegFMjI0GEvvflfMgbr75vihWHr3u9Hf19vsS+EhmaEXxNSZ44XbwX777roXRsAv6e/rLdStMjvhi0PQW1xnqSMq70y35LnrH31f89LKamzUtmLp5qoNNfCQ+vt6o7PUET3dXdHz5P3XFvd0d7Xky5Iswbc+QW9h/X29MXfx9Zb5j7u6sPjhu5gXbZiBOuosdUR5YG+U9++L8sC+lvmD/sq1aowde80f7S1K0FtUeWBfzF18valLc7fvrsfcfDUqCze8tQma6MFbEsv798XI0GBTfy8sr6xF+blxUW9Bgt6Cxg4Px1//1Z815WfXNrdibr4aU9OzsXRztSnXAHyykaHBGBsdbtoRz7XNrSg/N+53RIsR9BbTrJhXFxZjZvaqjS9QIJ2ljpgYPxRjh4cbfmtO1FuPoLeQZsT8wux8zMxedU8cCm7s8HBMjI829H67qLcWQW8RjY75hdn5mDz7HY+VQWYa/epkUW8dgt4CGhnz6sJiTJw85z8+yNzY4eGYPHG0IUvxot4aBL3JGhVz5zNDe5o8cTQmXhqt+854UW8+QW+iRsX89NnzMTV92WMm0KZ6urti6szxuu+Kr21uRc+eg37XNImgN0l/X29U3pmu61/NyytrMXbstL+YgYi4/7jbzFun6v57x3PqzeHlLE3Q091V95i/OX05+p99XsyBn5ubr0b/s89HdWGxbj9jz+6nY+7i63Ubn4/3G/H5355s9kW0k85SR3zvb/6ybhtVaptbMfpfXo2p6ct1GR8oto3aVszMXo3H4v6O+Hro6e6KJ0od8b3v/6Au4/PrCXqDTZ/7Vvzh73+tLmM/WOr64Y9W6jI+kI/KwmIsr6zGv/vX/yo+99nPJB//a7+zO27fXbdK2ECW3Bto7PBwvDA6VJexL8zOR/m5cc+VAw9tbr4a5efGY3llrS7jT5057n3qDWRTXIPUcxPchdn5GDt2Ovm4QHuo52uabZJrHEvuDdBZ6oi5i9+uy33zF7/xWkyePZ98XKB9/Oy99+Py3/5d/MvenvgXT/ckHftLX/xCfP5zn3U/vQEsuTfA5ImjdfnL98VvvOZlKkASG7V7MXLklbgwO5987G+OH6rbBjx+wZJ7nZUH9sX/+p9vJx9XzIF6mXnrVPL9Prfvrkf/s0csvdeRJfc6uv+I2pvRWepIOq6YA/U0d60aX+3rTbr83lnqsPReZ5bc62hi/FDy++ZvTl8Wc6Duxo69lnz3u6X3+rLkXic93V3xk6UrSce0mx1opHrsfl9eWYv+Z59PNh6/YMm9TuYufjt6utPNzpdX1uLf/of/lmw8gE/zs/fejx/+aCVG//0fJDt85ktf/ELUNrccgFUHZuh1kHojnDcYAc3kd1oxmKHXQeWd6aQb4b7+B//ZCXBA09y6s5707PfPffYz8d5770elji+JaUc2xSU2dng46Ua4l199w1nIQNNNnj2f9C1tp04cTXpbEkFPbvLE0WRjVRcWY+rt2WTjAezEyJFXora5lWy8yRP/NdlYCHpSKWfntc0tO9qBlrJRu5f099ILo0Nm6QkJekIpZ+eTZ8+7bw60nLn5aly5Vk02nll6OoKeSMrZuaV2oJVNnDyXbOl9ZGgw+Wma7UrQExkbHU421sTJc8nGAkjt1p31ZG95LD2+KybGDyUZq90JegL9fb0xuH9vkrHenL5sVzvQ8qbeno3bd9PcFhw7nG5C1M4EPYGJ8dEk49Q2t7zbHCiMVKuJTz3ZFSNDg0nGameCvkOdpY5kX8Spt2ednAQUxtx8Ndmz6SlvW7YrQd+hkaHBKD2+a8fj1Da3Ymr6coIrAmicVKuKBw8MeoRthwR9h1L9VWl2DhRR5fqNZLP0kaFyknHalaDvQE93V5LNcGbnQJFNTad5zNay+84I+g6k+mtybr5qdg4U1tx8NcmO9z27n7bsvgOCvgMjB9Jshps8+50k4wA0S6pVRsvuj07QH1FnqSPJcnt1YdERr0DhzVy6mmScVBOldiTojyjVo2ozs2n+IwBopo3avbgwO7/jcQb373UU7CMS9EdU3r9vx2PUNrdibj7dSw4AmmnuWiXJOOWBNCdvthtBf0QpvnA2wwE5mZuvJnlpS4oJUzsS9EfQ092V5M1qqf6aBWgVKVYdywOC/igE/RGk+rJVrqc5jAGgVaSYqOzZ/bT76I9A0B9B/+7eHY9RXVi03A5kJ9VEpb9v579n242gP4IUX7S5azbDAfnZqN1LchRsOdErqduJoD+CFM+fV67fSHAlAK0nxe83M/TtE/RtSvUlW7q5mmQcgFZTSTBDF/TtE/RtSnHOcKo3EwG0ohQTlhRPErUbQd+mFBvizM6BnG3U7sXyytqOx/H42vYI+jb1dH95x2MsrQg6kLdbd3664zE6S7sSXEn7EPRtSrHk7mUsQO5SrESmWBFtJ4K+TSmCboc7kDsrkY0n6Nu0040aKc45Bmh1G7UEZ7q7h74tgt5gNsQB7cDvusYT9G3wXCTAw3G0deMJ+jakeFmAv1qBdrHTW4wpTuVsJ4LeYP5qBdqFCUxjCToAZEDQASADgg4AGRB0AMiAoANABgQdADIg6ACQAUEHgAwIOgBkQNABIAOCDgAZEHQAyICgA0AGBB0AMiDoAJABQQeADAg6AGRA0AEgA4IOABkQdADIgKADQAYEHQAyIOgAkAFBB4AMCDoAZEDQASADgg4AGRB0AMiAoANABgQdADIg6ACQAUEHgAwIOgBkQNABIAOCDgAZEHQAyICgA0AGBB0AMiDoAJABQQeADAg6AGRA0AEgA4IOABkQdADIgKADQAYEHQAyIOgAkAFBB4AMCDoAZEDQASADgg4AGRB0AMiAoANABgQdADIg6ACQAUEHgAwIOgBkQNABIAOCDgAZEHQAyICgA0AGBB0AMiDoAJABQQeADAg6AGRA0AEgA4IOABkQdADIgKA32MbmVrMvAYAMCfo2bNTu7XiMpZurCa4EoPVVrt/Y0b9/++56oitpD4K+DUs3V3f0Battbu34Cw5QFHPXqjv69yvXFxNdSXsQ9G2auXT1kf/dqbdnE14JQGvb6SRo8ux3El5N/gR9mybPno/llbVt/3u3767H1PTlOlwRQOsaO/baI/17b05fjlt3LLlvh6A/gpEjf5AY70YAAAHsSURBVBq1bWxuq21uxciRV5Lcgwcoksr1G/HiN7YX9SvXqjFx8lydrihfgv4Ibt1Zj549B6O68On3d5ZX1qL83LjNcEDbmrl0Nf74P73yUBOhN6cvx8iRVxpwVfl5LJ545oNmX0SRlQf2xcT4oSgP7IvS47si4heb3+auVXd0zx0gJ52ljhg7PBwjBwZjcP/en//fb99dj8r1xZg8+x3L7Dsg6ACQAUvuAJABQQeADAg6AGRA0AEgA4IOABkQdADIgKADQAYEHQAyIOgAkAFBB4AMCDoAZEDQASADgg4AGRB0AMiAoANABgQdADIg6ACQAUEHgAwIOgBkQNABIAOCDgAZEHQAyICgA0AGBB0AMiDoAJABQQeADAg6AGRA0AEgA4IOABkQdADIgKADQAYEHQAyIOgAkAFBB4AMCDoAZEDQASADgg4AGRB0AMiAoANABgQdADIg6ACQAUEHgAwIOgBkQNABIAOCDgAZEHQAyICgA0AGBB0AMiDoAJABQQeADAg6AGRA0AEgA4IOABkQdADIgKADQAYEHQAyIOgAkAFBB4AMCDoAZEDQASADgg4AGRB0AMiAoANABgQdADIg6ACQAUEHgAwIOgBkQNABIAOCDgAZEHQAyICgA0AGBB0AMiDoAJABQQeADPx/tTRXQB5dNhUAAAAASUVORK5CYII=;" vertex="1" parent="1">
          <mxGeometry x="570" y="140" width="23.5" height="23.5" as="geometry" />
        </mxCell>
        <mxCell id="bViVYC_TJQOF8ieiFQaA-180" value="&lt;font color=&quot;#ffffff&quot;&gt;BridgeDomain Intent&lt;/font&gt;" style="rounded=1;whiteSpace=wrap;html=1;strokeColor=none;arcSize=21;fillColor=#001135;" vertex="1" parent="1">
          <mxGeometry x="600" y="250" width="80" height="55.25" as="geometry" />
        </mxCell>
        <mxCell id="bViVYC_TJQOF8ieiFQaA-181" value="&lt;font color=&quot;#ffffff&quot;&gt;VLAN intent&lt;/font&gt;" style="rounded=1;whiteSpace=wrap;html=1;strokeColor=none;arcSize=21;fillColor=#001135;" vertex="1" parent="1">
          <mxGeometry x="610" y="295.25" width="80" height="55.25" as="geometry" />
        </mxCell>
        <mxCell id="bViVYC_TJQOF8ieiFQaA-182" value="&lt;font color=&quot;#ffffff&quot;&gt;Connect Controller&lt;/font&gt;" style="rounded=1;whiteSpace=wrap;html=1;strokeColor=none;arcSize=21;fillColor=#001135;" vertex="1" parent="1">
          <mxGeometry x="630" y="384.01" width="80" height="55.25" as="geometry" />
        </mxCell>
        <mxCell id="bViVYC_TJQOF8ieiFQaA-183" style="edgeStyle=orthogonalEdgeStyle;rounded=0;orthogonalLoop=1;jettySize=auto;html=1;entryX=0.986;entryY=0.863;entryDx=0;entryDy=0;entryPerimeter=0;" edge="1" parent="1" source="bViVYC_TJQOF8ieiFQaA-172" target="bViVYC_TJQOF8ieiFQaA-91">
          <mxGeometry relative="1" as="geometry">
            <Array as="points">
              <mxPoint x="590" y="251" />
            </Array>
          </mxGeometry>
        </mxCell>
        <mxCell id="bViVYC_TJQOF8ieiFQaA-184" value="&lt;font color=&quot;#ffffff&quot;&gt;Interface Intent&lt;/font&gt;" style="rounded=1;whiteSpace=wrap;html=1;strokeColor=none;arcSize=21;fillColor=#001135;" vertex="1" parent="1">
          <mxGeometry x="620" y="340" width="80" height="55.25" as="geometry" />
        </mxCell>
        <mxCell id="bViVYC_TJQOF8ieiFQaA-185" style="edgeStyle=orthogonalEdgeStyle;rounded=0;orthogonalLoop=1;jettySize=auto;html=1;entryX=0;entryY=0.75;entryDx=0;entryDy=0;fillColor=#dae8fc;strokeColor=#6c8ebf;dashed=1;endArrow=none;startFill=0;" edge="1" parent="1" source="bViVYC_TJQOF8ieiFQaA-155" target="bViVYC_TJQOF8ieiFQaA-184">
          <mxGeometry relative="1" as="geometry">
            <Array as="points">
              <mxPoint x="610" y="500" />
              <mxPoint x="610" y="381" />
            </Array>
          </mxGeometry>
        </mxCell>
        <mxCell id="bViVYC_TJQOF8ieiFQaA-187" value="&lt;font style=&quot;color: rgb(126, 166, 224);&quot;&gt;&lt;span style=&quot;font-size: 10px;&quot;&gt;LLDP Node Neighbor information&lt;/span&gt;&lt;/font&gt;" style="text;strokeColor=none;align=center;fillColor=none;html=1;verticalAlign=middle;whiteSpace=wrap;rounded=0;" vertex="1" parent="1">
          <mxGeometry x="400" y="479" width="190" height="30" as="geometry" />
        </mxCell>
      </root>
    </mxGraphModel>
  </diagram>
  <diagram name="[1] TopoLink" id="BNxlBIikTty66X3tVLaG">
    <mxGraphModel dx="847" dy="471" grid="0" gridSize="5" guides="1" tooltips="1" connect="1" arrows="1" fold="1" page="1" pageScale="1" pageWidth="827" pageHeight="1169" background="#4d5766" math="0" shadow="0">
      <root>
        <mxCell id="C72vFnzl6e-7ee-1C8ow-0" />
        <mxCell id="C72vFnzl6e-7ee-1C8ow-1" parent="C72vFnzl6e-7ee-1C8ow-0" />
        <mxCell id="eQbX5ow1hw5tSB6cKQX0-0" value="" style="group" vertex="1" connectable="0" parent="C72vFnzl6e-7ee-1C8ow-1">
          <mxGeometry x="309.9999999999999" y="225" width="50" height="50" as="geometry" />
        </mxCell>
        <mxCell id="eQbX5ow1hw5tSB6cKQX0-1" value="" style="group" vertex="1" connectable="0" parent="eQbX5ow1hw5tSB6cKQX0-0">
          <mxGeometry width="50" height="50" as="geometry" />
        </mxCell>
        <mxCell id="eQbX5ow1hw5tSB6cKQX0-2" value="" style="whiteSpace=wrap;html=1;aspect=fixed;fillColor=#001135;strokeColor=none;connectable=1;allowArrows=1;fontFamily=Manrope;fontSource=https%3A%2F%2Ffonts.googleapis.com%2Fcss%3Ffamily%3DManrope;" vertex="1" parent="eQbX5ow1hw5tSB6cKQX0-1">
          <mxGeometry width="50" height="50" as="geometry" />
        </mxCell>
        <mxCell id="eQbX5ow1hw5tSB6cKQX0-3" value="" style="endArrow=open;html=1;edgeStyle=orthogonalEdgeStyle;rounded=0;endFill=0;startSize=6;endSize=2;strokeColor=#FFFFFF;fontFamily=Manrope;fontSource=https%3A%2F%2Ffonts.googleapis.com%2Fcss%3Ffamily%3DManrope;" edge="1" parent="eQbX5ow1hw5tSB6cKQX0-1">
          <mxGeometry width="83.33333333333334" height="83.33333333333334" as="geometry">
            <mxPoint x="5" y="20" as="sourcePoint" />
            <mxPoint x="18.333333333333336" y="5" as="targetPoint" />
            <Array as="points">
              <mxPoint x="18.333333333333336" y="20" />
            </Array>
          </mxGeometry>
        </mxCell>
        <mxCell id="eQbX5ow1hw5tSB6cKQX0-4" value="" style="endArrow=open;html=1;edgeStyle=orthogonalEdgeStyle;rounded=0;endFill=0;startSize=6;endSize=2;strokeColor=#FFFFFF;fontFamily=Manrope;fontSource=https%3A%2F%2Ffonts.googleapis.com%2Fcss%3Ffamily%3DManrope;" edge="1" parent="eQbX5ow1hw5tSB6cKQX0-1">
          <mxGeometry width="83.33333333333334" height="83.33333333333334" as="geometry">
            <mxPoint x="18.333333333333336" y="45" as="sourcePoint" />
            <mxPoint x="5" y="31.666666666666668" as="targetPoint" />
            <Array as="points">
              <mxPoint x="18.333333333333336" y="31.666666666666668" />
            </Array>
          </mxGeometry>
        </mxCell>
        <mxCell id="eQbX5ow1hw5tSB6cKQX0-5" value="" style="endArrow=open;html=1;edgeStyle=orthogonalEdgeStyle;rounded=0;endFill=0;startSize=6;endSize=2;strokeColor=#FFFFFF;fontFamily=Manrope;fontSource=https%3A%2F%2Ffonts.googleapis.com%2Fcss%3Ffamily%3DManrope;" edge="1" parent="eQbX5ow1hw5tSB6cKQX0-1">
          <mxGeometry width="83.33333333333334" height="83.33333333333334" as="geometry">
            <mxPoint x="30" y="5" as="sourcePoint" />
            <mxPoint x="45" y="20" as="targetPoint" />
            <Array as="points">
              <mxPoint x="30" y="20" />
            </Array>
          </mxGeometry>
        </mxCell>
        <mxCell id="eQbX5ow1hw5tSB6cKQX0-6" value="" style="endArrow=open;html=1;edgeStyle=orthogonalEdgeStyle;rounded=0;endFill=0;startSize=6;endSize=2;strokeColor=#FFFFFF;fontFamily=Manrope;fontSource=https%3A%2F%2Ffonts.googleapis.com%2Fcss%3Ffamily%3DManrope;" edge="1" parent="eQbX5ow1hw5tSB6cKQX0-1">
          <mxGeometry width="83.33333333333334" height="83.33333333333334" as="geometry">
            <mxPoint x="45" y="31.666666666666668" as="sourcePoint" />
            <mxPoint x="30" y="45" as="targetPoint" />
            <Array as="points">
              <mxPoint x="30" y="31.666666666666668" />
            </Array>
          </mxGeometry>
        </mxCell>
        <mxCell id="eQbX5ow1hw5tSB6cKQX0-7" value="&lt;font style=&quot;font-size: 13px;&quot;&gt;srl1&lt;/font&gt;" style="text;html=1;align=center;verticalAlign=middle;resizable=0;points=[];autosize=1;fontSize=13;fontFamily=Google Sans;fontStyle=0;fontColor=#FFFFFF;fontSource=https%3A%2F%2Ffonts.googleapis.com%2Fcss%3Ffamily%3DGoogle%2BSans;" vertex="1" parent="C72vFnzl6e-7ee-1C8ow-1">
          <mxGeometry x="316.5" y="271.37" width="37" height="28" as="geometry" />
        </mxCell>
        <mxCell id="eQbX5ow1hw5tSB6cKQX0-8" value="" style="rounded=0;orthogonalLoop=1;jettySize=auto;html=1;fontFamily=Manrope;fontSize=12;fontColor=#FFFFFF;endArrow=oval;endFill=1;startArrow=oval;startFill=1;strokeColor=#00C9FF;entryX=0;entryY=0.5;entryDx=0;entryDy=0;exitX=1;exitY=0.5;exitDx=0;exitDy=0;endSize=3;startSize=3;" edge="1" parent="C72vFnzl6e-7ee-1C8ow-1" source="eQbX5ow1hw5tSB6cKQX0-10" target="eQbX5ow1hw5tSB6cKQX0-9">
          <mxGeometry relative="1" as="geometry">
            <mxPoint x="351.91999999999985" y="198.13" as="sourcePoint" />
            <mxPoint x="351.91999999999985" y="238.13" as="targetPoint" />
          </mxGeometry>
        </mxCell>
        <mxCell id="eQbX5ow1hw5tSB6cKQX0-9" value="1" style="ellipse;whiteSpace=wrap;html=1;aspect=fixed;fontColor=#4D5766;fontSize=8;strokeColor=#00C9FF;fontFamily=Google Sans;fontSource=https%3A%2F%2Ffonts.googleapis.com%2Fcss%3Ffamily%3DGoogle%2BSans;fillColor=#FFFFFF;strokeWidth=1;" vertex="1" parent="C72vFnzl6e-7ee-1C8ow-1">
          <mxGeometry x="298" y="245" width="10" height="10" as="geometry" />
        </mxCell>
        <mxCell id="eQbX5ow1hw5tSB6cKQX0-10" value="1" style="ellipse;whiteSpace=wrap;html=1;aspect=fixed;fontColor=#4D5766;fontSize=8;strokeColor=#98A2AE;fontFamily=Google Sans;fontSource=https%3A%2F%2Ffonts.googleapis.com%2Fcss%3Ffamily%3DGoogle%2BSans;fillColor=#FFFFFF;strokeWidth=1;" vertex="1" parent="C72vFnzl6e-7ee-1C8ow-1">
          <mxGeometry x="220.14" y="245" width="10" height="10" as="geometry" />
        </mxCell>
        <mxCell id="eQbX5ow1hw5tSB6cKQX0-11" value="" style="group" vertex="1" connectable="0" parent="C72vFnzl6e-7ee-1C8ow-1">
          <mxGeometry x="437.9999999999999" y="225" width="50" height="50" as="geometry" />
        </mxCell>
        <mxCell id="eQbX5ow1hw5tSB6cKQX0-12" value="" style="group" vertex="1" connectable="0" parent="eQbX5ow1hw5tSB6cKQX0-11">
          <mxGeometry width="50" height="50" as="geometry" />
        </mxCell>
        <mxCell id="eQbX5ow1hw5tSB6cKQX0-13" value="" style="whiteSpace=wrap;html=1;aspect=fixed;fillColor=#001135;strokeColor=none;connectable=1;allowArrows=1;fontFamily=Manrope;fontSource=https%3A%2F%2Ffonts.googleapis.com%2Fcss%3Ffamily%3DManrope;" vertex="1" parent="eQbX5ow1hw5tSB6cKQX0-12">
          <mxGeometry width="50" height="50" as="geometry" />
        </mxCell>
        <mxCell id="eQbX5ow1hw5tSB6cKQX0-14" value="" style="endArrow=open;html=1;edgeStyle=orthogonalEdgeStyle;rounded=0;endFill=0;startSize=6;endSize=2;strokeColor=#FFFFFF;fontFamily=Manrope;fontSource=https%3A%2F%2Ffonts.googleapis.com%2Fcss%3Ffamily%3DManrope;" edge="1" parent="eQbX5ow1hw5tSB6cKQX0-12">
          <mxGeometry width="83.33333333333334" height="83.33333333333334" as="geometry">
            <mxPoint x="5" y="20" as="sourcePoint" />
            <mxPoint x="18.333333333333336" y="5" as="targetPoint" />
            <Array as="points">
              <mxPoint x="18.333333333333336" y="20" />
            </Array>
          </mxGeometry>
        </mxCell>
        <mxCell id="eQbX5ow1hw5tSB6cKQX0-15" value="" style="endArrow=open;html=1;edgeStyle=orthogonalEdgeStyle;rounded=0;endFill=0;startSize=6;endSize=2;strokeColor=#FFFFFF;fontFamily=Manrope;fontSource=https%3A%2F%2Ffonts.googleapis.com%2Fcss%3Ffamily%3DManrope;" edge="1" parent="eQbX5ow1hw5tSB6cKQX0-12">
          <mxGeometry width="83.33333333333334" height="83.33333333333334" as="geometry">
            <mxPoint x="18.333333333333336" y="45" as="sourcePoint" />
            <mxPoint x="5" y="31.666666666666668" as="targetPoint" />
            <Array as="points">
              <mxPoint x="18.333333333333336" y="31.666666666666668" />
            </Array>
          </mxGeometry>
        </mxCell>
        <mxCell id="eQbX5ow1hw5tSB6cKQX0-16" value="" style="endArrow=open;html=1;edgeStyle=orthogonalEdgeStyle;rounded=0;endFill=0;startSize=6;endSize=2;strokeColor=#FFFFFF;fontFamily=Manrope;fontSource=https%3A%2F%2Ffonts.googleapis.com%2Fcss%3Ffamily%3DManrope;" edge="1" parent="eQbX5ow1hw5tSB6cKQX0-12">
          <mxGeometry width="83.33333333333334" height="83.33333333333334" as="geometry">
            <mxPoint x="30" y="5" as="sourcePoint" />
            <mxPoint x="45" y="20" as="targetPoint" />
            <Array as="points">
              <mxPoint x="30" y="20" />
            </Array>
          </mxGeometry>
        </mxCell>
        <mxCell id="eQbX5ow1hw5tSB6cKQX0-17" value="" style="endArrow=open;html=1;edgeStyle=orthogonalEdgeStyle;rounded=0;endFill=0;startSize=6;endSize=2;strokeColor=#FFFFFF;fontFamily=Manrope;fontSource=https%3A%2F%2Ffonts.googleapis.com%2Fcss%3Ffamily%3DManrope;" edge="1" parent="eQbX5ow1hw5tSB6cKQX0-12">
          <mxGeometry width="83.33333333333334" height="83.33333333333334" as="geometry">
            <mxPoint x="45" y="31.666666666666668" as="sourcePoint" />
            <mxPoint x="30" y="45" as="targetPoint" />
            <Array as="points">
              <mxPoint x="30" y="31.666666666666668" />
            </Array>
          </mxGeometry>
        </mxCell>
        <mxCell id="eQbX5ow1hw5tSB6cKQX0-18" value="&lt;font style=&quot;font-size: 13px;&quot;&gt;srl2&lt;/font&gt;" style="text;html=1;align=center;verticalAlign=middle;resizable=0;points=[];autosize=1;fontSize=13;fontFamily=Google Sans;fontStyle=0;fontColor=#FFFFFF;fontSource=https%3A%2F%2Ffonts.googleapis.com%2Fcss%3Ffamily%3DGoogle%2BSans;" vertex="1" parent="C72vFnzl6e-7ee-1C8ow-1">
          <mxGeometry x="443.5" y="271.37" width="39" height="28" as="geometry" />
        </mxCell>
        <mxCell id="eQbX5ow1hw5tSB6cKQX0-19" value="" style="rounded=0;orthogonalLoop=1;jettySize=auto;html=1;fontFamily=Manrope;fontSize=12;fontColor=#FFFFFF;endArrow=oval;endFill=1;startArrow=oval;startFill=1;strokeColor=#00C9FF;entryX=0;entryY=0.5;entryDx=0;entryDy=0;exitX=1;exitY=0.5;exitDx=0;exitDy=0;endSize=3;startSize=3;" edge="1" parent="C72vFnzl6e-7ee-1C8ow-1" source="eQbX5ow1hw5tSB6cKQX0-20" target="eQbX5ow1hw5tSB6cKQX0-21">
          <mxGeometry relative="1" as="geometry">
            <mxPoint x="232.14" y="241.37" as="sourcePoint" />
            <mxPoint x="314.14" y="241.37" as="targetPoint" />
          </mxGeometry>
        </mxCell>
        <mxCell id="eQbX5ow1hw5tSB6cKQX0-20" value="10" style="ellipse;whiteSpace=wrap;html=1;aspect=fixed;fontColor=#4D5766;fontSize=8;strokeColor=#00C9FF;fontFamily=Google Sans;fontSource=https%3A%2F%2Ffonts.googleapis.com%2Fcss%3Ffamily%3DGoogle%2BSans;fillColor=#FFFFFF;strokeWidth=1;" vertex="1" parent="C72vFnzl6e-7ee-1C8ow-1">
          <mxGeometry x="362.93000000000006" y="245" width="10" height="10" as="geometry" />
        </mxCell>
        <mxCell id="eQbX5ow1hw5tSB6cKQX0-21" value="10" style="ellipse;whiteSpace=wrap;html=1;aspect=fixed;fontColor=#4D5766;fontSize=8;strokeColor=#00C9FF;fontFamily=Google Sans;fontSource=https%3A%2F%2Ffonts.googleapis.com%2Fcss%3Ffamily%3DGoogle%2BSans;fillColor=#FFFFFF;strokeWidth=1;" vertex="1" parent="C72vFnzl6e-7ee-1C8ow-1">
          <mxGeometry x="426" y="245" width="10" height="10" as="geometry" />
        </mxCell>
        <mxCell id="eQbX5ow1hw5tSB6cKQX0-22" value="" style="rounded=0;orthogonalLoop=1;jettySize=auto;html=1;fontFamily=Manrope;fontSize=12;fontColor=#FFFFFF;endArrow=oval;endFill=1;startArrow=oval;startFill=1;strokeColor=#00C9FF;entryX=0;entryY=0.5;entryDx=0;entryDy=0;exitX=1;exitY=0.5;exitDx=0;exitDy=0;endSize=3;startSize=3;" edge="1" parent="C72vFnzl6e-7ee-1C8ow-1" source="eQbX5ow1hw5tSB6cKQX0-24" target="eQbX5ow1hw5tSB6cKQX0-23">
          <mxGeometry relative="1" as="geometry">
            <mxPoint x="611.7799999999999" y="198.13" as="sourcePoint" />
            <mxPoint x="611.7799999999999" y="238.13" as="targetPoint" />
          </mxGeometry>
        </mxCell>
        <mxCell id="eQbX5ow1hw5tSB6cKQX0-23" value="1" style="ellipse;whiteSpace=wrap;html=1;aspect=fixed;fontColor=#4D5766;fontSize=8;strokeColor=#98A2AE;fontFamily=Google Sans;fontSource=https%3A%2F%2Ffonts.googleapis.com%2Fcss%3Ffamily%3DGoogle%2BSans;fillColor=#FFFFFF;strokeWidth=1;" vertex="1" parent="C72vFnzl6e-7ee-1C8ow-1">
          <mxGeometry x="571.89" y="245" width="10" height="10" as="geometry" />
        </mxCell>
        <mxCell id="eQbX5ow1hw5tSB6cKQX0-24" value="1" style="ellipse;whiteSpace=wrap;html=1;aspect=fixed;fontColor=#4D5766;fontSize=8;strokeColor=#00C9FF;fontFamily=Google Sans;fontSource=https%3A%2F%2Ffonts.googleapis.com%2Fcss%3Ffamily%3DGoogle%2BSans;fillColor=#FFFFFF;strokeWidth=1;" vertex="1" parent="C72vFnzl6e-7ee-1C8ow-1">
          <mxGeometry x="490.86" y="245" width="10" height="10" as="geometry" />
        </mxCell>
        <mxCell id="eQbX5ow1hw5tSB6cKQX0-25" value="" style="group" vertex="1" connectable="0" parent="C72vFnzl6e-7ee-1C8ow-1">
          <mxGeometry x="169" y="236.62" width="52.25" height="54.85000000000002" as="geometry" />
        </mxCell>
        <mxCell id="eQbX5ow1hw5tSB6cKQX0-26" value="" style="rounded=1;whiteSpace=wrap;html=1;strokeColor=none;arcSize=2;" vertex="1" parent="eQbX5ow1hw5tSB6cKQX0-25">
          <mxGeometry x="6" y="2" width="38" height="22" as="geometry" />
        </mxCell>
        <mxCell id="eQbX5ow1hw5tSB6cKQX0-27" value="" style="shape=image;editableCssRules=\.color;verticalLabelPosition=bottom;labelBackgroundColor=#ffffff;verticalAlign=top;aspect=fixed;imageAspect=0;image=data:image/svg+xml,PHN2ZyB4bWxucz0iaHR0cDovL3d3dy53My5vcmcvMjAwMC9zdmciIHhtbG5zOnhsaW5rPSJodHRwOi8vd3d3LnczLm9yZy8xOTk5L3hsaW5rIiB2aWV3Qm94PSIwIDAgMTMxIDgxIiBmaWxsPSIjZmZmIiBmaWxsLXJ1bGU9ImV2ZW5vZGQiIHN0cm9rZT0iIzAwMCIgc3Ryb2tlLWxpbmVjYXA9InJvdW5kIiBzdHJva2UtbGluZWpvaW49InJvdW5kIj48dXNlIHhsaW5rOmhyZWY9IiNBIiB4PSIuNSIgeT0iLjUiLz48c3ltYm9sIGlkPSJBIiBvdmVyZmxvdz0idmlzaWJsZSI+PHBhdGggY2xhc3M9ImNvbG9yIiBkPSJNMTE5LjA3OCA2Mi43MDNWNy4yNzVjMC0yLjc0Ni0yLjU0LTcuMjc1LTUuNTgtNy4yNzVIMTYuNDc1Yy0zLjA0IDAtNi4wOCA0LjUzLTYuMDggNy4yNzV2NTUuNDI3Qy0uNDk4IDc0LjI0NC4wMDQgNzQuMjQ0LjAwNCA3NC4yNDQuMDA0IDc3LjUxNiAzLjA0NCA4MCA2Ljg1MiA4MGgxMTYuM2MzLjgwOCAwIDYuODQ4LTIuNzQ3IDYuODQ4LTUuNzU2bC0xMC45MjItMTEuNTR6TTczLjk3NSA3NS4yMzdoLTIwLjI4Yy0xLjAwNCAwLTIuMDM3LS40OTctMi4wMzctLjk5M2wyLjI3My0zLjc3YzAtLjQ5Ny43NjctLjc2IDEuNzctLjc2SDcxLjkxYy43NjcgMCAxLjUzNS4yNjMgMS41MzUuNzZsMi41NCAzLjc3Yy4wMy43My0xLjAwNC45OTMtMi4wMDcuOTkzaDB6bTQwLjI5Mi0xMi43OThIMTUuMjA1VjcuNzcyYzAtMS4yNTYgMS4yNy0zLjAxIDIuNzc1LTMuMDFoOTMuNzVjMS41MzUgMCAyLjU0IDEuNzUzIDIuNTQgM1Y2Mi40NHoiIGZpbGw9IiMyYTMyODIiIHN0cm9rZT0ibm9uZSIvPjwvc3ltYm9sPjxzdHlsZSB0eXBlPSJ0ZXh0L2NzcyI+LmNvbG9yIHsgZmlsbDogcmdiKDAsIDE3LCA1Myk7IH0gPC9zdHlsZT48L3N2Zz4=;" vertex="1" parent="eQbX5ow1hw5tSB6cKQX0-25">
          <mxGeometry width="49.89" height="30.85" as="geometry" />
        </mxCell>
        <mxCell id="eQbX5ow1hw5tSB6cKQX0-28" value="&lt;font style=&quot;font-size: 12px;&quot;&gt;client1&lt;/font&gt;" style="text;html=1;align=center;verticalAlign=middle;resizable=0;points=[];autosize=1;fontSize=12;fontFamily=Google Sans;fontStyle=0;fontColor=#FFFFFF;fontSource=https%3A%2F%2Ffonts.googleapis.com%2Fcss%3Ffamily%3DGoogle%2BSans;" vertex="1" parent="eQbX5ow1hw5tSB6cKQX0-25">
          <mxGeometry x="0.25" y="28.850000000000023" width="52" height="26" as="geometry" />
        </mxCell>
        <mxCell id="eQbX5ow1hw5tSB6cKQX0-29" value="" style="shape=image;verticalLabelPosition=bottom;labelBackgroundColor=default;verticalAlign=top;aspect=fixed;imageAspect=0;image=data:image/png,iVBORw0KGgoAAAANSUhEUgAAACAAAAAgCAMAAABEpIrGAAAA6lBMVEUAWv8IX/9NjP8LYf/8/f9zpP////+bvv8FXf++1f8SZv/Z5/8mcv/t8/9BhP/6/P9lm/+Ntf8CXP+yzf8MYv+30P/Q4P8ebf8veP9rn//7/P/n7/83ff9HiP/w9f/2+f9Xkv8qdf/e6f/+/v9+q/8BWv8VZ//E2f+lxf8HXv+jw//G2v8WaP98qv/f6v8td/9Vkf/x9v9Kiv81ff/m7/9vov8dbf+XvP8EXf+70/8QZP/X5f8kcf9lnP/r8v8+gv9Chf/u9P/5+/8nc//a5/8TZv/A1v8GXv+ewP/4+v8ueP92pv/9/v9Rjv8gB2lPAAAAAW9yTlQBz6J3mgAAAAFzUkdCAK7OHOkAAADKSURBVDjLrdNJX0EBGIXxc7s8kspMk2RqooEGEUWpXOX7fx27Vt7fu3HW/+V5pA0s2HJAGIs7ABLbDiC54wBSuw5gb98BpDMOgGzOAeQLNigCUCqb4ODwCOD4xASqnAJUz0ygWh2g0WxZQOcXAFwGFtDVNQDtjgWkmwbA7Z0JdF8F6PZMoIdHgNiTCfRcAqD/YgEV8gAMhhZQLgvA68gC0jgN8PZuAk2mAB+BCfQ5AwhtoK9vB+hn/g+iKIoWa37w+xc6zS2DTaS9AgWAEyiBKbEgAAAAAElFTkSuQmCC;" vertex="1" parent="eQbX5ow1hw5tSB6cKQX0-25">
          <mxGeometry x="18.44999999999999" y="6.5" width="13" height="13" as="geometry" />
        </mxCell>
        <mxCell id="eQbX5ow1hw5tSB6cKQX0-30" value="" style="group" vertex="1" connectable="0" parent="C72vFnzl6e-7ee-1C8ow-1">
          <mxGeometry x="583" y="236.62" width="53.25" height="54.85000000000002" as="geometry" />
        </mxCell>
        <mxCell id="eQbX5ow1hw5tSB6cKQX0-31" value="" style="rounded=1;whiteSpace=wrap;html=1;strokeColor=none;arcSize=2;" vertex="1" parent="eQbX5ow1hw5tSB6cKQX0-30">
          <mxGeometry x="6" y="2" width="38" height="22" as="geometry" />
        </mxCell>
        <mxCell id="eQbX5ow1hw5tSB6cKQX0-32" value="" style="shape=image;editableCssRules=\.color;verticalLabelPosition=bottom;labelBackgroundColor=#ffffff;verticalAlign=top;aspect=fixed;imageAspect=0;image=data:image/svg+xml,PHN2ZyB4bWxucz0iaHR0cDovL3d3dy53My5vcmcvMjAwMC9zdmciIHhtbG5zOnhsaW5rPSJodHRwOi8vd3d3LnczLm9yZy8xOTk5L3hsaW5rIiB2aWV3Qm94PSIwIDAgMTMxIDgxIiBmaWxsPSIjZmZmIiBmaWxsLXJ1bGU9ImV2ZW5vZGQiIHN0cm9rZT0iIzAwMCIgc3Ryb2tlLWxpbmVjYXA9InJvdW5kIiBzdHJva2UtbGluZWpvaW49InJvdW5kIj48dXNlIHhsaW5rOmhyZWY9IiNBIiB4PSIuNSIgeT0iLjUiLz48c3ltYm9sIGlkPSJBIiBvdmVyZmxvdz0idmlzaWJsZSI+PHBhdGggY2xhc3M9ImNvbG9yIiBkPSJNMTE5LjA3OCA2Mi43MDNWNy4yNzVjMC0yLjc0Ni0yLjU0LTcuMjc1LTUuNTgtNy4yNzVIMTYuNDc1Yy0zLjA0IDAtNi4wOCA0LjUzLTYuMDggNy4yNzV2NTUuNDI3Qy0uNDk4IDc0LjI0NC4wMDQgNzQuMjQ0LjAwNCA3NC4yNDQuMDA0IDc3LjUxNiAzLjA0NCA4MCA2Ljg1MiA4MGgxMTYuM2MzLjgwOCAwIDYuODQ4LTIuNzQ3IDYuODQ4LTUuNzU2bC0xMC45MjItMTEuNTR6TTczLjk3NSA3NS4yMzdoLTIwLjI4Yy0xLjAwNCAwLTIuMDM3LS40OTctMi4wMzctLjk5M2wyLjI3My0zLjc3YzAtLjQ5Ny43NjctLjc2IDEuNzctLjc2SDcxLjkxYy43NjcgMCAxLjUzNS4yNjMgMS41MzUuNzZsMi41NCAzLjc3Yy4wMy43My0xLjAwNC45OTMtMi4wMDcuOTkzaDB6bTQwLjI5Mi0xMi43OThIMTUuMjA1VjcuNzcyYzAtMS4yNTYgMS4yNy0zLjAxIDIuNzc1LTMuMDFoOTMuNzVjMS41MzUgMCAyLjU0IDEuNzUzIDIuNTQgM1Y2Mi40NHoiIGZpbGw9IiMyYTMyODIiIHN0cm9rZT0ibm9uZSIvPjwvc3ltYm9sPjxzdHlsZSB0eXBlPSJ0ZXh0L2NzcyI+LmNvbG9yIHsgZmlsbDogcmdiKDAsIDE3LCA1Myk7IH0gPC9zdHlsZT48L3N2Zz4=;" vertex="1" parent="eQbX5ow1hw5tSB6cKQX0-30">
          <mxGeometry width="49.89" height="30.85" as="geometry" />
        </mxCell>
        <mxCell id="eQbX5ow1hw5tSB6cKQX0-33" value="&lt;font style=&quot;font-size: 12px;&quot;&gt;client2&lt;/font&gt;" style="text;html=1;align=center;verticalAlign=middle;resizable=0;points=[];autosize=1;fontSize=12;fontFamily=Google Sans;fontStyle=0;fontColor=#FFFFFF;fontSource=https%3A%2F%2Ffonts.googleapis.com%2Fcss%3Ffamily%3DGoogle%2BSans;" vertex="1" parent="eQbX5ow1hw5tSB6cKQX0-30">
          <mxGeometry x="-0.75" y="28.850000000000023" width="54" height="26" as="geometry" />
        </mxCell>
        <mxCell id="eQbX5ow1hw5tSB6cKQX0-34" value="" style="shape=image;verticalLabelPosition=bottom;labelBackgroundColor=default;verticalAlign=top;aspect=fixed;imageAspect=0;image=data:image/png,iVBORw0KGgoAAAANSUhEUgAAACAAAAAgCAMAAABEpIrGAAAA6lBMVEUAWv8IX/9NjP8LYf/8/f9zpP////+bvv8FXf++1f8SZv/Z5/8mcv/t8/9BhP/6/P9lm/+Ntf8CXP+yzf8MYv+30P/Q4P8ebf8veP9rn//7/P/n7/83ff9HiP/w9f/2+f9Xkv8qdf/e6f/+/v9+q/8BWv8VZ//E2f+lxf8HXv+jw//G2v8WaP98qv/f6v8td/9Vkf/x9v9Kiv81ff/m7/9vov8dbf+XvP8EXf+70/8QZP/X5f8kcf9lnP/r8v8+gv9Chf/u9P/5+/8nc//a5/8TZv/A1v8GXv+ewP/4+v8ueP92pv/9/v9Rjv8gB2lPAAAAAW9yTlQBz6J3mgAAAAFzUkdCAK7OHOkAAADKSURBVDjLrdNJX0EBGIXxc7s8kspMk2RqooEGEUWpXOX7fx27Vt7fu3HW/+V5pA0s2HJAGIs7ABLbDiC54wBSuw5gb98BpDMOgGzOAeQLNigCUCqb4ODwCOD4xASqnAJUz0ygWh2g0WxZQOcXAFwGFtDVNQDtjgWkmwbA7Z0JdF8F6PZMoIdHgNiTCfRcAqD/YgEV8gAMhhZQLgvA68gC0jgN8PZuAk2mAB+BCfQ5AwhtoK9vB+hn/g+iKIoWa37w+xc6zS2DTaS9AgWAEyiBKbEgAAAAAElFTkSuQmCC;" vertex="1" parent="eQbX5ow1hw5tSB6cKQX0-30">
          <mxGeometry x="18.450000000000045" y="6.5" width="13" height="13" as="geometry" />
        </mxCell>
      </root>
    </mxGraphModel>
  </diagram>
  <diagram name="[2] Interface" id="gHAXBwzixGHhA0aWeWE0">
    <mxGraphModel dx="728" dy="405" grid="0" gridSize="5" guides="1" tooltips="1" connect="1" arrows="1" fold="1" page="1" pageScale="1" pageWidth="827" pageHeight="1169" background="#4d5766" math="0" shadow="0">
      <root>
        <mxCell id="KsfZ53XNfK_N4QsgE4jr-0" />
        <mxCell id="KsfZ53XNfK_N4QsgE4jr-1" parent="KsfZ53XNfK_N4QsgE4jr-0" />
        <mxCell id="KsfZ53XNfK_N4QsgE4jr-2" value="" style="group" vertex="1" connectable="0" parent="KsfZ53XNfK_N4QsgE4jr-1">
          <mxGeometry x="309.9999999999999" y="225" width="50" height="50" as="geometry" />
        </mxCell>
        <mxCell id="KsfZ53XNfK_N4QsgE4jr-3" value="" style="group" vertex="1" connectable="0" parent="KsfZ53XNfK_N4QsgE4jr-2">
          <mxGeometry width="50" height="50" as="geometry" />
        </mxCell>
        <mxCell id="KsfZ53XNfK_N4QsgE4jr-4" value="" style="whiteSpace=wrap;html=1;aspect=fixed;fillColor=#001135;strokeColor=none;connectable=1;allowArrows=1;fontFamily=Manrope;fontSource=https%3A%2F%2Ffonts.googleapis.com%2Fcss%3Ffamily%3DManrope;" vertex="1" parent="KsfZ53XNfK_N4QsgE4jr-3">
          <mxGeometry width="50" height="50" as="geometry" />
        </mxCell>
        <mxCell id="KsfZ53XNfK_N4QsgE4jr-5" value="" style="endArrow=open;html=1;edgeStyle=orthogonalEdgeStyle;rounded=0;endFill=0;startSize=6;endSize=2;strokeColor=#FFFFFF;fontFamily=Manrope;fontSource=https%3A%2F%2Ffonts.googleapis.com%2Fcss%3Ffamily%3DManrope;" edge="1" parent="KsfZ53XNfK_N4QsgE4jr-3">
          <mxGeometry width="83.33333333333334" height="83.33333333333334" as="geometry">
            <mxPoint x="5" y="20" as="sourcePoint" />
            <mxPoint x="18.333333333333336" y="5" as="targetPoint" />
            <Array as="points">
              <mxPoint x="18.333333333333336" y="20" />
            </Array>
          </mxGeometry>
        </mxCell>
        <mxCell id="KsfZ53XNfK_N4QsgE4jr-6" value="" style="endArrow=open;html=1;edgeStyle=orthogonalEdgeStyle;rounded=0;endFill=0;startSize=6;endSize=2;strokeColor=#FFFFFF;fontFamily=Manrope;fontSource=https%3A%2F%2Ffonts.googleapis.com%2Fcss%3Ffamily%3DManrope;" edge="1" parent="KsfZ53XNfK_N4QsgE4jr-3">
          <mxGeometry width="83.33333333333334" height="83.33333333333334" as="geometry">
            <mxPoint x="18.333333333333336" y="45" as="sourcePoint" />
            <mxPoint x="5" y="31.666666666666668" as="targetPoint" />
            <Array as="points">
              <mxPoint x="18.333333333333336" y="31.666666666666668" />
            </Array>
          </mxGeometry>
        </mxCell>
        <mxCell id="KsfZ53XNfK_N4QsgE4jr-7" value="" style="endArrow=open;html=1;edgeStyle=orthogonalEdgeStyle;rounded=0;endFill=0;startSize=6;endSize=2;strokeColor=#FFFFFF;fontFamily=Manrope;fontSource=https%3A%2F%2Ffonts.googleapis.com%2Fcss%3Ffamily%3DManrope;" edge="1" parent="KsfZ53XNfK_N4QsgE4jr-3">
          <mxGeometry width="83.33333333333334" height="83.33333333333334" as="geometry">
            <mxPoint x="30" y="5" as="sourcePoint" />
            <mxPoint x="45" y="20" as="targetPoint" />
            <Array as="points">
              <mxPoint x="30" y="20" />
            </Array>
          </mxGeometry>
        </mxCell>
        <mxCell id="KsfZ53XNfK_N4QsgE4jr-8" value="" style="endArrow=open;html=1;edgeStyle=orthogonalEdgeStyle;rounded=0;endFill=0;startSize=6;endSize=2;strokeColor=#FFFFFF;fontFamily=Manrope;fontSource=https%3A%2F%2Ffonts.googleapis.com%2Fcss%3Ffamily%3DManrope;" edge="1" parent="KsfZ53XNfK_N4QsgE4jr-3">
          <mxGeometry width="83.33333333333334" height="83.33333333333334" as="geometry">
            <mxPoint x="45" y="31.666666666666668" as="sourcePoint" />
            <mxPoint x="30" y="45" as="targetPoint" />
            <Array as="points">
              <mxPoint x="30" y="31.666666666666668" />
            </Array>
          </mxGeometry>
        </mxCell>
        <mxCell id="KsfZ53XNfK_N4QsgE4jr-9" value="&lt;font style=&quot;font-size: 13px;&quot;&gt;srl1&lt;/font&gt;" style="text;html=1;align=center;verticalAlign=middle;resizable=0;points=[];autosize=1;fontSize=13;fontFamily=Google Sans;fontStyle=0;fontColor=#FFFFFF;fontSource=https%3A%2F%2Ffonts.googleapis.com%2Fcss%3Ffamily%3DGoogle%2BSans;" vertex="1" parent="KsfZ53XNfK_N4QsgE4jr-1">
          <mxGeometry x="316.5" y="271.37" width="37" height="28" as="geometry" />
        </mxCell>
        <mxCell id="KsfZ53XNfK_N4QsgE4jr-10" value="" style="rounded=0;orthogonalLoop=1;jettySize=auto;html=1;fontFamily=Manrope;fontSize=12;fontColor=#FFFFFF;endArrow=oval;endFill=1;startArrow=oval;startFill=1;strokeColor=#BEC8D2;entryX=0;entryY=0.5;entryDx=0;entryDy=0;exitX=1;exitY=0.5;exitDx=0;exitDy=0;endSize=3;startSize=3;" edge="1" parent="KsfZ53XNfK_N4QsgE4jr-1" source="KsfZ53XNfK_N4QsgE4jr-12" target="KsfZ53XNfK_N4QsgE4jr-11">
          <mxGeometry relative="1" as="geometry">
            <mxPoint x="351.91999999999985" y="198.13" as="sourcePoint" />
            <mxPoint x="351.91999999999985" y="238.13" as="targetPoint" />
          </mxGeometry>
        </mxCell>
        <mxCell id="KsfZ53XNfK_N4QsgE4jr-11" value="1" style="ellipse;whiteSpace=wrap;html=1;aspect=fixed;fontColor=#FFFFFF;fontSize=8;strokeColor=#00C9FF;fontFamily=Google Sans;fontSource=https%3A%2F%2Ffonts.googleapis.com%2Fcss%3Ffamily%3DGoogle%2BSans;fillColor=#00C9FF;strokeWidth=1;" vertex="1" parent="KsfZ53XNfK_N4QsgE4jr-1">
          <mxGeometry x="298" y="245" width="10" height="10" as="geometry" />
        </mxCell>
        <mxCell id="KsfZ53XNfK_N4QsgE4jr-12" value="1" style="ellipse;whiteSpace=wrap;html=1;aspect=fixed;fontColor=#4D5766;fontSize=8;strokeColor=#98A2AE;fontFamily=Google Sans;fontSource=https%3A%2F%2Ffonts.googleapis.com%2Fcss%3Ffamily%3DGoogle%2BSans;fillColor=#FFFFFF;strokeWidth=1;" vertex="1" parent="KsfZ53XNfK_N4QsgE4jr-1">
          <mxGeometry x="220.14" y="245" width="10" height="10" as="geometry" />
        </mxCell>
        <mxCell id="KsfZ53XNfK_N4QsgE4jr-13" value="" style="group" vertex="1" connectable="0" parent="KsfZ53XNfK_N4QsgE4jr-1">
          <mxGeometry x="437.9999999999999" y="225" width="50" height="50" as="geometry" />
        </mxCell>
        <mxCell id="KsfZ53XNfK_N4QsgE4jr-14" value="" style="group" vertex="1" connectable="0" parent="KsfZ53XNfK_N4QsgE4jr-13">
          <mxGeometry width="50" height="50" as="geometry" />
        </mxCell>
        <mxCell id="KsfZ53XNfK_N4QsgE4jr-15" value="" style="whiteSpace=wrap;html=1;aspect=fixed;fillColor=#001135;strokeColor=none;connectable=1;allowArrows=1;fontFamily=Manrope;fontSource=https%3A%2F%2Ffonts.googleapis.com%2Fcss%3Ffamily%3DManrope;" vertex="1" parent="KsfZ53XNfK_N4QsgE4jr-14">
          <mxGeometry width="50" height="50" as="geometry" />
        </mxCell>
        <mxCell id="KsfZ53XNfK_N4QsgE4jr-16" value="" style="endArrow=open;html=1;edgeStyle=orthogonalEdgeStyle;rounded=0;endFill=0;startSize=6;endSize=2;strokeColor=#FFFFFF;fontFamily=Manrope;fontSource=https%3A%2F%2Ffonts.googleapis.com%2Fcss%3Ffamily%3DManrope;" edge="1" parent="KsfZ53XNfK_N4QsgE4jr-14">
          <mxGeometry width="83.33333333333334" height="83.33333333333334" as="geometry">
            <mxPoint x="5" y="20" as="sourcePoint" />
            <mxPoint x="18.333333333333336" y="5" as="targetPoint" />
            <Array as="points">
              <mxPoint x="18.333333333333336" y="20" />
            </Array>
          </mxGeometry>
        </mxCell>
        <mxCell id="KsfZ53XNfK_N4QsgE4jr-17" value="" style="endArrow=open;html=1;edgeStyle=orthogonalEdgeStyle;rounded=0;endFill=0;startSize=6;endSize=2;strokeColor=#FFFFFF;fontFamily=Manrope;fontSource=https%3A%2F%2Ffonts.googleapis.com%2Fcss%3Ffamily%3DManrope;" edge="1" parent="KsfZ53XNfK_N4QsgE4jr-14">
          <mxGeometry width="83.33333333333334" height="83.33333333333334" as="geometry">
            <mxPoint x="18.333333333333336" y="45" as="sourcePoint" />
            <mxPoint x="5" y="31.666666666666668" as="targetPoint" />
            <Array as="points">
              <mxPoint x="18.333333333333336" y="31.666666666666668" />
            </Array>
          </mxGeometry>
        </mxCell>
        <mxCell id="KsfZ53XNfK_N4QsgE4jr-18" value="" style="endArrow=open;html=1;edgeStyle=orthogonalEdgeStyle;rounded=0;endFill=0;startSize=6;endSize=2;strokeColor=#FFFFFF;fontFamily=Manrope;fontSource=https%3A%2F%2Ffonts.googleapis.com%2Fcss%3Ffamily%3DManrope;" edge="1" parent="KsfZ53XNfK_N4QsgE4jr-14">
          <mxGeometry width="83.33333333333334" height="83.33333333333334" as="geometry">
            <mxPoint x="30" y="5" as="sourcePoint" />
            <mxPoint x="45" y="20" as="targetPoint" />
            <Array as="points">
              <mxPoint x="30" y="20" />
            </Array>
          </mxGeometry>
        </mxCell>
        <mxCell id="KsfZ53XNfK_N4QsgE4jr-19" value="" style="endArrow=open;html=1;edgeStyle=orthogonalEdgeStyle;rounded=0;endFill=0;startSize=6;endSize=2;strokeColor=#FFFFFF;fontFamily=Manrope;fontSource=https%3A%2F%2Ffonts.googleapis.com%2Fcss%3Ffamily%3DManrope;" edge="1" parent="KsfZ53XNfK_N4QsgE4jr-14">
          <mxGeometry width="83.33333333333334" height="83.33333333333334" as="geometry">
            <mxPoint x="45" y="31.666666666666668" as="sourcePoint" />
            <mxPoint x="30" y="45" as="targetPoint" />
            <Array as="points">
              <mxPoint x="30" y="31.666666666666668" />
            </Array>
          </mxGeometry>
        </mxCell>
        <mxCell id="KsfZ53XNfK_N4QsgE4jr-20" value="&lt;font style=&quot;font-size: 13px;&quot;&gt;srl2&lt;/font&gt;" style="text;html=1;align=center;verticalAlign=middle;resizable=0;points=[];autosize=1;fontSize=13;fontFamily=Google Sans;fontStyle=0;fontColor=#FFFFFF;fontSource=https%3A%2F%2Ffonts.googleapis.com%2Fcss%3Ffamily%3DGoogle%2BSans;" vertex="1" parent="KsfZ53XNfK_N4QsgE4jr-1">
          <mxGeometry x="443.5" y="271.37" width="39" height="28" as="geometry" />
        </mxCell>
        <mxCell id="KsfZ53XNfK_N4QsgE4jr-21" value="" style="rounded=0;orthogonalLoop=1;jettySize=auto;html=1;fontFamily=Manrope;fontSize=12;fontColor=#FFFFFF;endArrow=oval;endFill=1;startArrow=oval;startFill=1;strokeColor=#BEC8D2;entryX=0;entryY=0.5;entryDx=0;entryDy=0;exitX=1;exitY=0.5;exitDx=0;exitDy=0;endSize=3;startSize=3;" edge="1" parent="KsfZ53XNfK_N4QsgE4jr-1" source="KsfZ53XNfK_N4QsgE4jr-22" target="KsfZ53XNfK_N4QsgE4jr-23">
          <mxGeometry relative="1" as="geometry">
            <mxPoint x="232.14" y="241.37" as="sourcePoint" />
            <mxPoint x="314.14" y="241.37" as="targetPoint" />
          </mxGeometry>
        </mxCell>
        <mxCell id="KsfZ53XNfK_N4QsgE4jr-22" value="10" style="ellipse;whiteSpace=wrap;html=1;aspect=fixed;fontColor=#FFFFFF;fontSize=8;strokeColor=#00C9FF;fontFamily=Google Sans;fontSource=https%3A%2F%2Ffonts.googleapis.com%2Fcss%3Ffamily%3DGoogle%2BSans;fillColor=#00C9FF;strokeWidth=1;" vertex="1" parent="KsfZ53XNfK_N4QsgE4jr-1">
          <mxGeometry x="362.93000000000006" y="245" width="10" height="10" as="geometry" />
        </mxCell>
        <mxCell id="KsfZ53XNfK_N4QsgE4jr-23" value="10" style="ellipse;whiteSpace=wrap;html=1;aspect=fixed;fontColor=#FFFFFF;fontSize=8;strokeColor=#00C9FF;fontFamily=Google Sans;fontSource=https%3A%2F%2Ffonts.googleapis.com%2Fcss%3Ffamily%3DGoogle%2BSans;fillColor=#00C9FF;strokeWidth=1;" vertex="1" parent="KsfZ53XNfK_N4QsgE4jr-1">
          <mxGeometry x="426" y="245" width="10" height="10" as="geometry" />
        </mxCell>
        <mxCell id="KsfZ53XNfK_N4QsgE4jr-24" value="" style="rounded=0;orthogonalLoop=1;jettySize=auto;html=1;fontFamily=Manrope;fontSize=12;fontColor=#FFFFFF;endArrow=oval;endFill=1;startArrow=oval;startFill=1;strokeColor=#BEC8D2;entryX=0;entryY=0.5;entryDx=0;entryDy=0;exitX=1;exitY=0.5;exitDx=0;exitDy=0;endSize=3;startSize=3;" edge="1" parent="KsfZ53XNfK_N4QsgE4jr-1" source="KsfZ53XNfK_N4QsgE4jr-26" target="KsfZ53XNfK_N4QsgE4jr-25">
          <mxGeometry relative="1" as="geometry">
            <mxPoint x="611.7799999999999" y="198.13" as="sourcePoint" />
            <mxPoint x="611.7799999999999" y="238.13" as="targetPoint" />
          </mxGeometry>
        </mxCell>
        <mxCell id="KsfZ53XNfK_N4QsgE4jr-25" value="1" style="ellipse;whiteSpace=wrap;html=1;aspect=fixed;fontColor=#4D5766;fontSize=8;strokeColor=#98A2AE;fontFamily=Google Sans;fontSource=https%3A%2F%2Ffonts.googleapis.com%2Fcss%3Ffamily%3DGoogle%2BSans;fillColor=#FFFFFF;strokeWidth=1;" vertex="1" parent="KsfZ53XNfK_N4QsgE4jr-1">
          <mxGeometry x="571.89" y="245" width="10" height="10" as="geometry" />
        </mxCell>
        <mxCell id="KsfZ53XNfK_N4QsgE4jr-26" value="1" style="ellipse;whiteSpace=wrap;html=1;aspect=fixed;fontColor=#FFFFFF;fontSize=8;strokeColor=#00C9FF;fontFamily=Google Sans;fontSource=https%3A%2F%2Ffonts.googleapis.com%2Fcss%3Ffamily%3DGoogle%2BSans;fillColor=#00C9FF;strokeWidth=1;" vertex="1" parent="KsfZ53XNfK_N4QsgE4jr-1">
          <mxGeometry x="490.86" y="245" width="10" height="10" as="geometry" />
        </mxCell>
        <mxCell id="KsfZ53XNfK_N4QsgE4jr-27" value="" style="group" vertex="1" connectable="0" parent="KsfZ53XNfK_N4QsgE4jr-1">
          <mxGeometry x="169" y="236.62" width="52.25" height="54.85000000000002" as="geometry" />
        </mxCell>
        <mxCell id="KsfZ53XNfK_N4QsgE4jr-28" value="" style="rounded=1;whiteSpace=wrap;html=1;strokeColor=none;arcSize=2;" vertex="1" parent="KsfZ53XNfK_N4QsgE4jr-27">
          <mxGeometry x="6" y="2" width="38" height="22" as="geometry" />
        </mxCell>
        <mxCell id="KsfZ53XNfK_N4QsgE4jr-29" value="" style="shape=image;editableCssRules=\.color;verticalLabelPosition=bottom;labelBackgroundColor=#ffffff;verticalAlign=top;aspect=fixed;imageAspect=0;image=data:image/svg+xml,PHN2ZyB4bWxucz0iaHR0cDovL3d3dy53My5vcmcvMjAwMC9zdmciIHhtbG5zOnhsaW5rPSJodHRwOi8vd3d3LnczLm9yZy8xOTk5L3hsaW5rIiB2aWV3Qm94PSIwIDAgMTMxIDgxIiBmaWxsPSIjZmZmIiBmaWxsLXJ1bGU9ImV2ZW5vZGQiIHN0cm9rZT0iIzAwMCIgc3Ryb2tlLWxpbmVjYXA9InJvdW5kIiBzdHJva2UtbGluZWpvaW49InJvdW5kIj48dXNlIHhsaW5rOmhyZWY9IiNBIiB4PSIuNSIgeT0iLjUiLz48c3ltYm9sIGlkPSJBIiBvdmVyZmxvdz0idmlzaWJsZSI+PHBhdGggY2xhc3M9ImNvbG9yIiBkPSJNMTE5LjA3OCA2Mi43MDNWNy4yNzVjMC0yLjc0Ni0yLjU0LTcuMjc1LTUuNTgtNy4yNzVIMTYuNDc1Yy0zLjA0IDAtNi4wOCA0LjUzLTYuMDggNy4yNzV2NTUuNDI3Qy0uNDk4IDc0LjI0NC4wMDQgNzQuMjQ0LjAwNCA3NC4yNDQuMDA0IDc3LjUxNiAzLjA0NCA4MCA2Ljg1MiA4MGgxMTYuM2MzLjgwOCAwIDYuODQ4LTIuNzQ3IDYuODQ4LTUuNzU2bC0xMC45MjItMTEuNTR6TTczLjk3NSA3NS4yMzdoLTIwLjI4Yy0xLjAwNCAwLTIuMDM3LS40OTctMi4wMzctLjk5M2wyLjI3My0zLjc3YzAtLjQ5Ny43NjctLjc2IDEuNzctLjc2SDcxLjkxYy43NjcgMCAxLjUzNS4yNjMgMS41MzUuNzZsMi41NCAzLjc3Yy4wMy43My0xLjAwNC45OTMtMi4wMDcuOTkzaDB6bTQwLjI5Mi0xMi43OThIMTUuMjA1VjcuNzcyYzAtMS4yNTYgMS4yNy0zLjAxIDIuNzc1LTMuMDFoOTMuNzVjMS41MzUgMCAyLjU0IDEuNzUzIDIuNTQgM1Y2Mi40NHoiIGZpbGw9IiMyYTMyODIiIHN0cm9rZT0ibm9uZSIvPjwvc3ltYm9sPjxzdHlsZSB0eXBlPSJ0ZXh0L2NzcyI+LmNvbG9yIHsgZmlsbDogcmdiKDAsIDE3LCA1Myk7IH0gPC9zdHlsZT48L3N2Zz4=;" vertex="1" parent="KsfZ53XNfK_N4QsgE4jr-27">
          <mxGeometry width="49.89" height="30.85" as="geometry" />
        </mxCell>
        <mxCell id="KsfZ53XNfK_N4QsgE4jr-30" value="&lt;font style=&quot;font-size: 12px;&quot;&gt;client1&lt;/font&gt;" style="text;html=1;align=center;verticalAlign=middle;resizable=0;points=[];autosize=1;fontSize=12;fontFamily=Google Sans;fontStyle=0;fontColor=#FFFFFF;fontSource=https%3A%2F%2Ffonts.googleapis.com%2Fcss%3Ffamily%3DGoogle%2BSans;" vertex="1" parent="KsfZ53XNfK_N4QsgE4jr-27">
          <mxGeometry x="0.25" y="28.850000000000023" width="52" height="26" as="geometry" />
        </mxCell>
        <mxCell id="KsfZ53XNfK_N4QsgE4jr-31" value="" style="shape=image;verticalLabelPosition=bottom;labelBackgroundColor=default;verticalAlign=top;aspect=fixed;imageAspect=0;image=data:image/png,iVBORw0KGgoAAAANSUhEUgAAACAAAAAgCAMAAABEpIrGAAAA6lBMVEUAWv8IX/9NjP8LYf/8/f9zpP////+bvv8FXf++1f8SZv/Z5/8mcv/t8/9BhP/6/P9lm/+Ntf8CXP+yzf8MYv+30P/Q4P8ebf8veP9rn//7/P/n7/83ff9HiP/w9f/2+f9Xkv8qdf/e6f/+/v9+q/8BWv8VZ//E2f+lxf8HXv+jw//G2v8WaP98qv/f6v8td/9Vkf/x9v9Kiv81ff/m7/9vov8dbf+XvP8EXf+70/8QZP/X5f8kcf9lnP/r8v8+gv9Chf/u9P/5+/8nc//a5/8TZv/A1v8GXv+ewP/4+v8ueP92pv/9/v9Rjv8gB2lPAAAAAW9yTlQBz6J3mgAAAAFzUkdCAK7OHOkAAADKSURBVDjLrdNJX0EBGIXxc7s8kspMk2RqooEGEUWpXOX7fx27Vt7fu3HW/+V5pA0s2HJAGIs7ABLbDiC54wBSuw5gb98BpDMOgGzOAeQLNigCUCqb4ODwCOD4xASqnAJUz0ygWh2g0WxZQOcXAFwGFtDVNQDtjgWkmwbA7Z0JdF8F6PZMoIdHgNiTCfRcAqD/YgEV8gAMhhZQLgvA68gC0jgN8PZuAk2mAB+BCfQ5AwhtoK9vB+hn/g+iKIoWa37w+xc6zS2DTaS9AgWAEyiBKbEgAAAAAElFTkSuQmCC;" vertex="1" parent="KsfZ53XNfK_N4QsgE4jr-27">
          <mxGeometry x="18.44999999999999" y="6.5" width="13" height="13" as="geometry" />
        </mxCell>
        <mxCell id="KsfZ53XNfK_N4QsgE4jr-32" value="" style="group" vertex="1" connectable="0" parent="KsfZ53XNfK_N4QsgE4jr-1">
          <mxGeometry x="583" y="236.62" width="53.25" height="54.85000000000002" as="geometry" />
        </mxCell>
        <mxCell id="KsfZ53XNfK_N4QsgE4jr-33" value="" style="rounded=1;whiteSpace=wrap;html=1;strokeColor=none;arcSize=2;" vertex="1" parent="KsfZ53XNfK_N4QsgE4jr-32">
          <mxGeometry x="6" y="2" width="38" height="22" as="geometry" />
        </mxCell>
        <mxCell id="KsfZ53XNfK_N4QsgE4jr-34" value="" style="shape=image;editableCssRules=\.color;verticalLabelPosition=bottom;labelBackgroundColor=#ffffff;verticalAlign=top;aspect=fixed;imageAspect=0;image=data:image/svg+xml,PHN2ZyB4bWxucz0iaHR0cDovL3d3dy53My5vcmcvMjAwMC9zdmciIHhtbG5zOnhsaW5rPSJodHRwOi8vd3d3LnczLm9yZy8xOTk5L3hsaW5rIiB2aWV3Qm94PSIwIDAgMTMxIDgxIiBmaWxsPSIjZmZmIiBmaWxsLXJ1bGU9ImV2ZW5vZGQiIHN0cm9rZT0iIzAwMCIgc3Ryb2tlLWxpbmVjYXA9InJvdW5kIiBzdHJva2UtbGluZWpvaW49InJvdW5kIj48dXNlIHhsaW5rOmhyZWY9IiNBIiB4PSIuNSIgeT0iLjUiLz48c3ltYm9sIGlkPSJBIiBvdmVyZmxvdz0idmlzaWJsZSI+PHBhdGggY2xhc3M9ImNvbG9yIiBkPSJNMTE5LjA3OCA2Mi43MDNWNy4yNzVjMC0yLjc0Ni0yLjU0LTcuMjc1LTUuNTgtNy4yNzVIMTYuNDc1Yy0zLjA0IDAtNi4wOCA0LjUzLTYuMDggNy4yNzV2NTUuNDI3Qy0uNDk4IDc0LjI0NC4wMDQgNzQuMjQ0LjAwNCA3NC4yNDQuMDA0IDc3LjUxNiAzLjA0NCA4MCA2Ljg1MiA4MGgxMTYuM2MzLjgwOCAwIDYuODQ4LTIuNzQ3IDYuODQ4LTUuNzU2bC0xMC45MjItMTEuNTR6TTczLjk3NSA3NS4yMzdoLTIwLjI4Yy0xLjAwNCAwLTIuMDM3LS40OTctMi4wMzctLjk5M2wyLjI3My0zLjc3YzAtLjQ5Ny43NjctLjc2IDEuNzctLjc2SDcxLjkxYy43NjcgMCAxLjUzNS4yNjMgMS41MzUuNzZsMi41NCAzLjc3Yy4wMy43My0xLjAwNC45OTMtMi4wMDcuOTkzaDB6bTQwLjI5Mi0xMi43OThIMTUuMjA1VjcuNzcyYzAtMS4yNTYgMS4yNy0zLjAxIDIuNzc1LTMuMDFoOTMuNzVjMS41MzUgMCAyLjU0IDEuNzUzIDIuNTQgM1Y2Mi40NHoiIGZpbGw9IiMyYTMyODIiIHN0cm9rZT0ibm9uZSIvPjwvc3ltYm9sPjxzdHlsZSB0eXBlPSJ0ZXh0L2NzcyI+LmNvbG9yIHsgZmlsbDogcmdiKDAsIDE3LCA1Myk7IH0gPC9zdHlsZT48L3N2Zz4=;" vertex="1" parent="KsfZ53XNfK_N4QsgE4jr-32">
          <mxGeometry width="49.89" height="30.85" as="geometry" />
        </mxCell>
        <mxCell id="KsfZ53XNfK_N4QsgE4jr-35" value="&lt;font style=&quot;font-size: 12px;&quot;&gt;client2&lt;/font&gt;" style="text;html=1;align=center;verticalAlign=middle;resizable=0;points=[];autosize=1;fontSize=12;fontFamily=Google Sans;fontStyle=0;fontColor=#FFFFFF;fontSource=https%3A%2F%2Ffonts.googleapis.com%2Fcss%3Ffamily%3DGoogle%2BSans;" vertex="1" parent="KsfZ53XNfK_N4QsgE4jr-32">
          <mxGeometry x="-0.75" y="28.850000000000023" width="54" height="26" as="geometry" />
        </mxCell>
        <mxCell id="KsfZ53XNfK_N4QsgE4jr-36" value="" style="shape=image;verticalLabelPosition=bottom;labelBackgroundColor=default;verticalAlign=top;aspect=fixed;imageAspect=0;image=data:image/png,iVBORw0KGgoAAAANSUhEUgAAACAAAAAgCAMAAABEpIrGAAAA6lBMVEUAWv8IX/9NjP8LYf/8/f9zpP////+bvv8FXf++1f8SZv/Z5/8mcv/t8/9BhP/6/P9lm/+Ntf8CXP+yzf8MYv+30P/Q4P8ebf8veP9rn//7/P/n7/83ff9HiP/w9f/2+f9Xkv8qdf/e6f/+/v9+q/8BWv8VZ//E2f+lxf8HXv+jw//G2v8WaP98qv/f6v8td/9Vkf/x9v9Kiv81ff/m7/9vov8dbf+XvP8EXf+70/8QZP/X5f8kcf9lnP/r8v8+gv9Chf/u9P/5+/8nc//a5/8TZv/A1v8GXv+ewP/4+v8ueP92pv/9/v9Rjv8gB2lPAAAAAW9yTlQBz6J3mgAAAAFzUkdCAK7OHOkAAADKSURBVDjLrdNJX0EBGIXxc7s8kspMk2RqooEGEUWpXOX7fx27Vt7fu3HW/+V5pA0s2HJAGIs7ABLbDiC54wBSuw5gb98BpDMOgGzOAeQLNigCUCqb4ODwCOD4xASqnAJUz0ygWh2g0WxZQOcXAFwGFtDVNQDtjgWkmwbA7Z0JdF8F6PZMoIdHgNiTCfRcAqD/YgEV8gAMhhZQLgvA68gC0jgN8PZuAk2mAB+BCfQ5AwhtoK9vB+hn/g+iKIoWa37w+xc6zS2DTaS9AgWAEyiBKbEgAAAAAElFTkSuQmCC;" vertex="1" parent="KsfZ53XNfK_N4QsgE4jr-32">
          <mxGeometry x="18.450000000000045" y="6.5" width="13" height="13" as="geometry" />
        </mxCell>
      </root>
    </mxGraphModel>
  </diagram>
</mxfile>
